<svg xmlns="http://www.w3.org/2000/svg" fill="none" viewBox="-0.5 -0.5 20 20" id="Bank--Streamline-Kameleon.svg" height="40px" width="40px"><desc>Bank Streamline Icon: https://streamlinehq.com</desc><path fill="#25b7d3" d="M9.5 18.999089583333337c5.2467708333333345 0 9.5 -4.25303125 9.5 -9.499525C19 4.25303125 14.746770833333336 0 9.5 0S0 4.25303125 0 9.499564583333333c0 5.246493750000001 4.253229166666666 9.499525 9.5 9.499525Z" stroke-width="1"></path><path fill="#ffffff" d="M15.027179166666668 8.808558333333334v-0.6908479166666668L9.499920833333334 4.663312500000001l-5.527297916666667 3.454397916666667v0.6908479166666668h1.3818145833333335v4.836133333333334h-0.6908875000000001v0.6908875000000001H14.33629166666667v-0.6908875000000001h-0.6909270833333334V8.808558333333334h1.3818145833333335Zm-7.6000000000000005 4.836133333333334V8.808558333333334h1.0363708333333335v4.836133333333334h-1.0363708333333335Zm3.1091125 0V8.808558333333334h1.0363312500000001v4.836133333333334H10.536291666666667Z" stroke-width="1"></path><path fill="#cfd3d4" d="M6.736252083333334 8.808558333333334h-0.6908875000000001v4.836133333333334h0.6908875000000001V8.808558333333334Z" stroke-width="1"></path><path fill="#e2e4e5" d="M6.045364583333334 10.638337500000002v-1.829779166666667h0.6908875000000001v2.520666666666667l-0.6908875000000001 -0.6908875000000001Z" stroke-width="1"></path><path fill="#cfd3d4" d="M9.845325 8.808558333333334H9.1544375v4.836133333333334h0.6908875000000001V8.808558333333334Z" stroke-width="1"></path><path fill="#e2e4e5" d="M9.1544375 10.638337500000002v-1.829779166666667h0.6908875000000001v2.520666666666667l-0.6908875000000001 -0.6908875000000001Z" stroke-width="1"></path><path fill="#cfd3d4" d="M12.954595833333336 8.808558333333334h-0.6909270833333334v4.836133333333334h0.6909270833333334V8.808558333333334Z" stroke-width="1"></path><path fill="#e2e4e5" d="M12.26366875 10.638337500000002v-1.829779166666667h0.6909270833333334v2.520666666666667l-0.6909270833333334 -0.6908875000000001Z" stroke-width="1"></path><path fill="#e2e4e5" d="M15.027179166666668 14.335539583333334H3.972622916666667v0.6908479166666668h11.054556250000001v-0.6908479166666668Z" stroke-width="1"></path><path fill="#e2e4e5" d="m9.499960416666667 5.6997625 -3.281814583333334 2.072622916666667h3.281814583333334v-2.072622916666667Z" stroke-width="1"></path><path fill="#e2e4e5" d="m9.5 5.6997625 3.281814583333334 2.072622916666667H9.5v-2.072622916666667Z" stroke-width="1"></path></svg>