<?xml version="1.0" encoding="iso-8859-1"?>
<!-- Uploaded to: SVG Repo, www.svgrepo.com, Generator: SVG Repo Mixer Tools -->
<svg height="40px" width="40px" version="1.1" id="Layer_1" xmlns="http://www.w3.org/2000/svg" xmlns:xlink="http://www.w3.org/1999/xlink" 
	 viewBox="0 0 511.989 511.989" xml:space="preserve">
<path style="fill:#ED5564;" d="M313.087,75.342l-85.343-31.999c-3.266-1.234-6.938-0.781-9.812,1.219
	c-2.875,1.984-4.593,5.265-4.593,8.765v63.999c0,3.5,1.718,6.766,4.593,8.766c1.812,1.25,3.922,1.906,6.078,1.906
	c1.25,0,2.516-0.234,3.734-0.688l85.342-32c4.156-1.562,6.906-5.547,6.906-9.984C319.993,80.873,317.243,76.905,313.087,75.342z"/>
<path style="fill:#8CC153;" d="M501.332,437.318H202.667c-5.891,0-10.671-4.781-10.671-10.672c0-42.732,16.656-82.92,46.874-113.139
	c30.218-30.217,70.39-46.857,113.122-46.857c42.75,0,82.92,16.641,113.139,46.857c30.218,30.219,46.858,70.406,46.858,113.139
	C511.988,432.537,507.223,437.318,501.332,437.318z"/>
<path style="opacity:0.2;fill:#FFFFFF;enable-background:new    ;" d="M465.13,313.508c-30.219-30.217-70.389-46.857-113.139-46.857
	c-1.781,0-3.547,0.047-5.328,0.094c40.734,1.328,78.843,17.812,107.811,46.764c30.219,30.219,46.858,70.406,46.858,113.139
	c0,5.891-4.781,10.672-10.671,10.672h10.671c5.891,0,10.656-4.781,10.656-10.672C511.988,383.914,495.348,343.726,465.13,313.508z"
	/>
<path style="fill:#A0D468;" d="M382.397,310.93c-42.312-42.311-98.561-65.607-158.403-65.607
	c-59.827,0-116.076,23.296-158.387,65.607C23.311,353.226,0,409.49,0,469.318v10.67h447.989v-10.67
	C447.989,409.49,424.693,353.226,382.397,310.93z"/>
<path style="opacity:0.2;fill:#FFFFFF;enable-background:new    ;" d="M382.397,310.93c-42.312-42.311-98.561-65.607-158.403-65.607
	c-3.562,0-7.125,0.094-10.656,0.25c55.826,2.594,107.936,25.578,147.715,65.357c42.312,42.297,65.608,98.561,65.608,158.389v10.67
	h21.327v-10.67C447.989,409.49,424.693,353.226,382.397,310.93z"/>
<path style="fill:#E6E9ED;" d="M106.669,234.651c-17.641,0-32,14.359-32,32s14.359,32,32,32c17.64,0,31.999-14.359,31.999-32
	C138.668,249.01,124.309,234.651,106.669,234.651z"/>
<path style="fill:#434A54;" d="M224.01,277.322c41.467,0,53.327-25.281,53.327-25.281l0.219-0.297
	c-17.312-4.234-35.265-6.422-53.561-6.422c-18.046,0-35.78,2.141-52.905,6.266l-0.422,0.453
	C170.668,252.041,182.527,277.322,224.01,277.322z"/>
<path style="fill:#656D78;" d="M223.994,266.65c-5.875,0-10.656-4.766-10.656-10.656V42.656c0-5.891,4.781-10.656,10.656-10.656
	c5.906,0,10.672,4.766,10.672,10.656v213.338C234.666,261.885,229.901,266.65,223.994,266.65z"/>
</svg>