<svg xmlns="http://www.w3.org/2000/svg" fill="none" viewBox="-0.5 -0.5 20 20" id="Apartment-2--Streamline-Kameleon.svg" height="20" width="20"><desc>Apartment 2 Streamline Icon: https://streamlinehq.com</desc><path fill="#25b7d3" d="M9.5 18.999089583333337c5.2467708333333345 0 9.5 -4.25303125 9.5 -9.499525C19 4.25303125 14.746770833333336 0 9.5 0S0 4.25303125 0 9.499564583333333c0 5.246493750000001 4.253229166666666 9.499525 9.5 9.499525Z" stroke-width="1"></path><path fill="#ffffff" d="M11.572741666666667 6.044968750000001H7.427297916666667v8.981379166666668h4.14544375V6.044968750000001Z" stroke-width="1"></path><path fill="#df2c2c" d="M6.909033333333334 6.045245833333333c-0.03625833333333334 0 -0.07156666666666667 -0.011439583333333335 -0.10097708333333334 -0.03261666666666667 -0.02941041666666667 -0.02121666666666667 -0.05141875 -0.05110208333333333 -0.06285833333333334 -0.0855 -0.011479166666666669 -0.034397916666666674 -0.011835416666666668 -0.07152708333333334 -0.0010291666666666667 -0.10612291666666668 0.010806250000000002 -0.03459583333333334 0.03222083333333334 -0.06491666666666668 0.061235416666666674 -0.08668750000000001l2.5909270833333333 -1.68399375c0.029885416666666668 -0.022443750000000002 0.0662625 -0.03459583333333334 0.10362916666666666 -0.03459583333333334 0.037366666666666666 0 0.07374375000000001 0.012152083333333336 0.10362916666666666 0.03459583333333334l2.5909270833333333 1.68399375c0.028975000000000004 0.021770833333333336 0.050389583333333335 0.05209166666666667 0.061235416666666674 0.08668750000000001 0.010806250000000002 0.03459583333333334 0.010450000000000001 0.07172500000000001 -0.0010291666666666667 0.10612291666666668 -0.011479166666666669 0.034397916666666674 -0.033447916666666674 0.06428333333333333 -0.06285833333333334 0.0855 -0.02941041666666667 0.021177083333333336 -0.06475833333333333 0.03261666666666667 -0.10101666666666667 0.03261666666666667H6.909033333333334Z" stroke-width="1"></path><path fill="#40c9e7" d="M10.8820125 10.8810625h-0.6910458333333334v0.69100625h0.6910458333333334V10.8810625Z" stroke-width="1"></path><path fill="#40c9e7" d="M8.809310416666667 12.263193750000001h-0.6910458333333334v0.69100625h0.6910458333333334v-0.69100625Z" stroke-width="1"></path><path fill="#40c9e7" d="M10.8820125 12.263193750000001h-0.6910458333333334v0.69100625h0.6910458333333334v-0.69100625Z" stroke-width="1"></path><path fill="#84462d" d="M10.190729166666667 13.990254166666668c0 -0.18319166666666667 -0.07279375 -0.35890208333333334 -0.20235 -0.4884583333333334 -0.12955625 -0.12955625 -0.3052666666666667 -0.20235 -0.4884979166666667 -0.20235s-0.3589416666666667 0.07279375 -0.4884979166666667 0.20235c-0.12955625 0.12955625 -0.20235 0.3052666666666667 -0.20235 0.4884583333333334v1.0362125h1.3816958333333336v-1.0362125Z" stroke-width="1"></path><path fill="#f0f1f1" d="M14.33633125 9.499406250000002h-2.763629166666667v5.527020833333333h2.763629166666667v-5.527020833333333Z" stroke-width="1"></path><path fill="#f0f1f1" d="M7.427258333333334 9.499406250000002h-2.7636687500000003v5.527020833333333h2.7636687500000003v-5.527020833333333Z" stroke-width="1"></path><path fill="#df2c2c" d="m7.427139583333334 7.427100000000001 -3.3706000000000005 1.7518791666666667c-0.03233958333333333 0.019435416666666667 -0.057435416666666676 0.04896458333333334 -0.07140833333333334 0.08399583333333334 -0.013972916666666666 0.035070833333333336 -0.01611041666666667 0.07374375000000001 -0.00605625 0.11012083333333335 0.01009375 0.03633750000000001 0.03178541666666667 0.06843958333333335 0.061789583333333335 0.09127916666666668 0.03004375 0.02287916666666667 0.0667375 0.03530833333333334 0.10446041666666668 0.03534791666666667h3.281814583333334v-2.072622916666667Z" stroke-width="1"></path><path fill="#df2c2c" d="m11.572702083333334 7.427100000000001 3.3706000000000005 1.7518791666666667c0.03233958333333333 0.019435416666666667 0.057435416666666676 0.04896458333333334 0.07140833333333334 0.08399583333333334 0.014012500000000002 0.035070833333333336 0.01611041666666667 0.07374375000000001 0.00605625 0.11012083333333335 -0.010054166666666668 0.03633750000000001 -0.03178541666666667 0.06843958333333335 -0.061789583333333335 0.09127916666666668 -0.030004166666666672 0.02287916666666667 -0.06669791666666668 0.03530833333333334 -0.10446041666666668 0.03534791666666667h-3.281814583333334v-2.072622916666667Z" stroke-width="1"></path><path fill="#40c9e7" d="M13.645364583333333 12.953764583333333h-1.3816958333333336v0.6908083333333335h1.3816958333333336v-0.6908083333333335Z" stroke-width="1"></path><path fill="#40c9e7" d="M8.809310416666667 6.736014583333334h-0.6910458333333334v0.6910458333333334h0.6910458333333334v-0.6910458333333334Z" stroke-width="1"></path><path fill="#40c9e7" d="M10.8820125 6.736014583333334h-0.6910458333333334v0.6910458333333334h0.6910458333333334v-0.6910458333333334Z" stroke-width="1"></path><path fill="#40c9e7" d="M8.809310416666667 8.117670833333333h-0.6910458333333334v0.69100625h0.6910458333333334v-0.69100625Z" stroke-width="1"></path><path fill="#40c9e7" d="M10.8820125 8.117670833333333h-0.6910458333333334v0.69100625h0.6910458333333334v-0.69100625Z" stroke-width="1"></path><path fill="#40c9e7" d="M8.809310416666667 9.499406250000002h-0.6910458333333334v0.6910458333333334h0.6910458333333334v-0.6910458333333334Z" stroke-width="1"></path><path fill="#40c9e7" d="M10.8820125 9.499406250000002h-0.6910458333333334v0.6910458333333334h0.6910458333333334v-0.6910458333333334Z" stroke-width="1"></path><path fill="#40c9e7" d="M8.809310416666667 10.8810625h-0.6910458333333334v0.69100625h0.6910458333333334V10.8810625Z" stroke-width="1"></path><path fill="#40c9e7" d="M6.736252083333334 10.190372916666668h-1.3816958333333336v0.6908083333333335h1.3816958333333336v-0.6908083333333335Z" stroke-width="1"></path><path fill="#40c9e7" d="M6.736252083333334 11.572147916666667h-1.3816958333333336v0.6908083333333335h1.3816958333333336v-0.6908083333333335Z" stroke-width="1"></path><path fill="#40c9e7" d="M6.736252083333334 12.953764583333333h-1.3816958333333336v0.6908083333333335h1.3816958333333336v-0.6908083333333335Z" stroke-width="1"></path><path fill="#40c9e7" d="M13.645364583333333 10.190372916666668h-1.3816958333333336v0.6908083333333335h1.3816958333333336v-0.6908083333333335Z" stroke-width="1"></path><path fill="#40c9e7" d="M13.645364583333333 11.572147916666667h-1.3816958333333336v0.6908083333333335h1.3816958333333336v-0.6908083333333335Z" stroke-width="1"></path><path fill="#fa5655" d="M9.499960416666667 4.015729166666667c-0.03645625 0 -0.0729125 0.011597916666666668 -0.10362916666666666 0.034556250000000004l-2.5909270833333333 1.68399375c-0.029014583333333337 0.021770833333333336 -0.05042916666666668 0.05209166666666667 -0.061235416666666674 0.08668750000000001 -0.010806250000000002 0.03459583333333334 -0.010450000000000001 0.07172500000000001 0.0010291666666666667 0.10612291666666668 0.011439583333333335 0.034397916666666674 0.033447916666666674 0.06428333333333333 0.06285833333333334 0.0855 0.02941041666666667 0.021177083333333336 0.06471875 0.03261666666666667 0.10097708333333334 0.03261666666666667h2.5909270833333333V4.015729166666667Z" stroke-width="1"></path></svg>