<svg xmlns="http://www.w3.org/2000/svg" fill="none" viewBox="-0.5 -0.5 20 20" id="Lockers--Streamline-Kameleon.svg" height="40px" width="40px"><desc>Lockers Streamline Icon: https://streamlinehq.com</desc><path fill="#32bea6" d="M9.5 18.999089583333337c5.2467708333333345 0 9.5 -4.25303125 9.5 -9.499525C19 4.25303125 14.746770833333336 0 9.5 0S0 4.25303125 0 9.499564583333333c0 5.246493750000001 4.253229166666666 9.499525 9.5 9.499525Z" stroke-width="1"></path><path fill="#84462d" d="M13.300039583333334 9.844889583333336c0.19 0 0.34544375000000005 0.15544375000000002 0.34544375000000005 0.34544375000000005v4.490689583333334c0 0.19 -0.15544375000000002 0.34544375000000005 -0.34544375000000005 0.34544375000000005h-7.6000000000000005c-0.19 0 -0.34548333333333336 -0.15544375000000002 -0.34548333333333336 -0.34544375000000005V10.190333333333335c0 -0.19 0.15548333333333333 -0.34544375000000005 0.34548333333333336 -0.34544375000000005h7.6000000000000005Z" stroke-width="1"></path><path fill="#9c6144" d="M5.700039583333334 9.844889583333336c-0.19 0 -0.34548333333333336 0.15544375000000002 -0.34548333333333336 0.34544375000000005v4.490689583333334c0 0.09242708333333334 0.03716875 0.17618541666666668 0.09674166666666668 0.23821250000000002l5.074741666666667 -5.074345833333334h-4.8260000000000005Z" stroke-width="1"></path><path fill="#692e19" d="M11.066550000000001 9.844968750000001h-0.7030000000000001l-0.3575166666666667 -0.5181854166666667h-1.0121854166666668l-0.35755625 0.5181854166666667h-0.7030000000000001l0.6908875000000001 -1.0363312500000001h1.7514833333333335l0.6908875000000001 1.0363312500000001Z" stroke-width="1"></path><path fill="#d4a263" d="M7.427218750000001 9.844889583333336h-0.6908875000000001v5.181577083333334h0.6908875000000001V9.844889583333336Z" stroke-width="1"></path><path fill="#d4a263" d="M12.263629166666668 9.844889583333336h-0.6909270833333334v5.181577083333334h0.6909270833333334V9.844889583333336Z" stroke-width="1"></path><path fill="#f3b607" d="M9.379389583333333 6.736133333333335h0.8114583333333334v-0.34544375000000005h0.6909270833333334v0.34544375000000005h0.4318145833333334l0.2591125 -0.34544375000000005h0.6908875000000001v0.34544375000000005h0.6909270833333334l0.5751854166666668 -0.6908875000000001H9.499960416666667c0 0.24268541666666668 -0.04385833333333333 0.47448541666666677 -0.12057083333333334 0.6908875000000001Z" stroke-width="1"></path><path fill="#facb1b" d="M12.954556250000001 5.008835416666667H9.220541666666668c-0.3585854166666667 -0.6188458333333333 -1.0265145833333336 -1.0362916666666666 -1.7932437500000002 -1.0362916666666666 -1.1446708333333333 0 -2.072741666666667 0.9280312500000001 -2.072741666666667 2.072622916666667 0 1.1446312500000002 0.9280708333333333 2.072622916666667 2.072741666666667 2.072622916666667s2.072741666666667 -0.9279916666666667 2.072741666666667 -2.072622916666667h4.029702083333334l0.28848333333333337 -0.34544375000000005 -0.8636687500000001 -0.6908875000000001Zm-5.700000000000001 1.82685c0.00003958333333333334 0.028697916666666667 -0.007085416666666667 0.05696041666666667 -0.02074166666666667 0.08217500000000001 -0.013616666666666668 0.025254166666666668 -0.03332916666666667 0.04670833333333334 -0.057316666666666675 0.062422916666666675 -0.024027083333333334 0.015714583333333334 -0.05153750000000001 0.02521458333333334 -0.08011666666666667 0.02762916666666667 -0.02857916666666667 0.0024145833333333337 -0.057316666666666675 -0.0023354166666666666 -0.08363958333333334 -0.013814583333333335 -0.18473541666666668 -0.0805125 -0.3419604166666667 -0.21319583333333333 -0.4523583333333334 -0.3817416666666667 -0.11043750000000002 -0.16854583333333337 -0.16925833333333334 -0.36567083333333333 -0.16925833333333334 -0.5671895833333334 0 -0.20151875000000002 0.05882083333333334 -0.3986437500000001 0.16925833333333334 -0.5671895833333334 0.11039791666666667 -0.16854583333333337 0.2676229166666667 -0.3012291666666667 0.4523583333333334 -0.3817416666666667 0.05339791666666667 -0.023314583333333336 0.11506875000000001 -0.01812916666666667 0.16375625000000002 0.013656250000000002 0.04872708333333334 0.032141666666666666 0.07805833333333334 0.08637083333333334 0.07805833333333334 0.14455833333333334v1.5812354166666667Z" stroke-width="1"></path><path fill="#fbe158" d="M8.794427083333334 4.494845833333334c-0.3649583333333334 -0.3228020833333334 -0.8413437500000002 -0.5223020833333334 -1.367129166666667 -0.5223020833333334 -1.1446708333333333 0 -2.072741666666667 0.9280312500000001 -2.072741666666667 2.072622916666667 0 0.5257458333333334 0.19728333333333337 1.0041895833333334 0.5199270833333334 1.3696625l0.7363291666666668 -0.7362895833333334c-0.14210416666666667 -0.18057916666666668 -0.2195291666666667 -0.40359166666666674 -0.2198854166666667 -0.6333729166666667 0.00003958333333333334 -0.20151875000000002 0.05886041666666667 -0.3986833333333334 0.16933750000000003 -0.5672291666666668 0.11043750000000002 -0.16854583333333337 0.26770208333333334 -0.3012291666666667 0.45247708333333336 -0.3817020833333334 0.05339791666666667 -0.023314583333333336 0.11506875000000001 -0.01812916666666667 0.16375625000000002 0.013656250000000002 0.04872708333333334 0.032141666666666666 0.07805833333333334 0.08637083333333334 0.07805833333333334 0.14455833333333334v0.7803458333333334l1.5398708333333335 -1.5399500000000002Z" stroke-width="1"></path><path fill="#edbc7c" d="M7.427218750000001 12.943472916666668v-3.098583333333334h-0.6908875000000001v3.7894708333333336l0.6908875000000001 -0.6908875000000001Z" stroke-width="1"></path></svg>