<svg xmlns="http://www.w3.org/2000/svg" fill="none" viewBox="-0.5 -0.5 20 20" id="Service-Bell--Streamline-Kameleon.svg" height="20" width="20"><desc>Service Bell Streamline Icon: https://streamlinehq.com</desc><path fill="#e04f5f" d="M9.5 18.999089583333337c5.2467708333333345 0 9.5 -4.25303125 9.5 -9.499525C19 4.25303125 14.746770833333336 0 9.5 0S0 4.25303125 0 9.499564583333333c0 5.246493750000001 4.253229166666666 9.499525 9.5 9.499525Z" stroke-width="1"></path><path fill="#f3b607" d="M10.190729166666667 6.045166666666668h-1.3816958333333336v0.8635104166666668h1.3816958333333336V6.045166666666668Z" stroke-width="1"></path><path fill="#f3b607" d="M9.845641666666667 5.526783333333334h-0.6910458333333334v0.5182645833333334h0.6910458333333334v-0.5182645833333334Z" stroke-width="1"></path><path fill="#f3b607" d="M15.027377083333336 13.644850000000002H3.972820833333334v0.6908875000000001h11.054556250000001v-0.6908875000000001Z" stroke-width="1"></path><path fill="#f3b607" d="M3.972820833333334 13.644850000000002c0.6909270833333334 -0.34544375000000005 0.8636291666666668 -0.6908875000000001 0.8636291666666668 -1.3817354166666667h9.327297916666668c0 0.6908479166666668 0.34544375000000005 1.0362916666666666 0.8636291666666668 1.3817354166666667H3.972820833333334Z" stroke-width="1"></path><path fill="#facb1b" d="M4.705191666666667 12.081070833333335c-0.0012270833333333335 0.023433333333333337 0.0023354166666666666 0.046866666666666675 0.010410416666666669 0.068875 0.008114583333333335 0.022008333333333335 0.020622916666666668 0.042156250000000006 0.03677291666666667 0.05913750000000001 0.01615 0.017020833333333332 0.03558541666666667 0.030597916666666666 0.05715833333333334 0.03986041666666667 0.021572916666666667 0.009222916666666667 0.04476875000000001 0.014012500000000002 0.06824166666666667 0.014012500000000002h9.3149875c0.02347291666666667 -0.00003958333333333334 0.04666875000000001 -0.004829166666666667 0.06824166666666667 -0.014091666666666667 0.021533333333333335 -0.009262500000000002 0.041008333333333334 -0.0228 0.05715833333333334 -0.03982083333333333 0.01615 -0.016981250000000003 0.028658333333333338 -0.03712916666666667 0.036812500000000005 -0.05909791666666667 0.008154166666666667 -0.022008333333333335 0.011716666666666669 -0.04544166666666667 0.010529166666666668 -0.068875 -0.051141666666666676 -0.9549479166666668 -0.5199270833333334 -5.345135416666667 -4.830156250000001 -5.345135416666667 -4.310229166666667 0 -4.779172916666667 4.390187500000001 -4.830156250000001 5.345135416666667Z" stroke-width="1"></path><path fill="#f3b607" d="M9.535506250000001 12.263114583333333H4.836450000000001c0 0.6908479166666668 -0.17270208333333337 1.0362916666666666 -0.8636291666666668 1.3817354166666667h5.5626854166666675v-1.3817354166666667Z" stroke-width="1"></path><path fill="#facb1b" d="M9.535506250000001 13.644850000000002H3.972820833333334v0.6908875000000001h5.5626854166666675v-0.6908875000000001Z" stroke-width="1"></path><path fill="#fbe158" d="M9.535347916666668 6.735935416666667c-4.3103875 0 -4.779172916666667 4.389989583333334 -4.830156250000001 5.345135416666667 -0.0012270833333333335 0.023433333333333337 0.0023354166666666666 0.046866666666666675 0.010410416666666669 0.068875 0.008114583333333335 0.022008333333333335 0.020622916666666668 0.042156250000000006 0.03677291666666667 0.05913750000000001 0.01615 0.017020833333333332 0.03558541666666667 0.030597916666666666 0.05715833333333334 0.03986041666666667 0.021572916666666667 0.009222916666666667 0.04476875000000001 0.014012500000000002 0.06824166666666667 0.014012500000000002h4.657572916666667v-5.527020833333333Z" stroke-width="1"></path><path fill="#fbe158" d="M8.448072916666668 5.277447916666667c-0.014487500000000002 0.0254125 -0.022047916666666667 0.054229166666666676 -0.021929166666666666 0.08348125 0.00011875 0.029291666666666667 0.007956250000000002 0.05798958333333334 0.02268125 0.08328333333333335 0.014725 0.02529375 0.035862500000000005 0.04627291666666667 0.061235416666666674 0.06083958333333334 0.0254125 0.014566666666666667 0.05418958333333333 0.02220625 0.08344166666666666 0.022166666666666668h1.8036145833333335c0.030281250000000003 -0.00011875 0.060008333333333344 -0.008154166666666667 0.08621250000000001 -0.02335416666666667 0.026204166666666667 -0.0152 0.04793541666666667 -0.036970833333333335 0.06309583333333334 -0.06321458333333334 0.015120833333333333 -0.026204166666666667 0.023116666666666667 -0.05593125000000001 0.023195833333333336 -0.08621250000000001 0.00003958333333333334 -0.030281250000000003 -0.0078375 -0.06004791666666667 -0.02291875 -0.08633125 -0.10596458333333333 -0.18382500000000002 -0.25851875 -0.33645833333333336 -0.44230416666666666 -0.4425812500000001 -0.18374583333333336 -0.10612291666666668 -0.3921916666666667 -0.161975 -0.6043979166666666 -0.1619354166666667 -0.21402708333333334 -0.00003958333333333334 -0.4241750000000001 0.05676250000000001 -0.6090291666666667 0.16462708333333334 -0.18481458333333334 0.10786458333333335 -0.3376854166666667 0.26291250000000005 -0.4428979166666667 0.44923125Z" stroke-width="1"></path></svg>