<svg xmlns="http://www.w3.org/2000/svg" fill="none" viewBox="-0.5 -0.5 20 20" id="Cocktail--Streamline-Kameleon.svg" height="20" width="20"><desc>Cocktail Streamline Icon: https://streamlinehq.com</desc><path fill="#ffc42d" d="M9.5002375 19.000989583333336c5.246889583333334 0 9.5002375 -4.253347916666667 9.5002375 -9.500277083333334 0 -5.246889583333334 -4.253347916666667 -9.50022930625 -9.5002375 -9.50022930625C4.253347916666667 0.00048319375 0 4.253822916666667 0 9.5007125c0 5.246929166666667 4.253347916666667 9.500277083333334 9.5002375 9.500277083333334Z" stroke-width="1"></path><path fill="#ffffff" d="M12.91307291666667 6.676877083333333c-1.715422916666667 2.1207958333333337 -3.0193375000000002 3.6878208333333333 -3.9555625000000005 3.6878208333333333h-0.2919270833333334c-0.9721270833333335 0 -2.362610416666667 -1.71178125 -3.960747916666667 -3.68659375 -0.021137500000000004 -0.025452083333333334 -0.03475416666666667 -0.05632708333333334 -0.03934583333333334 -0.08910208333333335 -0.004552083333333333 -0.03273541666666667 0.00007916666666666668 -0.06614375 0.013458333333333336 -0.09642500000000001 0.029370833333333336 -0.060443750000000004 0.08981458333333334 -0.10085833333333336 0.1571854166666667 -0.10085833333333336h7.945641666666668c0.06305625000000001 0 0.12714166666666668 0.03661458333333334 0.1571854166666667 0.10018541666666668 0.030756250000000006 0.06285833333333334 0.014368750000000001 0.1265875 -0.0258875 0.18497291666666668Z" stroke-width="1"></path><path fill="#ffffff" d="M6.185291666666667 8.464500000000001c0.27791458333333335 0.3186854166666667 0.5456562500000001 0.6099395833333333 0.8014833333333334 0.8636687500000001h3.6437645833333336c0.2521854166666667 -0.25115625 0.5187 -0.5411833333333333 0.7997416666666667 -0.8636687500000001H6.185291666666667Z" stroke-width="1"></path><path fill="#000000" fill-rule="evenodd" d="M5.314379166666668 7.428050000000001h6.987527083333334c-0.28535625000000003 0.3498375 -0.5759770833333334 0.6953604166666667 -0.8717833333333334 1.0364104166666668H6.185093750000001c-0.29556875000000005 -0.3409708333333334 -0.5858333333333334 -0.6864541666666667 -0.8707145833333334 -1.0364104166666668Zm1.6723958333333333 1.9000395833333334c0.5200854166666667 0.5159687500000001 0.9919979166666668 0.8768104166666668 1.4022395833333334 0.9946104166666668 0.04662916666666667 0.05905833333333334 0.07461458333333335 0.13351458333333335 0.07461458333333335 0.2145416666666667v3.6273375000000003c0 0.0011083333333333333 -0.00011875 0.0022166666666666667 -0.00035625 0.003285416666666667l-0.00015833333333333335 0.0020979166666666668v0.0011875000000000002c-0.9797666666666668 0.034397916666666674 -1.7268229166666667 0.2114541666666667 -1.7268229166666667 0.4252833333333334 0 0.2385291666666667 0.9281104166666667 0.4318145833333334 2.0727812500000002 0.4318145833333334 1.1447104166666668 0 2.0727812500000002 -0.19328541666666668 2.0727812500000002 -0.4318145833333334 0 -0.21382916666666668 -0.7470562500000001 -0.3908854166666667 -1.7264666666666668 -0.4252833333333334 0 -0.0006729166666666667 0 -0.0013854166666666667 -0.0003166666666666667 -0.0020583333333333335v-0.0012270833333333335c-0.00035625 -0.0010291666666666667 -0.0005145833333333334 -0.0021375000000000005 -0.0005145833333333334 -0.003285416666666667v-3.6273375000000003c0 -0.08015625000000001 0.027470833333333337 -0.1539 0.07322916666666668 -0.21248333333333339 0.4059270833333334 -0.11415833333333333 0.87245625 -0.4689437500000001 1.4025958333333335 -0.9966687500000001h-3.6436062500000004Z" clip-rule="evenodd" stroke-width="1"></path><path fill="#000000" d="M15.027495833333335 6.3917583333333345c0 1.1452250000000002 -0.9275562500000002 2.0727812500000002 -2.0727812500000002 2.0727812500000002 -0.44737083333333344 0 -0.8601854166666667 -0.1416291666666667 -1.1987416666666668 -0.3817416666666667 0.3558145833333334 -0.41800000000000004 0.7410000000000001 -0.8895562500000002 1.1572979166666668 -1.4060000000000001 0.04318541666666667 -0.05355625000000001 0.05355625000000001 -0.12437083333333333 0.0258875 -0.18485416666666668 -0.029331250000000003 -0.060443750000000004 -0.08981458333333334 -0.10018541666666668 -0.1571854166666667 -0.10018541666666668h-1.9000395833333334c0 -1.1451854166666668 0.9275562500000002 -2.0727812500000002 2.0727812500000002 -2.0727812500000002s2.0727812500000002 0.9275958333333334 2.0727812500000002 2.0727812500000002Z" stroke-width="1"></path><path fill="#ffffff" d="m13.041243750000001 6.3051104166666665 0.10707291666666668 -1.0596458333333334c0.27819166666666667 -1.01281875 1.9413645833333333 0.5123666666666667 0.9399458333333335 0.8629562500000001l-1.04701875 0.19668958333333336Z" stroke-width="1"></path><path fill="#ffffff" d="m13.041243750000001 6.478089583333334 1.06495 -0.01294375c1.0377166666666668 0.16233125 -0.29010625 1.9867666666666668 -0.7513708333333334 1.0313041666666667l-0.3135791666666667 -1.0183604166666669Z" stroke-width="1"></path><path fill="#ffffff" d="m12.837072916666669 6.747414583333334 -0.09151666666666668 0.7892125000000001c-0.11570208333333334 0.4006229166666667 -0.44555 0.39717916666666675 -0.7356562500000001 0.22792083333333335 0.06737083333333334 -0.08114583333333333 0.13644375 -0.16403333333333334 0.20551666666666668 -0.25036458333333333 0.19514583333333335 -0.23833125000000002 0.3989208333333334 -0.4887354166666667 0.611325 -0.7512125000000001 0.00344375 -0.005185416666666667 0.008629166666666667 -0.010370833333333334 0.010331250000000002 -0.015556250000000002Z" stroke-width="1"></path><path fill="#ffffff" d="m12.868343750000003 6.3049125 -1.0571916666666668 -0.12935833333333333c-1.0067625000000002 -0.2992895833333334 0.5527812500000001 -1.9301625000000002 0.8822729166666667 -0.9216583333333334l0.17491875 1.0510166666666667Z" stroke-width="1"></path></svg>