<?xml version='1.0' encoding='iso-8859-1'?>
<!-- Uploaded to: SVG Repo, www.svgrepo.com, Generator: SVG Repo Mixer Tools -->
<svg fill="#000000" height="40px" width="40px" version="1.1" xmlns="http://www.w3.org/2000/svg" viewBox="0 0 279 279" xmlns:xlink="http://www.w3.org/1999/xlink" enable-background="new 0 0 279 279">
  <g>
    <path d="m271.5,70.5v-13c0-5.522-4.145-9.5-9.667-9.5h-65.333v39.976l-56.498,38.849-56.502-38.849v-39.976h-65.667c-5.522,0-10.333,3.978-10.333,9.5v13c0,4.838 4,8.872 8,9.799v165.402c-4,0.927-8,4.961-8,9.799v13c0,5.522 4.811,10.5 10.333,10.5h244c5.522,0 9.667-4.978 9.667-10.5v-13c0-5.185-4-9.447-9-9.949v-165.102c5-0.502 9-4.764 9-9.949zm-25,93.5v82h-17v-82h17zm-33,0v82h-17v-82h17zm-33,0v82h-17v-82h17zm-33,0v82h-17v-82h17zm-33,0v82h-17v-82h17zm-83,0h17v82h-17v-82zm33,0h17v82h-17v-82z"/>
    <path d="m98.5,80.102l41.502,28.498 41.498-28.498v-71.407c0-5.526-3.994-8.695-9.52-8.695h-62.9c-5.527,0-10.58,3.169-10.58,8.695v71.407zm15.797-38.959l17.496-2.768 8.041-15.787 8.036,15.787 17.499,2.768-12.531,12.521 2.776,17.498-15.78-8.049-15.785,8.049 2.779-17.498-12.531-12.521z"/>
  </g>
</svg>