<?xml version="1.0" encoding="iso-8859-1"?>
<!-- Uploaded to: SVG Repo, www.svgrepo.com, Generator: SVG Repo Mixer Tools -->
<svg version="1.1" id="Layer_1" xmlns="http://www.w3.org/2000/svg" xmlns:xlink="http://www.w3.org/1999/xlink" 
	 viewBox="0 0 512 512" xml:space="preserve">
<rect x="234.347" y="315.752" style="fill:#D1D3D3;" width="76.954" height="172.067"/>
<rect x="234.347" y="315.752" style="opacity:0.2;enable-background:new    ;" width="76.954" height="38.516"/>
<path style="fill:#0071CE;" d="M389.214,16.488C389.214,7.42,381.795,0,372.726,0H172.914c-9.068,0-16.488,7.42-16.488,16.488
	v296.501c0,9.068,7.42,16.488,16.488,16.488h199.811c9.068,0,16.488-7.42,16.488-16.488V16.488H389.214z"/>
<path style="fill:#D1D3D3;" d="M208.088,294.303c-9.068,0-16.488-7.419-16.488-16.488V51.662c0-9.068,7.42-16.488,16.488-16.488
	h129.463c9.068,0,16.488,7.42,16.488,16.488v226.153c0,9.068-7.419,16.488-16.488,16.488H208.088z"/>
<path style="opacity:0.2;enable-background:new    ;" d="M337.552,35.174H208.088c-9.068,0-16.488,7.42-16.488,16.488v17.717
	c0-9.068,7.42-16.488,16.488-16.488h129.463c9.068,0,16.488,7.42,16.488,16.488V51.662C354.04,42.593,346.621,35.174,337.552,35.174
	z"/>
<path style="fill:#333E48;" d="M201.927,407.595c-43.639,0-79.141-35.503-79.141-79.141V161.075
	c0-18.55,15.091-33.641,33.642-33.641v16.488c-9.458,0-17.154,7.694-17.154,17.153v167.379c0,34.547,28.106,62.654,62.654,62.654
	s62.654-28.106,62.654-62.654v-51.462h16.488v51.462C281.069,372.092,245.566,407.595,201.927,407.595z"/>
<path style="opacity:0.2;enable-background:new    ;" d="M264.581,276.992v17.733c2.684,0.433,5.437,0.666,8.244,0.666
	s5.56-0.233,8.244-0.666v-17.733L264.581,276.992L264.581,276.992z"/>
<path style="opacity:0.2;enable-background:new    ;" d="M142.142,130.626v20.971c3.077-4.622,8.329-7.676,14.285-7.676v-16.488
	C151.322,127.434,146.481,128.582,142.142,130.626z"/>
<path style="fill:#333E48;" d="M332.755,505.405c0,3.627-2.968,6.595-6.595,6.595H219.491c-3.627,0-6.595-2.968-6.595-6.595v-22.717
	c0-3.627,2.968-6.595,6.595-6.595h106.668c3.627,0,6.595,2.968,6.595,6.595V505.405z"/>
<circle style="opacity:0.2;enable-background:new    ;" cx="256.891" cy="448.446" r="7.877"/>
<circle style="opacity:0.2;enable-background:new    ;" cx="288.767" cy="448.446" r="7.878"/>
<path style="fill:#333E48;" d="M292.976,211.223v-78.072c10.993-6.773,18.325-18.917,18.325-32.777
	c0-21.249-17.226-38.476-38.476-38.476s-38.476,17.226-38.476,38.476c0,13.86,7.332,26.003,18.325,32.777v78.072
	c-10.993,6.773-18.325,18.917-18.325,32.777c0,21.249,17.226,38.476,38.476,38.476s38.476-17.226,38.476-38.476
	C311.301,230.14,303.969,217.996,292.976,211.223z"/>
</svg>