<svg xmlns="http://www.w3.org/2000/svg" fill="none" viewBox="-0.5 -0.5 20 20" id="Apartment-2--Streamline-Kameleon.svg" height="20" width="20"><desc>Apartment 2 Streamline Icon: https://streamlinehq.com</desc><path fill="#52c1ff" d="M9.5002375 19.000475c5.246889583333334 0 9.5002375 -4.253347916666667 9.5002375 -9.5002375C19.000475 4.253347916666667 14.747127083333334 0 9.5002375 0 4.253347916666667 0 0 4.253347916666667 0 9.5002375c0 5.246889583333334 4.253347916666667 9.5002375 9.5002375 9.5002375Z" stroke-width="1"></path><path fill="#000000" d="M11.572860416666668 6.045720833333334h-4.1455625000000005v8.982052083333334h4.1455625000000005V6.045720833333334Z" stroke-width="1"></path><path fill="#000000" d="M6.90923125 6.045562500000001c-0.03625833333333334 0 -0.07156666666666667 -0.0114 -0.10097708333333334 -0.03257708333333333 -0.02941041666666667 -0.02121666666666667 -0.05141875 -0.051141666666666676 -0.06289791666666668 -0.08553958333333334 -0.011439583333333335 -0.03435833333333334 -0.011795833333333335 -0.07148750000000001 -0.0009895833333333334 -0.10612291666666668 0.010806250000000002 -0.03459583333333334 0.03222083333333334 -0.06491666666666668 0.061235416666666674 -0.08668750000000001l2.590966666666667 -1.6841125000000001c0.029885416666666668 -0.022443750000000002 0.0662625 -0.03459583333333334 0.10366875000000002 -0.03459583333333334 0.037366666666666666 0 0.07374375000000001 0.012152083333333336 0.10362916666666666 0.03459583333333334l2.590966666666667 1.6841125000000001c0.029014583333333337 0.021770833333333336 0.05042916666666668 0.05209166666666667 0.061235416666666674 0.08668750000000001 0.010806250000000002 0.03463541666666667 0.010450000000000001 0.07176458333333334 -0.0009895833333333334 0.10612291666666668 -0.011479166666666669 0.034397916666666674 -0.0334875 0.06432291666666667 -0.06289791666666668 0.08553958333333334 -0.02941041666666667 0.021177083333333336 -0.06471875 0.03257708333333333 -0.10097708333333334 0.03257708333333333H6.90923125Z" stroke-width="1"></path><path fill="#ffffff" d="M10.88225 10.882131250000002h-0.6910854166666668v0.6910854166666668h0.6910854166666668v-0.6910854166666668Z" stroke-width="1"></path><path fill="#ffffff" d="M8.809508333333335 12.264064583333335h-0.6910458333333334v0.6910854166666668h0.6910458333333334v-0.6910854166666668Z" stroke-width="1"></path><path fill="#ffffff" d="M10.88225 12.264064583333335h-0.6910854166666668v0.6910854166666668h0.6910854166666668v-0.6910854166666668Z" stroke-width="1"></path><path fill="#ffffff" d="M10.191085416666667 13.991362500000003c0 -0.18327083333333336 -0.07279375 -0.35898125000000003 -0.20238958333333334 -0.4885770833333334 -0.12955625 -0.12955625 -0.30530625 -0.20235 -0.4885375 -0.20235 -0.18327083333333336 0 -0.35898125000000003 0.07279375 -0.4885770833333334 0.20235 -0.12955625 0.12959583333333335 -0.20235 0.30530625 -0.20235 0.4885770833333334v1.0363708333333335h1.3818541666666668v-1.0363708333333335Z" stroke-width="1"></path><path fill="#000000" d="M14.33680625 9.500475000000002h-2.7637083333333337v5.527416666666667h2.7637083333333337v-5.527416666666667Z" stroke-width="1"></path><path fill="#000000" d="M7.427495833333333 9.500475000000002h-2.7637083333333337v5.527416666666667h2.7637083333333337v-5.527416666666667Z" stroke-width="1"></path><path fill="#ffffff" d="m7.427416666666667 7.427575 -3.3706791666666667 1.7520375000000001c-0.03233958333333333 0.019435416666666667 -0.057435416666666676 0.048925 -0.07140833333333334 0.08399583333333334 -0.014012500000000002 0.03503125 -0.01611041666666667 0.07370416666666668 -0.00605625 0.11008125000000002 0.01009375 0.03637708333333334 0.03178541666666667 0.06847916666666667 0.061789583333333335 0.09131875 0.03004375 0.02287916666666667 0.0667375 0.03530833333333334 0.10446041666666668 0.03534791666666667h3.2818937500000005v-2.0727812500000002Z" stroke-width="1"></path><path fill="#ffffff" d="m11.573097916666669 7.427575 3.3706791666666667 1.7520375000000001c0.03233958333333333 0.019435416666666667 0.057435416666666676 0.048925 0.07140833333333334 0.08399583333333334 0.014012500000000002 0.03503125 0.01615 0.07370416666666668 0.00605625 0.11008125000000002 -0.010054166666666668 0.03637708333333334 -0.03178541666666667 0.06847916666666667 -0.061789583333333335 0.09131875 -0.030004166666666672 0.02287916666666667 -0.06669791666666668 0.03530833333333334 -0.10446041666666668 0.03534791666666667h-3.2818937500000005v-2.0727812500000002Z" stroke-width="1"></path><path fill="#ffffff" d="M13.645364583333333 12.954952083333334h-1.3814979166666668v0.6907291666666667h1.3814979166666668v-0.6907291666666667Z" stroke-width="1"></path><path fill="#ffffff" d="M8.809508333333335 6.736608333333334h-0.6910458333333334v0.6910854166666668h0.6910458333333334v-0.6910854166666668Z" stroke-width="1"></path><path fill="#ffffff" d="M10.88225 6.736608333333334h-0.6910854166666668v0.6910854166666668h0.6910854166666668v-0.6910854166666668Z" stroke-width="1"></path><path fill="#ffffff" d="M8.809508333333335 8.118541666666667h-0.6910458333333334v0.6910854166666668h0.6910458333333334V8.118541666666667Z" stroke-width="1"></path><path fill="#ffffff" d="M10.88225 8.118541666666667h-0.6910854166666668v0.6910854166666668h0.6910854166666668V8.118541666666667Z" stroke-width="1"></path><path fill="#ffffff" d="M8.809508333333335 9.500475000000002h-0.6910458333333334v0.6910854166666668h0.6910458333333334v-0.6910854166666668Z" stroke-width="1"></path><path fill="#ffffff" d="M10.88225 9.500475000000002h-0.6910854166666668v0.6910854166666668h0.6910854166666668v-0.6910854166666668Z" stroke-width="1"></path><path fill="#ffffff" d="M8.809508333333335 10.882131250000002h-0.6910458333333334v0.6910854166666668h0.6910458333333334v-0.6910854166666668Z" stroke-width="1"></path><path fill="#ffffff" d="M6.73609375 10.191362500000002h-1.3815375000000003v0.6907291666666667h1.3815375000000003v-0.6907291666666667Z" stroke-width="1"></path><path fill="#ffffff" d="M6.73609375 11.573295833333335h-1.3815375000000003v0.6907687500000002h1.3815375000000003v-0.6907687500000002Z" stroke-width="1"></path><path fill="#ffffff" d="M6.73609375 12.954952083333334h-1.3815375000000003v0.6907291666666667h1.3815375000000003v-0.6907291666666667Z" stroke-width="1"></path><path fill="#ffffff" d="M13.645364583333333 10.191362500000002h-1.3814979166666668v0.6907291666666667h1.3814979166666668v-0.6907291666666667Z" stroke-width="1"></path><path fill="#ffffff" d="M13.645364583333333 11.573295833333335h-1.3814979166666668v0.6907687500000002h1.3814979166666668v-0.6907687500000002Z" stroke-width="1"></path></svg>