<svg xmlns="http://www.w3.org/2000/svg" fill="none" viewBox="-0.5 -0.5 20 20" id="Shopping-4--Streamline-Kameleon.svg" height="20" width="20"><desc>Shopping 4 Streamline Icon: https://streamlinehq.com</desc><path fill="#ffc42d" d="M9.5002375 19.000475c5.246889583333334 0 9.5002375 -4.253347916666667 9.5002375 -9.5002375C19.000475 4.253347916666667 14.747127083333334 0 9.5002375 0 4.253347916666667 0 0 4.253347916666667 0 9.5002375c0 5.246889583333334 4.253347916666667 9.5002375 9.5002375 9.5002375Z" stroke-width="1"></path><path fill="#000000" d="M13.641564583333334 7.741866666666667c-0.0077979166666666665 -0.08581666666666667 -0.04742083333333334 -0.16565625 -0.11103125000000003 -0.22376458333333338 -0.06365000000000001 -0.058147916666666674 -0.14669583333333333 -0.09040833333333334 -0.23290833333333336 -0.09044791666666668H5.6373395833333335c-0.08621250000000001 0 -0.16933750000000003 0.03222083333333334 -0.23298750000000001 0.09036875000000001 -0.06368958333333334 0.058147916666666674 -0.10331250000000002 0.1379875 -0.11111041666666668 0.22384375000000004l-0.6280291666666667 6.909270833333333c-0.0043145833333333335 0.047816666666666674 0.0013458333333333334 0.09598958333333334 0.016664583333333333 0.14147083333333335 0.015358333333333335 0.04548125000000001 0.03997916666666667 0.08728125 0.07235833333333333 0.12270833333333335 0.03233958333333333 0.03546666666666667 0.07176458333333334 0.06376875 0.11566250000000002 0.083125 0.043937500000000004 0.019395833333333334 0.09139791666666668 0.02941041666666667 0.13937291666666668 0.02941041666666667h8.916422916666667c0.04801458333333334 0 0.095475 -0.010014583333333334 0.13937291666666668 -0.02941041666666667 0.04389791666666667 -0.019356250000000002 0.08332291666666668 -0.04765833333333334 0.11566250000000002 -0.083125 0.03237916666666667 -0.03542708333333334 0.05703958333333334 -0.07722708333333334 0.07235833333333333 -0.12270833333333335 0.01531875 -0.04548125000000001 0.021018750000000003 -0.09365416666666668 0.01670416666666667 -0.14147083333333335l-0.6282270833333333 -6.909270833333333Z" stroke-width="1"></path><path fill="#ffffff" d="M7.9503520833333345 7.843002083333334c-0.08688541666666667 -0.02608541666666667 -0.1780854166666667 -0.034793750000000005 -0.26837500000000003 -0.025610416666666667 -0.09028958333333334 0.00914375 -0.17784791666666666 0.036020833333333335 -0.2577666666666667 0.07904791666666668 -0.07987916666666668 0.042987500000000005 -0.1505354166666667 0.10133333333333334 -0.20785208333333335 0.17167291666666668 -0.057356250000000004 0.07030000000000002 -0.10030416666666668 0.15124791666666668 -0.12635000000000002 0.23813333333333336 -0.10968541666666669 0.3655125 0.25321458333333335 1.5599395833333336 0.25321458333333335 1.5599395833333336s0.9607270833333333 -0.7973270833333334 1.070254166666667 -1.1628000000000003c0.05264583333333334 -0.17551250000000002 0.033447916666666674 -0.3647604166666667 -0.05339791666666667 -0.5261020833333334 -0.08684583333333334 -0.1613416666666667 -0.23421458333333336 -0.2815958333333334 -0.40972708333333335 -0.33428125000000003Zm-0.6805562500000001 0.5504854166666667c0.018643750000000004 -0.06206666666666667 0.04932083333333334 -0.11985833333333334 0.09028958333333334 -0.17008958333333335 0.040968750000000005 -0.05019166666666667 0.09143750000000002 -0.09187291666666668 0.14851666666666669 -0.12258958333333334 0.05703958333333334 -0.03071666666666667 0.11962083333333336 -0.049875 0.18410208333333336 -0.05640625 0.06448125 -0.006570833333333334 0.12959583333333335 -0.0003166666666666667 0.1916625 0.018327083333333334 0.06210625000000001 0.018604166666666668 0.11989791666666667 0.049281250000000006 0.17008958333333335 0.09025000000000001 0.05023125000000001 0.040968750000000005 0.09187291666666668 0.09143750000000002 0.12258958333333334 0.14851666666666669 0.03071666666666667 0.05707916666666667 0.04991458333333333 0.11962083333333336 0.05644583333333334 0.18410208333333336 0.006531250000000001 0.06448125 0.0003166666666666667 0.1296354166666667 -0.018327083333333334 0.19170208333333336 -0.07825625 0.26097291666666667 -0.7645125 0.8304979166666667 -0.7645125 0.8304979166666667s-0.2591125 -0.8532979166666668 -0.18085625 -1.1143104166666669Z" stroke-width="1"></path><path fill="#ffffff" d="M7.772741666666667 8.464064583333334c0.09163541666666668 0 0.1795104166666667 -0.03641666666666667 0.24426875 -0.10121458333333333 0.06479791666666668 -0.06475833333333333 0.10121458333333333 -0.15263333333333334 0.10121458333333333 -0.24426875v-2.0727812500000002c0 -0.7619000000000001 0.6199145833333334 -1.3818541666666668 1.3818541666666668 -1.3818541666666668 0.7619000000000001 0 1.3818541666666668 0.6199541666666667 1.3818541666666668 1.3818541666666668v2.0727812500000002c0 0.09163541666666668 0.03637708333333334 0.1795104166666667 0.101175 0.24426875 0.06479791666666668 0.06479791666666668 0.15267291666666669 0.10121458333333333 0.24426875 0.10121458333333333 0.09163541666666668 0 0.1795104166666667 -0.03641666666666667 0.24426875 -0.10121458333333333 0.06479791666666668 -0.06475833333333333 0.10121458333333333 -0.15263333333333334 0.10121458333333333 -0.24426875v-2.0727812500000002c0 -1.1446708333333333 -0.9281104166666667 -2.0727812500000002 -2.0727812500000002 -2.0727812500000002 -1.1447104166666668 0 -2.0727812500000002 0.9281104166666667 -2.0727812500000002 2.0727812500000002v2.0727812500000002c0 0.09163541666666668 0.03637708333333334 0.1795104166666667 0.101175 0.24426875 0.06479791666666668 0.06479791666666668 0.15267291666666669 0.10121458333333333 0.24426875 0.10121458333333333Z" stroke-width="1"></path><path fill="#ffffff" d="M8.118225 11.91858125c0 0.09163541666666668 -0.03637708333333334 0.1795104166666667 -0.101175 0.24426875 -0.06475833333333333 0.06479791666666668 -0.15263333333333334 0.101175 -0.2442291666666667 0.101175h-0.6908875000000001c-0.09159583333333333 0 -0.17947083333333336 -0.03637708333333334 -0.2442291666666667 -0.101175 -0.06479791666666668 -0.06475833333333333 -0.101175 -0.15263333333333334 -0.101175 -0.24426875v-2.072583333333333c0 -0.09159583333333333 0.03637708333333334 -0.17947083333333336 0.101175 -0.2442291666666667 0.06475833333333333 -0.06479791666666668 0.15263333333333334 -0.101175 0.2442291666666667 -0.101175h0.6908875000000001c0.09159583333333333 0 0.17947083333333336 0.03637708333333334 0.2442291666666667 0.101175 0.06479791666666668 0.06475833333333333 0.101175 0.15263333333333334 0.101175 0.2442291666666667v2.072583333333333Z" stroke-width="1"></path></svg>