<svg xmlns="http://www.w3.org/2000/svg" fill="none" viewBox="-0.5 -0.5 20 20" id="Grinder--Streamline-Kameleon.svg" height="40px" width="40px"><desc>Grinder Streamline Icon: https://streamlinehq.com</desc><path fill="#ff78b9" d="M9.5002375 19.001939583333336c5.246889583333334 0 9.5002375 -4.253347916666667 9.5002375 -9.5002375C19.000475 4.254812500000001 14.747127083333334 0.0014495852083333334 9.5002375 0.0014495852083333334 4.253347916666667 0.0014495852083333334 0 4.254812500000001 0 9.501702083333335s4.253347916666667 9.5002375 9.5002375 9.5002375Z" stroke-width="1"></path><path fill="#ffffff" d="m11.425729166666667 8.810854166666667 2.5699083333333337 -3.499522916666667c0.090725 -0.12195625 0.1343854166666667 -0.2724916666666667 0.12302500000000002 -0.42401666666666665 -0.011360416666666668 -0.15156458333333336 -0.07698958333333335 -0.29390625000000004 -0.18485416666666668 -0.40097916666666666l-0.007758333333333334 -0.007758333333333334c-0.10794375 -0.10703333333333333 -0.2508395833333334 -0.17155416666666667 -0.4025229166666667 -0.18172708333333334 -0.15164375000000002 -0.010212500000000001 -0.3019020833333334 0.03463541666666667 -0.42314583333333333 0.12627083333333336L7.424566666666666 8.810854166666667H11.425729166666667Z" stroke-width="1"></path><path fill="#000000" fill-rule="evenodd" d="M14.336925 10.883754166666668c0.18323125 0 0.35898125000000003 -0.07279375 0.4885770833333334 -0.20238958333333334 0.12955625 -0.12955625 0.20235 -0.30530625 0.20235 -0.4885375v-0.6909270833333334c0 -0.18327083333333336 -0.07279375 -0.35898125000000003 -0.20235 -0.4885770833333334 -0.12959583333333335 -0.12955625 -0.30534583333333337 -0.20235 -0.4885770833333334 -0.20235h-9.672979166666668c-0.18323125 0 -0.35898125000000003 0.07279375 -0.4885375 0.20235 -0.12959583333333335 0.12959583333333335 -0.20238958333333334 0.30530625 -0.20238958333333334 0.4885770833333334v0.6909270833333334c0 0.18323125 0.07279375 0.35898125000000003 0.20238958333333334 0.4885375 0.12955625 0.12959583333333335 0.30530625 0.20238958333333334 0.4885375 0.20238958333333334 0 1.1515979166666668 0.6909270833333334 2.0727812500000002 2.0727812500000002 2.7637083333333337l-0.5897125000000001 0.5897125000000001c-0.06479791666666668 0.06475833333333333 -0.101175 0.15259375000000003 -0.10121458333333333 0.2442291666666667v0.20242916666666666c0 0.09163541666666668 0.03641666666666667 0.1795104166666667 0.101175 0.24430833333333335 0.06479791666666668 0.06475833333333333 0.15267291666666669 0.101175 0.24430833333333335 0.101175h6.218343750000001c0.09159583333333333 0 0.17947083333333336 -0.03641666666666667 0.24426875 -0.101175 0.06479791666666668 -0.06479791666666668 0.101175 -0.15267291666666669 0.101175 -0.24430833333333335v-0.20242916666666666c0 -0.09163541666666668 -0.03641666666666667 -0.17947083333333336 -0.10121458333333333 -0.2442291666666667l-0.5897125000000001 -0.5897125000000001c1.3818541666666668 -0.6909270833333334 2.0727812500000002 -1.6121104166666669 2.0727812500000002 -2.7637083333333337Z" clip-rule="evenodd" stroke-width="1"></path></svg>