<svg xmlns="http://www.w3.org/2000/svg" fill="none" viewBox="-0.5 -0.5 20 20" id="Laptop--Streamline-Kameleon.svg" height="40px" width="40px"><desc>Laptop Streamline Icon: https://streamlinehq.com</desc><path fill="#ff78b9" d="M9.5002375 19.002414583333337c5.246889583333334 0 9.5002375 -4.253347916666667 9.5002375 -9.5002375 0 -5.246889583333334 -4.253347916666667 -9.500244304375 -9.5002375 -9.500244304375C4.253347916666667 0.0019327789583333333 0 4.2552875000000006 0 9.502177083333335s4.253347916666667 9.5002375 9.5002375 9.5002375Z" stroke-width="1"></path><path fill="#000000" d="M15.027456250000002 13.648016666666667h-11.054833333333335l1.3818541666666668 -3.4546354166666666h8.291125000000001l1.3818541666666668 3.4546354166666666Z" stroke-width="1"></path><path fill="#000000" d="M13.645681250000003 10.19314375h-8.291125000000001V5.0112104166666676c0 -0.09163541666666668 0.03641666666666667 -0.1795104166666667 0.10121458333333333 -0.24430833333333335 0.06475833333333333 -0.06475833333333333 0.15263333333333334 -0.101175 0.24426875 -0.101175h7.600197916666668c0.09163541666666668 0 0.17947083333333336 0.03641666666666667 0.24426875 0.101175 0.06479791666666668 0.06479791666666668 0.101175 0.15267291666666669 0.101175 0.24430833333333335v5.181933333333334Z" stroke-width="1"></path><path fill="#000000" d="M15.027456250000002 13.647937500000001h-11.054833333333335c0 0.18323125 0.07279375 0.35898125000000003 0.20238958333333334 0.4885770833333334 0.12955625 0.12955625 0.30530625 0.20235 0.4885375 0.20235h9.672979166666668c0.18327083333333336 0 0.35898125000000003 -0.07279375 0.4885770833333334 -0.20235 0.12955625 -0.12959583333333335 0.20235 -0.30534583333333337 0.20235 -0.4885770833333334Z" stroke-width="1"></path><path fill="#ffffff" d="m8.291164583333334 12.438706250000001 -0.17270208333333337 0.6908479166666668h2.7634312500000004l-0.17270208333333337 -0.6908479166666668h-2.4180270833333335Z" stroke-width="1"></path><path fill="#ffffff" d="M12.954991666666668 5.356693750000001h-6.909270833333333v4.1455625000000005h6.909270833333333v-4.1455625000000005Z" stroke-width="1"></path><path fill="#ffffff" d="M12.548866666666669 11.7479375H6.4514104166666675l-0.1381854166666667 0.34544375000000005h6.3738270833333335l-0.1381854166666667 -0.34544375000000005Z" stroke-width="1"></path><path fill="#ffffff" d="m12.410681250000001 11.402414583333334 -0.1381854166666667 -0.34548333333333336H6.727820833333334l-0.1381854166666667 0.34548333333333336h5.821045833333334Z" stroke-width="1"></path></svg>