<svg xmlns="http://www.w3.org/2000/svg" fill="none" viewBox="-0.5 -0.5 20 20" id="Basket-2--Streamline-Kameleon.svg" height="20" width="20"><desc>Basket 2 Streamline Icon: https://streamlinehq.com</desc><path fill="#fabc3d" d="M9.5 18.999089583333337c5.2467708333333345 0 9.5 -4.25303125 9.5 -9.499525C19 4.25303125 14.746770833333336 0 9.5 0S0 4.25303125 0 9.499564583333333c0 5.246493750000001 4.253229166666666 9.499525 9.5 9.499525Z" stroke-width="1"></path><path fill="#f0f1f1" d="m5.113414583333334 8.808795833333333 1.2427583333333334 -2.899597916666667c0.026639583333333335 -0.06214583333333334 0.07093333333333333 -0.11514791666666667 0.12741875000000003 -0.15235625000000003 0.05644583333333334 -0.037208333333333336 0.12262916666666669 -0.05703958333333334 0.19023750000000003 -0.05696041666666667h5.6525c0.13834375000000002 0 0.26307083333333336 0.08221458333333334 0.3174583333333334 0.2093166666666667l1.2427979166666667 2.899597916666667h0.7516875000000001l-1.35933125 -3.1718125c-0.07983958333333334 -0.18647708333333335 -0.21268125000000002 -0.34544375000000005 -0.38205833333333333 -0.4571083333333334 -0.16937708333333334 -0.111625 -0.3678479166666667 -0.17107916666666667 -0.5707125000000001 -0.17088125H6.673829166666667c-0.202825 -0.00015833333333333335 -0.40125625000000004 0.05929583333333333 -0.5706333333333334 0.1709604166666667 -0.16933750000000003 0.111625 -0.30213958333333335 0.27055208333333336 -0.3819395833333334 0.45702916666666676l-1.35956875 3.1718125h0.7517270833333334Z" stroke-width="1"></path><path fill="#df2c2c" d="M15.027377083333336 9.845047916666667c0 0.09163541666666668 -0.03641666666666667 0.17947083333333336 -0.101175 0.24426875 -0.06479791666666668 0.06479791666666668 -0.15267291666666669 0.101175 -0.24426875 0.101175H4.318264583333334c-0.09159583333333333 0 -0.17947083333333336 -0.03637708333333334 -0.24426875 -0.101175 -0.06475833333333333 -0.06479791666666668 -0.101175 -0.15263333333333334 -0.101175 -0.24426875v-0.6908875000000001c0 -0.09159583333333333 0.03641666666666667 -0.17947083333333336 0.101175 -0.2442291666666667 0.06479791666666668 -0.06479791666666668 0.15267291666666669 -0.101175 0.24426875 -0.101175h10.36366875c0.09159583333333333 0 0.17947083333333336 0.03637708333333334 0.24426875 0.101175 0.06475833333333333 0.06475833333333333 0.101175 0.15263333333333334 0.101175 0.2442291666666667v0.6908875000000001Z" stroke-width="1"></path><path fill="#bf0302" d="m4.318225000000001 10.190491666666667 1.23844375 4.3352458333333335c0.08462916666666667 0.2970729166666667 0.3558145833333334 0.5008875 0.665 0.5008875h6.556741666666667c0.3091854166666667 0 0.5803708333333334 -0.20381458333333335 0.665 -0.5008875l1.23844375 -4.3352458333333335H4.318225000000001Zm2.2972583333333336 4.145245833333334c-0.18481458333333334 0.04662916666666667 -0.3730729166666667 -0.0638875 -0.41970208333333336 -0.24870208333333335l-0.7012979166666667 -2.756622916666667c-0.04837083333333334 -0.18477500000000002 0.06392708333333334 -0.3730729166666667 0.24874166666666667 -0.41970208333333336 0.18481458333333334 -0.048331250000000006 0.3730729166666667 0.06392708333333334 0.41970208333333336 0.24874166666666667l0.7012979166666667 2.756583333333334c0.04662916666666667 0.18481458333333334 -0.06392708333333334 0.3730729166666667 -0.24874166666666667 0.41970208333333336Zm1.3783708333333335 0.001741666666666667c-0.19 0.02418541666666667 -0.3627416666666667 -0.10881458333333334 -0.38692708333333337 -0.2988145833333334l-0.3558145833333334 -2.7635104166666666c-0.00914375 -0.08965625 0.017100000000000004 -0.17935208333333336 0.07315 -0.24996875000000002 0.05601041666666667 -0.07061666666666667 0.13743333333333335 -0.11657291666666666 0.2268125 -0.12805208333333334 0.08941875 -0.011479166666666669 0.17978750000000002 0.012389583333333336 0.25182916666666666 0.06657916666666666 0.07208125000000001 0.054150000000000004 0.12013541666666668 0.13430625000000002 0.13395 0.22336875000000003l0.3540729166666667 2.7617687500000003c0.025927083333333337 0.19 -0.10881458333333334 0.36270208333333337 -0.2970729166666667 0.3886291666666667Zm1.851629166666667 -0.3471854166666667c0 0.19 -0.15544375000000002 0.34544375000000005 -0.34544375000000005 0.34544375000000005 -0.19 0 -0.34544375000000005 -0.15544375000000002 -0.34544375000000005 -0.34544375000000005v-2.7635104166666666c0 -0.1899604166666667 0.15544375000000002 -0.34540416666666673 0.34544375000000005 -0.34540416666666673 0.19 0 0.34544375000000005 0.15544375000000002 0.34544375000000005 0.34540416666666673v2.7635104166666666Zm1.9103708333333336 -2.7220270833333333 -0.3627416666666667 2.770397916666667c-0.005660416666666667 0.04508541666666667 -0.020227083333333336 0.08854791666666668 -0.04275 0.12801250000000003 -0.022562500000000003 0.039425 -0.05264583333333334 0.07402083333333334 -0.08862708333333334 0.10176875 -0.03594166666666667 0.027747916666666667 -0.07702916666666668 0.04813333333333334 -0.12084791666666668 0.060008333333333344 -0.04385833333333333 0.011835416666666668 -0.08961666666666668 0.014922916666666668 -0.13466250000000002 0.009025000000000002 -0.09092291666666667 -0.012191666666666668 -0.17325625 -0.05996875 -0.22895000000000004 -0.1328416666666667 -0.05573333333333334 -0.07287291666666668 -0.08023541666666667 -0.16486458333333334 -0.0681625 -0.2557875l0.36100000000000004 -2.7686958333333336c0.01385416666666667 -0.08906250000000002 0.06190833333333334 -0.16921875 0.13395 -0.22336875000000003 0.07208125000000001 -0.054150000000000004 0.16241041666666667 -0.07801875000000001 0.25182916666666666 -0.06653958333333333 0.08941875 0.011479166666666669 0.17080208333333335 0.05739583333333333 0.2268125 0.12801250000000003 0.05605000000000001 0.07061666666666667 0.08229375000000001 0.16031250000000002 0.07315 0.2500083333333334Zm1.0484437500000001 2.8187687500000003c-0.011202083333333335 0.04389791666666667 -0.03099375 0.08514375000000002 -0.058147916666666674 0.12140208333333333 -0.027154166666666667 0.03621875 -0.061235416666666674 0.06677708333333333 -0.10018541666666668 0.08989375000000001 -0.03898958333333334 0.023077083333333335 -0.08213541666666667 0.03827708333333334 -0.12698333333333334 0.04468958333333334 -0.04484791666666667 0.006412500000000001 -0.09052708333333334 0.003958333333333334 -0.1343854166666667 -0.0072833333333333335 -0.04389791666666667 -0.011202083333333335 -0.08514375000000002 -0.03099375 -0.12140208333333333 -0.058147916666666674 -0.03625833333333334 -0.027154166666666667 -0.06681666666666668 -0.06119583333333333 -0.08989375000000001 -0.10018541666666668 -0.023116666666666667 -0.03898958333333334 -0.03831666666666667 -0.08213541666666667 -0.044729166666666674 -0.12694375 -0.006412500000000001 -0.04484791666666667 -0.003958333333333334 -0.09052708333333334 0.0072833333333333335 -0.13442500000000002l0.7669270833333334 -2.7635104166666666c0.011202083333333335 -0.04389791666666667 0.03095416666666667 -0.08514375000000002 0.058147916666666674 -0.12140208333333333 0.027154166666666667 -0.03625833333333334 0.06119583333333333 -0.06677708333333333 0.10018541666666668 -0.08989375000000001 0.038950000000000005 -0.023077083333333335 0.08209583333333334 -0.03827708333333334 0.12694375 -0.04468958333333334 0.04484791666666667 -0.006452083333333333 0.09052708333333334 -0.003958333333333334 0.13442500000000002 0.0072833333333333335 0.18481458333333334 0.04662916666666667 0.29711250000000006 0.23488750000000003 0.24874166666666667 0.41970208333333336l-0.7669270833333334 2.7635104166666666Z" stroke-width="1"></path><path fill="#fa5655" d="M3.972820833333334 9.154160416666668v0.6908875000000001c0 0.09163541666666668 0.03641666666666667 0.17947083333333336 0.101175 0.24426875 0.06479791666666668 0.06479791666666668 0.15267291666666669 0.101175 0.24426875 0.101175h6.053954166666667l1.3818145833333335 -1.3817354166666667H4.318264583333334c-0.09159583333333333 0 -0.17947083333333336 0.03637708333333334 -0.24426875 0.101175 -0.06475833333333333 0.06475833333333333 -0.101175 0.15263333333333334 -0.101175 0.2442291666666667Z" stroke-width="1"></path><path fill="#df2c2c" d="m6.1957812500000005 14.087035416666666 -0.7012979166666667 -2.756622916666667c-0.04837083333333334 -0.18477500000000002 0.06392708333333334 -0.3730729166666667 0.24874166666666667 -0.41970208333333336 0.18481458333333334 -0.048331250000000006 0.3730729166666667 0.06392708333333334 0.41970208333333336 0.24874166666666667l0.6570833333333334 2.5828125 0.6632583333333334 -0.6632187500000001 -0.23215625000000004 -1.803891666666667c-0.00914375 -0.08965625 0.017100000000000004 -0.17935208333333336 0.07315 -0.24996875000000002 0.05601041666666667 -0.07061666666666667 0.13743333333333335 -0.11657291666666666 0.2268125 -0.12805208333333334 0.08941875 -0.011479166666666669 0.17978750000000002 0.012389583333333336 0.25182916666666666 0.06657916666666666 0.07208125000000001 0.054150000000000004 0.12013541666666668 0.13430625000000002 0.13395 0.22336875000000003l0.16340000000000002 1.27501875 1.0543416666666667 -1.0541041666666666v-0.1812125c0 -0.1899604166666667 0.15544375000000002 -0.34540416666666673 0.34544375000000005 -0.34540416666666673 0.05268541666666667 0 0.10208541666666668 0.01294375 0.14697291666666668 0.03420000000000001l0.7251270833333334 -0.7250875000000001H4.318225000000001l1.23844375 4.3352458333333335c0.03352708333333333 0.11728541666666668 0.09674166666666668 0.21937083333333338 0.1793125 0.3007145833333334l0.5660020833333334 -0.5660020833333334c-0.052250000000000005 -0.04563958333333334 -0.0893 -0.10612291666666668 -0.10620208333333334 -0.17341458333333334Z" stroke-width="1"></path><path fill="#3e3e3f" d="M11.572741666666667 5.3542000000000005c0 0.18323125 -0.07279375 0.3589416666666667 -0.20235 0.4884979166666667 -0.12959583333333335 0.12959583333333335 -0.30530625 0.20238958333333334 -0.4885770833333334 0.20238958333333334h-2.763629166666667c-0.18323125 0 -0.35898125000000003 -0.07279375 -0.4885375 -0.20238958333333334 -0.12955625 -0.12955625 -0.20235 -0.3052666666666667 -0.20235 -0.4884979166666667s0.07279375 -0.35898125000000003 0.20235 -0.4885375c0.12955625 -0.12955625 0.30530625 -0.20235 0.4885375 -0.20235h2.763629166666667c0.18327083333333336 0 0.35898125000000003 0.07279375 0.4885770833333334 0.20235 0.12955625 0.12955625 0.20235 0.30530625 0.20235 0.4885375Z" stroke-width="1"></path><path fill="#5b5c5f" d="M10.881814583333334 4.663312500000001h-2.763629166666667c-0.18323125 0 -0.35898125000000003 0.07279375 -0.4885375 0.20235 -0.12955625 0.12955625 -0.20235 0.30530625 -0.20235 0.4885375h4.14544375c0 -0.18323125 -0.07279375 -0.35898125000000003 -0.20235 -0.4885375 -0.12959583333333335 -0.12955625 -0.30530625 -0.20235 -0.4885770833333334 -0.20235Z" stroke-width="1"></path></svg>