<svg xmlns="http://www.w3.org/2000/svg" fill="none" viewBox="-0.5 -0.5 20 20" id="Shopping-4--Streamline-Kameleon.svg" height="40px" width="40px"><desc>Shopping 4 Streamline Icon: https://streamlinehq.com</desc><path fill="#32bea6" d="M9.5 18.999089583333337c5.2467708333333345 0 9.5 -4.25303125 9.5 -9.499525C19 4.25303125 14.746770833333336 0 9.5 0S0 4.25303125 0 9.499564583333333c0 5.246493750000001 4.253229166666666 9.499525 9.5 9.499525Z" stroke-width="1"></path><path fill="#facb1b" d="M13.641129166666667 7.741075c-0.0077979166666666665 -0.08581666666666667 -0.04742083333333334 -0.16565625 -0.11103125000000003 -0.22376458333333338 -0.06361041666666668 -0.058147916666666674 -0.14669583333333333 -0.09036875000000001 -0.23286875000000004 -0.09040833333333334H5.637102083333334c-0.08621250000000001 0 -0.1692979166666667 0.03222083333333334 -0.2329479166666667 0.09036875000000001 -0.06368958333333334 0.058108333333333345 -0.10331250000000002 0.13794791666666667 -0.11111041666666668 0.2238041666666667l-0.6280291666666667 6.9087562500000015c-0.0043145833333333335 0.047816666666666674 0.0013458333333333334 0.09598958333333334 0.01670416666666667 0.14147083333333335 0.01531875 0.04548125000000001 0.03993958333333334 0.08728125 0.07231875 0.12270833333333335s0.07176458333333334 0.06372916666666667 0.11566250000000002 0.083125c0.04389791666666667 0.019356250000000002 0.09139791666666668 0.029370833333333336 0.13937291666666668 0.02941041666666667h8.916185416666666c0.04801458333333334 -0.00003958333333333334 0.095475 -0.010054166666666668 0.13937291666666668 -0.02941041666666667 0.04389791666666667 -0.019395833333333334 0.08332291666666668 -0.047697916666666666 0.11566250000000002 -0.083125 0.03237916666666667 -0.03542708333333334 0.057 -0.07722708333333334 0.07235833333333333 -0.12270833333333335 0.01531875 -0.04548125000000001 0.021018750000000003 -0.09365416666666668 0.016664583333333333 -0.14147083333333335l-0.6281875 -6.9087562500000015Z" stroke-width="1"></path><path fill="#fbe158" d="M5.637379166666667 7.426902083333333c-0.08621250000000001 0 -0.16933750000000003 0.03222083333333334 -0.23298750000000001 0.09036875000000001 -0.06368958333333334 0.058108333333333345 -0.10331250000000002 0.13794791666666667 -0.11111041666666668 0.2238041666666667l-0.6281875 6.9087562500000015c-0.006610416666666667 0.07113125000000001 0.009064583333333334 0.14253958333333333 0.04492708333333334 0.20432916666666667 0.035862500000000005 0.061789583333333335 0.09005208333333334 0.11087291666666668 0.15508750000000002 0.1404416666666667l7.5678583333333345 -7.567700000000001H5.637379166666667Z" stroke-width="1"></path><path fill="#5b5c5f" d="M7.9503520833333345 7.842210416666668c-0.086925 -0.02608541666666667 -0.17812500000000003 -0.03475416666666667 -0.26837500000000003 -0.025610416666666667 -0.09028958333333334 0.009183333333333333 -0.17788750000000003 0.036020833333333335 -0.2577666666666667 0.07904791666666668 -0.07987916666666668 0.04302708333333334 -0.1505354166666667 0.10133333333333334 -0.20785208333333335 0.17167291666666668 -0.057356250000000004 0.07030000000000002 -0.10030416666666668 0.15120833333333336 -0.12635000000000002 0.23813333333333336 -0.10968541666666669 0.3654729166666667 0.25321458333333335 1.5598208333333334 0.25321458333333335 1.5598208333333334s0.9606875000000001 -0.7972479166666667 1.0702145833333334 -1.1627604166666667c0.05264583333333334 -0.1754729166666667 0.0334875 -0.36468125 -0.05335833333333334 -0.5260229166666667 -0.08684583333333334 -0.1613416666666667 -0.23425416666666668 -0.2815958333333334 -0.40972708333333335 -0.33428125000000003Zm-0.6805562500000001 0.5504458333333334c0.018643750000000004 -0.06206666666666667 0.04932083333333334 -0.11985833333333334 0.09028958333333334 -0.17005 0.040968750000000005 -0.05023125000000001 0.09143750000000002 -0.09187291666666668 0.14847708333333334 -0.12258958333333334 0.05707916666666667 -0.03071666666666667 0.11962083333333336 -0.049875 0.18410208333333336 -0.05640625 0.06448125 -0.006531250000000001 0.1296354166666667 -0.0003166666666666667 0.19170208333333336 0.018327083333333334 0.06206666666666667 0.018604166666666668 0.11985833333333334 0.049281250000000006 0.17008958333333335 0.09025000000000001 0.05019166666666667 0.040968750000000005 0.09187291666666668 0.09143750000000002 0.12258958333333334 0.14847708333333334 0.03071666666666667 0.05707916666666667 0.049875 0.11962083333333336 0.05640625 0.18410208333333336 0.006531250000000001 0.06448125 0.0003166666666666667 0.1296354166666667 -0.018327083333333334 0.19170208333333336 -0.07821666666666667 0.26097291666666667 -0.7644729166666667 0.8304187500000001 -0.7644729166666667 0.8304187500000001s-0.2591125 -0.85321875 -0.18085625 -1.1142312500000002Z" stroke-width="1"></path><path fill="#84462d" d="M7.772741666666667 8.463154166666667c0.09163541666666668 0 0.17947083333333336 -0.03641666666666667 0.24426875 -0.101175 0.06479791666666668 -0.06479791666666668 0.101175 -0.15267291666666669 0.101175 -0.24426875v-2.072622916666667c0 -0.7618604166666668 0.6199145833333334 -1.3817750000000002 1.3818145833333335 -1.3817750000000002 0.7619000000000001 0 1.3818145833333335 0.6199145833333334 1.3818145833333335 1.3817750000000002v2.072622916666667c0 0.09159583333333333 0.03641666666666667 0.17947083333333336 0.10121458333333333 0.24426875 0.06475833333333333 0.06475833333333333 0.15263333333333334 0.101175 0.24426875 0.101175 0.09159583333333333 0 0.17947083333333336 -0.03641666666666667 0.24426875 -0.101175 0.06479791666666668 -0.06479791666666668 0.101175 -0.15267291666666669 0.101175 -0.24426875v-2.072622916666667c0 -1.1446312500000002 -0.9280708333333333 -2.0726625000000003 -2.072741666666667 -2.0726625000000003 -1.1446312500000002 0 -2.0727020833333336 0.9280312500000001 -2.0727020833333336 2.0726625000000003v2.072622916666667c0 0.09159583333333333 0.03637708333333334 0.17947083333333336 0.101175 0.24426875 0.06479791666666668 0.06475833333333333 0.15263333333333334 0.101175 0.24426875 0.101175Z" stroke-width="1"></path><path fill="#ffffff" d="M8.118145833333335 11.917670833333334c0 0.09163541666666668 -0.03641666666666667 0.17947083333333336 -0.101175 0.24426875 -0.06479791666666668 0.06479791666666668 -0.15267291666666669 0.101175 -0.24430833333333335 0.101175h-0.6908875000000001c-0.09163541666666668 0 -0.1795104166666667 -0.03637708333333334 -0.24426875 -0.101175 -0.06479791666666668 -0.06479791666666668 -0.101175 -0.15263333333333334 -0.101175 -0.24426875v-2.072622916666667c0 -0.09159583333333333 0.03637708333333334 -0.17947083333333336 0.101175 -0.24426875 0.06475833333333333 -0.06475833333333333 0.15263333333333334 -0.101175 0.24426875 -0.101175h0.6908875000000001c0.09163541666666668 0 0.1795104166666667 0.03641666666666667 0.24430833333333335 0.101175 0.06475833333333333 0.06479791666666668 0.101175 0.15267291666666669 0.101175 0.24426875v2.072622916666667Z" stroke-width="1"></path></svg>