<svg xmlns="http://www.w3.org/2000/svg" fill="none" viewBox="-0.5 -0.5 20 20" id="Donut--Streamline-Kameleon.svg" height="40px" width="40px"><desc>Donut Streamline Icon: https://streamlinehq.com</desc><path fill="#fb983d" d="M9.5002375 19.001464583333338c5.246889583333334 0 9.5002375 -4.253347916666667 9.5002375 -9.5002375 0 -5.246929166666667 -4.253347916666667 -9.500260691875 -9.5002375 -9.500260691875C4.253347916666667 0.0009663914583333335 0 4.254297916666667 0 9.501227083333335c0 5.246889583333334 4.253347916666667 9.5002375 9.5002375 9.5002375Z" stroke-width="1"></path><path fill="#000000" d="M13.408577083333334 5.592966666666667c-2.1586375 -2.1586335416666667 -5.658358333333334 -2.1586335416666667 -7.816956250000001 0 -2.1586414583333333 2.1586375 -2.1586414583333333 5.658358333333334 0 7.816956250000001 2.158597916666667 2.1586375 5.658318750000001 2.1586375 7.816956250000001 0 2.1586375 -2.158597916666667 2.1586375 -5.658516666666667 0 -7.816956250000001ZM8.034545833333334 10.966997916666667c-0.8094 -0.8094395833333334 -0.8094 -2.1218645833333336 0 -2.931422916666667 0.8094395833333334 -0.8095979166666668 2.1218250000000003 -0.8094395833333334 2.9312645833333337 0 0.8097562500000001 0.8094 0.8095979166666668 2.1218250000000003 0 2.931422916666667 -0.8092416666666667 0.8095979166666668 -2.1218250000000003 0.8095979166666668 -2.9312645833333337 0Z" stroke-width="1"></path><path fill="#ffffff" d="M13.408775000000002 13.409685416666667c-0.32850208333333336 0.3291354166666667 -0.6974583333333334 0.6152041666666668 -1.0980416666666668 0.8513979166666668 -1.37666875 -1.4766958333333335 0.21367083333333334 -1.7356104166666666 -0.8562270833333334 -2.8055083333333335 -0.2601416666666667 -0.2601416666666667 -0.4812541666666667 -0.32735416666666667 -0.6765979166666668 -0.322525 0.06614375 -0.05133958333333334 0.1289625 -0.10683541666666667 0.18810000000000002 -0.16613125000000004 0.8097562500000001 -0.8097958333333334 0.8097562500000001 -2.121666666666667 0 -2.9314625000000003 -0.8097562500000001 -0.8097562500000001 -2.121666666666667 -0.8097562500000001 -2.931422916666667 0 -0.2442291666666667 0.24426875 -1.09926875 0.8550395833333334 -2.076422916666667 -0.12211458333333335 -1.3434979166666667 -1.3434979166666667 -0.36634375 -2.3206520833333335 -0.36634375 -2.3206520833333335 2.15828125 -2.158269375 5.658675000000001 -2.158269375 7.816956250000001 0 2.15828125 2.15828125 2.15828125 5.658872916666667 0 7.816995833333334Z" stroke-width="1"></path><path fill="#000000" d="M13.653122916666668 8.625604166666667c0.09163541666666668 0 0.1795104166666667 -0.03637708333333334 0.24430833333333335 -0.101175 0.0648375 -0.06479791666666668 0.10121458333333333 -0.1527125 0.10121458333333333 -0.24434791666666666 0 -0.09163541666666668 -0.03637708333333334 -0.1795104166666667 -0.10121458333333333 -0.24434791666666666 -0.06479791666666668 -0.06479791666666668 -0.15267291666666669 -0.101175 -0.24430833333333335 -0.101175 -0.09163541666666668 0 -0.17955000000000002 0.03637708333333334 -0.24434791666666666 0.101175 -0.06479791666666668 0.0648375 -0.10121458333333333 0.1527125 -0.10121458333333333 0.24434791666666666 0 0.09163541666666668 0.03641666666666667 0.17955000000000002 0.10121458333333333 0.24434791666666666 0.06479791666666668 0.06479791666666668 0.1527125 0.101175 0.24434791666666666 0.101175Z" stroke-width="1"></path><path fill="#000000" d="M11.82085 5.816335416666667c0.09163541666666668 0 0.1795104166666667 -0.03641666666666667 0.24430833333333335 -0.10121458333333333 0.06479791666666668 -0.06479791666666668 0.10121458333333333 -0.15267291666666669 0.10121458333333333 -0.24434791666666666 0 -0.09163541666666668 -0.03641666666666667 -0.1795104166666667 -0.10121458333333333 -0.24430833333333335 -0.06479791666666668 -0.06479791666666668 -0.15267291666666669 -0.10121458333333333 -0.24430833333333335 -0.10121458333333333 -0.09163541666666668 0 -0.17955000000000002 0.03641666666666667 -0.24434791666666666 0.10121458333333333 -0.06479791666666668 0.06479791666666668 -0.10121458333333333 0.15267291666666669 -0.10121458333333333 0.24430833333333335 0 0.091675 0.03641666666666667 0.17955000000000002 0.10121458333333333 0.24434791666666666 0.06479791666666668 0.06479791666666668 0.1527125 0.10121458333333333 0.24434791666666666 0.10121458333333333Z" stroke-width="1"></path><path fill="#000000" d="M9.378202083333335 6.793450000000001c0.09163541666666668 0 0.1795104166666667 -0.03641666666666667 0.24430833333333335 -0.10121458333333333 0.06479791666666668 -0.06479791666666668 0.10121458333333333 -0.15267291666666669 0.10121458333333333 -0.24434791666666666 0 -0.09163541666666668 -0.03641666666666667 -0.1795104166666667 -0.10121458333333333 -0.24430833333333335 -0.06479791666666668 -0.06479791666666668 -0.15267291666666669 -0.10121458333333333 -0.24430833333333335 -0.10121458333333333 -0.09163541666666668 0 -0.17955000000000002 0.03641666666666667 -0.24434791666666666 0.10121458333333333 -0.06479791666666668 0.06479791666666668 -0.10121458333333333 0.15267291666666669 -0.10121458333333333 0.24430833333333335 0 0.091675 0.03641666666666667 0.17955000000000002 0.10121458333333333 0.24434791666666666 0.06479791666666668 0.06479791666666668 0.1527125 0.10121458333333333 0.24434791666666666 0.10121458333333333Z" stroke-width="1"></path><path fill="#000000" d="M6.446422916666667 7.1741625c0.16031250000000002 0 0.3140541666666667 -0.06368958333333334 0.4273812500000001 -0.17705625 0.11336666666666667 -0.11332708333333334 0.17705625 -0.26706875 0.17705625 -0.4273812500000001 0 -0.16027291666666668 -0.06368958333333334 -0.3140145833333334 -0.17705625 -0.4273812500000001 -0.11332708333333334 -0.11332708333333334 -0.26706875 -0.17701666666666668 -0.4273812500000001 -0.17701666666666668 -0.16027291666666668 0 -0.3140145833333334 0.06368958333333334 -0.4273812500000001 0.17701666666666668 -0.11332708333333334 0.11336666666666667 -0.17701666666666668 0.26710833333333334 -0.17701666666666668 0.4273812500000001 0 0.16031250000000002 0.06368958333333334 0.3140541666666667 0.17701666666666668 0.4273812500000001 0.11336666666666667 0.11336666666666667 0.26710833333333334 0.17705625 0.4273812500000001 0.17705625Z" stroke-width="1"></path><path fill="#000000" d="M13.408695833333335 10.716277083333335c0.16031250000000002 0 0.3140145833333334 -0.06368958333333334 0.4273812500000001 -0.17705625 0.11332708333333334 -0.11332708333333334 0.17701666666666668 -0.26706875 0.17701666666666668 -0.4273812500000001 0 -0.16027291666666668 -0.06368958333333334 -0.3140145833333334 -0.17701666666666668 -0.4273812500000001 -0.11336666666666667 -0.11332708333333334 -0.26706875 -0.17701666666666668 -0.4273812500000001 -0.17701666666666668 -0.16031250000000002 0 -0.3140541666666667 0.06368958333333334 -0.4273812500000001 0.17701666666666668 -0.11336666666666667 0.11336666666666667 -0.17701666666666668 0.26710833333333334 -0.17701666666666668 0.4273812500000001 0 0.16031250000000002 0.06365000000000001 0.3140541666666667 0.17701666666666668 0.4273812500000001 0.11332708333333334 0.11336666666666667 0.26706875 0.17705625 0.4273812500000001 0.17705625Z" stroke-width="1"></path><path fill="#000000" d="M12.79804375 12.656058333333334c0.09163541666666668 0 0.17955000000000002 -0.03641666666666667 0.24434791666666666 -0.10121458333333333 0.06479791666666668 -0.06479791666666668 0.10121458333333333 -0.15267291666666669 0.10121458333333333 -0.24434791666666666 0 -0.09163541666666668 -0.03641666666666667 -0.1795104166666667 -0.10121458333333333 -0.24430833333333335 -0.06479791666666668 -0.06479791666666668 -0.1527125 -0.10121458333333333 -0.24434791666666666 -0.10121458333333333 -0.09163541666666668 0 -0.1795104166666667 0.03641666666666667 -0.24430833333333335 0.10121458333333333 -0.06479791666666668 0.06479791666666668 -0.10121458333333333 0.15267291666666669 -0.10121458333333333 0.24430833333333335 0 0.091675 0.03641666666666667 0.17955000000000002 0.10121458333333333 0.24434791666666666 0.06479791666666668 0.06479791666666668 0.15267291666666669 0.10121458333333333 0.24430833333333335 0.10121458333333333Z" stroke-width="1"></path></svg>