<svg xmlns="http://www.w3.org/2000/svg" fill="none" viewBox="-0.5 -0.5 20 20" id="Drawer-2--Streamline-Kameleon.svg" height="40px" width="40px"><desc>Drawer 2 Streamline Icon: https://streamlinehq.com</desc><path fill="#92de46" d="M9.5002375 19.001464583333338c5.246889583333334 0 9.5002375 -4.253347916666667 9.5002375 -9.5002375 0 -5.246929166666667 -4.253347916666667 -9.500260691875 -9.5002375 -9.500260691875C4.253347916666667 0.0009663914583333335 0 4.254297916666667 0 9.501227083333335c0 5.246889583333334 4.253347916666667 9.5002375 9.5002375 9.5002375Z" stroke-width="1"></path><path fill="#000000" d="M14.336766666666668 5.010458333333333h-9.672979166666668v7.945641666666668h9.672979166666668V5.010458333333333Z" stroke-width="1"></path><path fill="#ffffff" d="M13.473018750000001 5.701227083333334H5.527377083333334v1.7272979166666667h7.945641666666668v-1.7272979166666667Z" stroke-width="1"></path><path fill="#ffffff" d="M13.473018750000001 8.11953125H5.527377083333334v1.7272979166666667h7.945641666666668v-1.7272979166666667Z" stroke-width="1"></path><path fill="#000000" d="M15.027456250000002 12.956020833333335h-11.054833333333335v2.0727812500000002h0.6909270833333334V14.337875000000002h0.6909270833333334c0.18327083333333336 0 0.35898125000000003 -0.07279375 0.4885770833333334 -0.20238958333333334 0.12955625 -0.12955625 0.20235 -0.30530625 0.20235 -0.4885375h6.909270833333333c0 0.18323125 0.07279375 0.35898125000000003 0.20238958333333334 0.4885375 0.12955625 0.12959583333333335 0.30530625 0.20238958333333334 0.4885375 0.20238958333333334h0.6909270833333334v0.6909270833333334h0.6909270833333334V12.956020833333335Z" stroke-width="1"></path><path fill="#ffffff" d="M13.473018750000001 10.537795833333334H5.527377083333334v1.7273375000000002h7.945641666666668v-1.7273375000000002Z" stroke-width="1"></path><path fill="#000000" d="M15.027456250000002 4.146670833333333h-11.054833333333335v0.8636687500000001h11.054833333333335v-0.8636687500000001Z" stroke-width="1"></path><path fill="#000000" d="M11.745839583333334 11.747066666666667c0.09163541666666668 0 0.17955000000000002 -0.03641666666666667 0.24434791666666666 -0.10121458333333333 0.06479791666666668 -0.06479791666666668 0.10121458333333333 -0.15267291666666669 0.10121458333333333 -0.24434791666666666 0 -0.09163541666666668 -0.03641666666666667 -0.1795104166666667 -0.10121458333333333 -0.24430833333333335 -0.06479791666666668 -0.06479791666666668 -0.1527125 -0.10121458333333333 -0.24434791666666666 -0.10121458333333333 -0.09163541666666668 0 -0.1795104166666667 0.03641666666666667 -0.24430833333333335 0.10121458333333333 -0.06479791666666668 0.06479791666666668 -0.10121458333333333 0.15267291666666669 -0.10121458333333333 0.24430833333333335 0 0.091675 0.03641666666666667 0.17955000000000002 0.10121458333333333 0.24434791666666666 0.06479791666666668 0.06479791666666668 0.15267291666666669 0.10121458333333333 0.24430833333333335 0.10121458333333333Z" stroke-width="1"></path><path fill="#000000" d="M7.427614583333335 11.747066666666667c0.091675 0 0.17955000000000002 -0.03641666666666667 0.24434791666666666 -0.10121458333333333 0.06479791666666668 -0.06479791666666668 0.10121458333333333 -0.15267291666666669 0.10121458333333333 -0.24434791666666666 0 -0.09163541666666668 -0.03641666666666667 -0.1795104166666667 -0.10121458333333333 -0.24430833333333335 -0.06479791666666668 -0.06479791666666668 -0.15267291666666669 -0.10121458333333333 -0.24434791666666666 -0.10121458333333333 -0.09163541666666668 0 -0.1795104166666667 0.03641666666666667 -0.24430833333333335 0.10121458333333333 -0.06479791666666668 0.06479791666666668 -0.10121458333333333 0.15267291666666669 -0.10121458333333333 0.24430833333333335 0 0.091675 0.03641666666666667 0.17955000000000002 0.10121458333333333 0.24434791666666666 0.06479791666666668 0.06479791666666668 0.15267291666666669 0.10121458333333333 0.24430833333333335 0.10121458333333333Z" stroke-width="1"></path><path fill="#000000" d="M11.745839583333334 9.3287625c0.09163541666666668 0 0.17955000000000002 -0.03641666666666667 0.24434791666666666 -0.10121458333333333 0.06479791666666668 -0.06479791666666668 0.10121458333333333 -0.15267291666666669 0.10121458333333333 -0.24430833333333335 0 -0.09163541666666668 -0.03641666666666667 -0.17955000000000002 -0.10121458333333333 -0.24434791666666666 -0.06479791666666668 -0.06479791666666668 -0.1527125 -0.10121458333333333 -0.24434791666666666 -0.10121458333333333 -0.09163541666666668 0 -0.1795104166666667 0.03641666666666667 -0.24430833333333335 0.10121458333333333 -0.06479791666666668 0.06479791666666668 -0.10121458333333333 0.1527125 -0.10121458333333333 0.24434791666666666 0 0.09163541666666668 0.03641666666666667 0.1795104166666667 0.10121458333333333 0.24430833333333335 0.06479791666666668 0.06479791666666668 0.15267291666666669 0.10121458333333333 0.24430833333333335 0.10121458333333333Z" stroke-width="1"></path><path fill="#000000" d="M7.427614583333335 9.3287625c0.091675 0 0.17955000000000002 -0.03641666666666667 0.24434791666666666 -0.10121458333333333 0.06479791666666668 -0.06479791666666668 0.10121458333333333 -0.15267291666666669 0.10121458333333333 -0.24430833333333335 0 -0.09163541666666668 -0.03641666666666667 -0.17955000000000002 -0.10121458333333333 -0.24434791666666666 -0.06479791666666668 -0.06479791666666668 -0.15267291666666669 -0.10121458333333333 -0.24434791666666666 -0.10121458333333333 -0.09163541666666668 0 -0.1795104166666667 0.03641666666666667 -0.24430833333333335 0.10121458333333333 -0.06479791666666668 0.06479791666666668 -0.10121458333333333 0.1527125 -0.10121458333333333 0.24434791666666666 0 0.09163541666666668 0.03641666666666667 0.1795104166666667 0.10121458333333333 0.24430833333333335 0.06479791666666668 0.06479791666666668 0.15267291666666669 0.10121458333333333 0.24430833333333335 0.10121458333333333Z" stroke-width="1"></path><path fill="#000000" d="M11.745839583333334 6.910379166666667c0.09163541666666668 0 0.17955000000000002 -0.03641666666666667 0.24434791666666666 -0.10121458333333333 0.06479791666666668 -0.06479791666666668 0.10121458333333333 -0.15267291666666669 0.10121458333333333 -0.24430833333333335 0 -0.091675 -0.03641666666666667 -0.17955000000000002 -0.10121458333333333 -0.24434791666666666 -0.06479791666666668 -0.06479791666666668 -0.1527125 -0.10121458333333333 -0.24434791666666666 -0.10121458333333333 -0.09163541666666668 0 -0.1795104166666667 0.03641666666666667 -0.24430833333333335 0.10121458333333333 -0.06479791666666668 0.06479791666666668 -0.10121458333333333 0.15267291666666669 -0.10121458333333333 0.24434791666666666 0 0.09163541666666668 0.03641666666666667 0.1795104166666667 0.10121458333333333 0.24430833333333335 0.06479791666666668 0.06479791666666668 0.15267291666666669 0.10121458333333333 0.24430833333333335 0.10121458333333333Z" stroke-width="1"></path><path fill="#000000" d="M7.427614583333335 6.910379166666667c0.091675 0 0.17955000000000002 -0.03641666666666667 0.24434791666666666 -0.10121458333333333 0.06479791666666668 -0.06479791666666668 0.10121458333333333 -0.15267291666666669 0.10121458333333333 -0.24430833333333335 0 -0.091675 -0.03641666666666667 -0.17955000000000002 -0.10121458333333333 -0.24434791666666666 -0.06479791666666668 -0.06479791666666668 -0.15267291666666669 -0.10121458333333333 -0.24434791666666666 -0.10121458333333333 -0.09163541666666668 0 -0.1795104166666667 0.03641666666666667 -0.24430833333333335 0.10121458333333333 -0.06479791666666668 0.06479791666666668 -0.10121458333333333 0.15267291666666669 -0.10121458333333333 0.24434791666666666 0 0.09163541666666668 0.03641666666666667 0.1795104166666667 0.10121458333333333 0.24430833333333335 0.06479791666666668 0.06479791666666668 0.15267291666666669 0.10121458333333333 0.24430833333333335 0.10121458333333333Z" stroke-width="1"></path></svg>