<svg xmlns="http://www.w3.org/2000/svg" fill="none" viewBox="-0.5 -0.5 20 20" id="Sprout--Streamline-Kameleon.svg" height="20" width="20"><desc>Sprout Streamline Icon: https://streamlinehq.com</desc><path fill="#52c1ff" d="M9.50178125 19.000475c5.246889583333334 0 9.5002375 -4.253347916666667 9.5002375 -9.5002375C19.00201875 4.253347916666667 14.748670833333334 0 9.50178125 0 4.254891666666667 0 0.0015462239583333335 4.253347916666667 0.0015462239583333335 9.5002375c0 5.246889583333334 4.2533454427083335 9.5002375 9.500235026041668 9.5002375Z" stroke-width="1"></path><path fill="#ffffff" d="M7.905820833333334 11.690145833333334c0.14234166666666667 0.03712916666666667 0.2888791666666667 0.05593125000000001 0.43597083333333336 0.05593125000000001h2.887564583333334l-1.9532395833333334 -0.6511854166666667c-0.07928541666666668 -0.026362500000000004 -0.15196041666666668 -0.06942916666666667 -0.21311666666666668 -0.12635000000000002 -0.06115625 -0.056920833333333344 -0.10936875 -0.12631041666666668 -0.14135208333333332 -0.2034979166666667 -0.031983333333333336 -0.0771875 -0.04698541666666667 -0.16035208333333337 -0.04401666666666667 -0.24383333333333335 0.0030083333333333338 -0.08348125 0.023908333333333337 -0.16533958333333335 0.061314583333333346 -0.2400729166666667 0.06107708333333334 -0.12207500000000002 0.16304375000000002 -0.21889583333333337 0.28820625 -0.27348125 0.12512291666666667 -0.05462500000000001 0.2654458333333333 -0.06357083333333334 0.39650625000000006 -0.025333333333333336l1.9267979166666669 0.5618854166666667c-0.5978270833333333 -0.6409729166666667 -1.4474833333333335 -1.0436145833333335 -2.39388125 -1.0436145833333335 -1.2562562500000003 0 -2.343095833333334 0.7080270833333334 -2.8935812500000004 1.7451104166666667l1.6428270833333334 0.44444166666666673Z" stroke-width="1"></path><path fill="#000000" fill-rule="evenodd" d="m13.560102083333335 11.649216666666668 1.0184395833333335 2.3422250000000004h0.2780729166666667c0.0458375 0 0.08977500000000001 0.018208333333333333 0.12215416666666667 0.0505875 0.03237916666666667 0.03237916666666667 0.0505875 0.07631666666666667 0.0505875 0.12215416666666667v0.6909270833333334c0 0.04579791666666667 -0.018208333333333333 0.08973541666666668 -0.0505875 0.12211458333333335 -0.03237916666666667 0.03241875 -0.07631666666666667 0.05062708333333334 -0.12215416666666667 0.05062708333333334H11.666791666666668c-0.028381250000000004 -0.00003958333333333334 -0.05632708333333334 -0.007085416666666667 -0.08130416666666668 -0.020464583333333338 -0.025016666666666673 -0.013418750000000002 -0.046352083333333335 -0.032814583333333334 -0.06206666666666667 -0.05640625l-0.4608291666666667 -0.6909270833333334c-0.017377083333333335 -0.026045833333333334 -0.027352083333333332 -0.05632708333333334 -0.028856250000000007 -0.08759791666666668 -0.0015041666666666669 -0.03127083333333334 0.005502083333333334 -0.06234375 0.02030625 -0.08993333333333335 0.014804166666666669 -0.027589583333333334 0.036812500000000005 -0.05062708333333334 0.06368958333333334 -0.06665833333333333 0.026877083333333336 -0.01603125 0.05759375 -0.024502083333333334 0.08890416666666667 -0.02442291666666667h0.24581250000000002c-0.09670208333333334 -0.10830000000000001 -0.21505625000000003 -0.19502708333333335 -0.34746250000000006 -0.2545604166666667 -0.13240625000000003 -0.05949375 -0.27585625 -0.09048750000000001 -0.42104791666666674 -0.09088333333333334h-1.8516687500000002c-0.09674166666666668 0.03780208333333334 -0.38657083333333336 -0.02608541666666667 -0.7016541666666667 -0.1489125l-3.856722916666667 -1.751166666666667c-0.11582083333333336 -0.05137916666666667 -0.20801041666666667 -0.14443958333333334 -0.25828125 -0.26073541666666666 -0.05027083333333334 -0.11625625000000002 -0.05498125 -0.2471979166666667 -0.013102083333333334 -0.36673958333333334 0.041879166666666676 -0.11958125 0.12718125 -0.21897500000000003 0.23904375000000003 -0.27846875000000004 0.11182291666666666 -0.05953333333333334 0.24193333333333333 -0.07477291666666668 0.3644833333333333 -0.04267083333333334l3.2995083333333333 0.8926437500000002c0.14238125000000001 0.03716875 0.2888791666666667 0.05597083333333334 0.4360104166666667 0.05597083333333334h2.8875250000000006l-1.9532395833333334 -0.6510270833333334c-0.07928541666666668 -0.02632291666666667 -0.15196041666666668 -0.06942916666666667 -0.21311666666666668 -0.12635000000000002 -0.06115625 -0.056920833333333344 -0.10936875 -0.12631041666666668 -0.14135208333333332 -0.2034979166666667 -0.031983333333333336 -0.0771875 -0.04698541666666667 -0.16031250000000002 -0.04397708333333334 -0.24383333333333335 0.00296875 -0.08348125 0.02386875 -0.16533958333333335 0.061275 -0.24003333333333338 0.06103750000000001 -0.12215416666666667 0.16304375000000002 -0.21897500000000003 0.2881666666666667 -0.27360000000000007 0.12512291666666667 -0.054664583333333336 0.2654458333333333 -0.06365000000000001 0.3965458333333334 -0.0254125l3.0566645833333337 0.8914562500000001c0.19463125000000003 0.056802083333333336 0.3743791666666667 0.15572083333333336 0.5264979166666668 0.28975 0.15211875 0.13402916666666667 0.2727291666666667 0.2998833333333334 0.35355833333333336 0.4858458333333334Z" clip-rule="evenodd" stroke-width="1"></path><path fill="#000000" d="M8.789716666666667 6.598502083333333c-0.5420145833333334 -0.044729166666666674 -1.3346708333333335 -0.17844166666666667 -2.2518958333333337 -0.5477541666666667 0.26307083333333336 0.33285625 1.3341958333333335 0.7805833333333334 2.2233958333333335 0.8709125000000001 0.009697916666666667 -0.10671666666666668 0.01919791666666667 -0.21450208333333337 0.0285 -0.3231583333333334Z" stroke-width="1"></path><path fill="#000000" d="M9.510806250000002 6.467243750000001c0.0121125 0.1445979166666667 0.024383333333333337 0.28725625000000005 0.036812500000000005 0.42821250000000005 1.2397104166666668 -0.18912916666666668 2.939022916666667 -1.2920395833333334 3.235937500000001 -1.8858687500000004 -1.3814979166666668 0.9209854166666669 -2.6073541666666666 1.3041125 -3.2727500000000007 1.45765625Z" stroke-width="1"></path><path fill="#000000" fill-rule="evenodd" d="M9.938820833333335 9.597850000000001c-0.2559458333333333 -0.06380833333333334 -0.5187 -0.09646458333333334 -0.7824833333333333 -0.09721666666666669 -0.27118541666666673 0 -0.5333854166666667 0.035743750000000005 -0.7852541666666667 0.09773125 0.2642979166666667 -0.9503562500000001 0.39745625 -2.674210416666667 0.52736875 -4.353691666666667 0.028658333333333338 -0.37137083333333337 0.057 -0.7404854166666668 0.08688541666666667 -1.0987541666666667 0.005858333333333334 -0.04116666666666667 0.026402083333333333 -0.07885 0.05779166666666667 -0.10608333333333335 0.03142916666666667 -0.02727291666666667 0.07160625000000001 -0.04227500000000001 0.11320833333333334 -0.04227500000000001 0.04160208333333334 0 0.08177916666666668 0.015002083333333336 0.11320833333333334 0.04227500000000001 0.03138958333333333 0.027233333333333335 0.051933333333333345 0.06491666666666668 0.05779166666666667 0.10608333333333335 0.031112500000000005 0.3748541666666667 0.06028541666666667 0.7546958333333335 0.0893 1.1317666666666668 0.133 1.7214395833333336 0.2616854166666667 3.3901937500000003 0.5221833333333333 4.320164583333334Zm-0.4485979166666667 -3.3831083333333334c0.027114583333333338 0.3354291666666667 0.05525833333333334 0.6639708333333334 0.08498541666666667 0.9795687500000001 2.1519083333333335 0.48085833333333344 3.5905645833333337 -0.7323708333333334 4.244877083333334 -2.7029083333333337 -2.0368395833333333 -0.19261250000000002 -3.604022916666667 0.41091458333333336 -4.3298625 1.7233395833333334Zm-0.6624270833333334 -0.07374375000000001c-0.7460270833333335 -0.59885625 -1.8509958333333334 -0.7045833333333335 -3.1260937500000003 -0.31076875000000004 0.6909270833333334 1.1901520833333334 1.7435666666666667 1.8461666666666667 3.020366666666667 1.5032958333333335 0.03803958333333334 -0.38380000000000003 0.07275416666666668 -0.7847395833333334 0.10572708333333335 -1.1925270833333335Z" clip-rule="evenodd" stroke-width="1"></path><path fill="#000000" d="M9.643489583333334 10.228927083333334c-0.17673958333333337 -0.045956250000000004 -0.3645229166666667 0.027470833333333337 -0.4469354166666667 0.1745229166666667 -0.024304166666666672 0.04271041666666667 -0.038000000000000006 0.09064583333333334 -0.03993958333333334 0.13976875000000002 -0.001979166666666667 0.04912291666666667 0.007877083333333335 0.09800833333333334 0.028697916666666667 0.14253958333333333 0.042156250000000006 0.09104166666666667 0.12646875000000002 0.1613416666666667 0.2311666666666667 0.19261250000000002l0.09365416666666668 0.02798541666666667 0.26259583333333336 -0.6437437500000001 -0.12923958333333335 -0.03368541666666667Z" stroke-width="1"></path></svg>