<?xml version="1.0" encoding="iso-8859-1"?>
<!-- Uploaded to: SVG Repo, www.svgrepo.com, Generator: SVG Repo Mixer Tools -->
<svg version="1.1" id="Layer_1" xmlns="http://www.w3.org/2000/svg" xmlns:xlink="http://www.w3.org/1999/xlink" 
	 viewBox="0 0 512 512" xml:space="preserve">
<g>
	
		<rect x="164.986" y="309.899" transform="matrix(-0.7686 -0.6397 0.6397 -0.7686 75.0446 755.0595)" style="fill:#808080;" width="18.18" height="108.118"/>
	<rect x="172.216" y="429.145" style="fill:#808080;" width="262.263" height="18.182"/>
</g>
<polygon style="fill:#F95428;" points="452.533,323.626 118.563,323.626 88.452,107.24 482.645,107.24 "/>
<polygon style="fill:#E54728;" points="452.533,299.384 118.563,299.384 91.825,107.24 88.452,107.24 118.563,323.626 
	452.533,323.626 482.645,107.24 479.272,107.24 "/>
<g>
	<circle style="fill:#666666;" cx="139.513" cy="438.236" r="32.701"/>
	<circle style="fill:#666666;" cx="467.181" cy="438.236" r="32.701"/>
</g>
<g>
	<path style="fill:#4D4D4D;" d="M139.517,483.059c-24.716,0-44.822-20.108-44.822-44.822c0-24.716,20.108-44.822,44.822-44.822
		s44.822,20.108,44.822,44.822C184.338,462.952,164.23,483.059,139.517,483.059z M139.517,417.655
		c-11.348,0-20.58,9.233-20.58,20.58s9.233,20.58,20.58,20.58c11.348,0,20.58-9.233,20.58-20.58S150.865,417.655,139.517,417.655z"
		/>
	<path style="fill:#4D4D4D;" d="M467.178,483.059c-24.715,0-44.822-20.108-44.822-44.822c0-24.716,20.108-44.822,44.822-44.822
		c24.716,0,44.822,20.108,44.822,44.822S491.892,483.059,467.178,483.059z M467.178,417.655c-11.348,0-20.58,9.233-20.58,20.58
		s9.231,20.58,20.58,20.58c11.349,0,20.58-9.233,20.58-20.58S478.525,417.655,467.178,417.655z"/>
</g>
<path style="fill:#808080;" d="M80.761,117.543L70.535,47.122H0V28.941h78.401c4.516,0,8.348,3.315,8.996,7.784l11.357,78.205
	L80.761,117.543z"/>
<g>
	<path style="fill:#FFFFFF;" d="M243.952,212.161c-22.135,0-40.144-18.008-40.144-40.144s18.008-40.144,40.144-40.144
		s40.144,18.008,40.144,40.144S266.086,212.161,243.952,212.161z M243.952,150.057c-12.11,0-21.962,9.852-21.962,21.962
		s9.852,21.962,21.962,21.962s21.962-9.852,21.962-21.962S256.062,150.057,243.952,150.057z"/>
	<path style="fill:#FFFFFF;" d="M327.144,295.356c-22.135,0-40.142-18.008-40.142-40.144s18.007-40.144,40.142-40.144
		s40.144,18.008,40.144,40.144S349.28,295.356,327.144,295.356z M327.144,233.251c-12.109,0-21.961,9.852-21.961,21.962
		c0,12.11,9.852,21.962,21.961,21.962c12.11,0,21.962-9.852,21.962-21.962C349.107,243.103,339.256,233.251,327.144,233.251z"/>
	<path style="fill:#FFFFFF;" d="M246.027,262.228c-2.326,0-4.653-0.887-6.429-2.663c-3.55-3.55-3.55-9.307,0-12.856l79.044-79.044
		c3.551-3.55,9.307-3.55,12.857,0c3.55,3.55,3.55,9.307,0,12.856l-79.044,79.044C250.679,261.34,248.353,262.228,246.027,262.228z"
		/>
</g>
<path style="fill:#808080;" d="M473.466,107.24L473.466,107.24l-28.847,207.295H126.477L96.202,96.983l-18.007,2.505L109.56,324.88
	c0.627,4.493,4.468,7.837,9.005,7.837h333.969c4.537,0,8.378-3.344,9.005-7.837l30.286-217.639H473.466z"/>
</svg>