<svg xmlns="http://www.w3.org/2000/svg" fill="none" viewBox="-0.5 -0.5 20 20" id="Cart--Streamline-Kameleon.svg" height="40px" width="40px"><desc>Cart Streamline Icon: https://streamlinehq.com</desc><path fill="#52c1ff" d="M9.5002375 19.000989583333336c5.246889583333334 0 9.5002375 -4.253347916666667 9.5002375 -9.500277083333334 0 -5.246889583333334 -4.253347916666667 -9.50022930625 -9.5002375 -9.50022930625C4.253347916666667 0.00048319375 0 4.253822916666667 0 9.5007125c0 5.246929166666667 4.253347916666667 9.500277083333334 9.5002375 9.500277083333334Z" stroke-width="1"></path><path fill="#000000" d="M7.427258333333334 15.027891666666669c0.18319166666666667 0 0.35890208333333334 -0.07275416666666668 0.4884583333333334 -0.2023104166666667 0.12951666666666667 -0.12955625 0.2023104166666667 -0.30522708333333337 0.2023104166666667 -0.48841875000000007 0 -0.18323125 -0.07279375 -0.35890208333333334 -0.2023104166666667 -0.4884583333333334 -0.12955625 -0.12951666666666667 -0.3052666666666667 -0.2023104166666667 -0.4884583333333334 -0.2023104166666667s-0.35890208333333334 0.07279375 -0.48841875000000007 0.2023104166666667c-0.12955625 0.12955625 -0.2023104166666667 0.30522708333333337 -0.2023104166666667 0.4884583333333334 0 0.18319166666666667 0.07275416666666668 0.35886250000000003 0.2023104166666667 0.48841875000000007 0.12951666666666667 0.12955625 0.30522708333333337 0.2023104166666667 0.48841875000000007 0.2023104166666667Z" stroke-width="1"></path><path fill="#000000" d="M12.263866666666667 15.027891666666669c0.18319166666666667 0 0.35890208333333334 -0.07275416666666668 0.48841875000000007 -0.2023104166666667 0.12955625 -0.12955625 0.2023104166666667 -0.30522708333333337 0.2023104166666667 -0.48841875000000007 0 -0.18323125 -0.07275416666666668 -0.35890208333333334 -0.2023104166666667 -0.4884583333333334 -0.12951666666666667 -0.12951666666666667 -0.30522708333333337 -0.2023104166666667 -0.48841875000000007 -0.2023104166666667 -0.18323125 0 -0.35890208333333334 0.07279375 -0.4884583333333334 0.2023104166666667 -0.12951666666666667 0.12955625 -0.2023104166666667 0.30522708333333337 -0.2023104166666667 0.4884583333333334 0 0.18319166666666667 0.07279375 0.35886250000000003 0.2023104166666667 0.48841875000000007 0.12955625 0.12955625 0.30522708333333337 0.2023104166666667 0.4884583333333334 0.2023104166666667Z" stroke-width="1"></path><path fill="#000000" d="M12.954912500000002 12.955625H7.295525000000001l0.3972979166666667 -1.7273375000000002h-0.6107708333333334c-0.03542708333333334 0 -0.06946875 -0.00605625 -0.10176875 -0.01622916666666667l-0.5527416666666668 1.9344375c-0.026402083333333333 0.05268541666666667 -0.03891041666666667 0.11122916666666668 -0.03625833333333334 0.1701291666666667 0.0026125000000000002 0.05886041666666667 0.02026666666666667 0.11609791666666668 0.051260416666666676 0.1662104166666667 0.03099375 0.050112500000000004 0.07429791666666667 0.09147708333333335 0.12579583333333336 0.12013541666666668 0.05149791666666667 0.028658333333333338 0.10948750000000002 0.04366041666666667 0.16842708333333334 0.04358125000000001h6.218304166666668c0.09163541666666668 0 0.1795104166666667 -0.03641666666666667 0.24430833333333335 -0.10121458333333333 0.06475833333333333 -0.06475833333333333 0.101175 -0.15263333333333334 0.101175 -0.24426875 0 -0.09163541666666668 -0.03641666666666667 -0.17947083333333336 -0.101175 -0.24426875 -0.06479791666666668 -0.06479791666666668 -0.15283125 -0.101175 -0.2444666666666667 -0.101175Z" stroke-width="1"></path><path fill="#000000" d="M14.954227083333334 6.178958333333334c-0.0323 -0.04136458333333334 -0.07362500000000001 -0.0748125 -0.12076875000000001 -0.09785 -0.04718333333333334 -0.02299791666666667 -0.09895833333333334 -0.034952083333333335 -0.15144583333333334 -0.03499166666666667H6.045404166666668c-0.007916666666666667 0 -0.015516666666666668 0.001741666666666667 -0.023314583333333336 0.002454166666666667l-0.3325 -1.1225833333333335c-0.018683333333333333 -0.07477291666666668 -0.061789583333333335 -0.14111458333333335 -0.12251041666666668 -0.18853541666666668 -0.06072083333333334 -0.04738125000000001 -0.13553333333333334 -0.07315 -0.21260208333333336 -0.07318958333333335h-1.0363708333333335c-0.09163541666666668 0 -0.1795104166666667 0.03641666666666667 -0.24426875 0.10121458333333333 -0.06479791666666668 0.06475833333333333 -0.10121458333333333 0.15263333333333334 -0.10121458333333333 0.24426875 0 0.09163541666666668 0.03641666666666667 0.1795104166666667 0.10121458333333333 0.24426875 0.06475833333333333 0.06479791666666668 0.15263333333333334 0.101175 0.24426875 0.101175h0.7665708333333334l1.661866666666667 5.611214583333334c0.018683333333333333 0.07477291666666668 0.06182916666666667 0.14111458333333335 0.12258958333333334 0.18853541666666668 0.06076041666666667 0.04742083333333334 0.13561250000000002 0.07318958333333335 0.21268125000000002 0.07315h6.218660416666667c0.07188333333333334 -0.0010291666666666667 0.14170833333333335 -0.023789583333333336 0.20037083333333336 -0.06531250000000001 0.06376875 -0.0456 0.11384166666666669 -0.11364375000000002 0.13458333333333336 -0.19657083333333333l1.3818541666666668 -4.491006250000001c0.01270625 -0.05090416666666667 0.013656250000000002 -0.10406458333333335 0.00273125 -0.15540416666666668 -0.010925 -0.05133958333333334 -0.033447916666666674 -0.09951250000000002 -0.0657875 -0.1408375Zm-2.17229375 0.5580854166666667v1.0364104166666668H11.7455625v-1.0364104166666668h1.0363708333333335Zm0.34548333333333336 3.544291666666667v-0.7805833333333334h0.2449416666666667l-0.2449416666666667 0.7805833333333334Zm0 -1.1260270833333335v-1.0364104166666668h0.6784979166666667l-0.32525625 1.0364104166666668h-0.3532416666666667Zm-0.34548333333333336 0H11.7455625v-1.0364104166666668h1.0363708333333335v1.0364104166666668Zm-6.146618750000001 -1.0364104166666668h0.6192416666666667v1.0364104166666668h-0.31231250000000005l-0.3069291666666667 -1.0364104166666668Zm0.9646854166666667 0h1.0364104166666668v1.0364104166666668H7.6000000000000005v-1.0364104166666668Zm1.3818541666666668 0h1.0364104166666668v1.0364104166666668H8.981854166666666v-1.0364104166666668Zm1.3818541666666668 0h1.0364104166666668v1.0364104166666668H10.363708333333333v-1.0364104166666668Zm1.0364104166666668 -1.3818541666666668v1.0364104166666668H10.363708333333333v-1.0364104166666668h1.0364104166666668Zm-1.3818541666666668 0v1.0364104166666668H8.981854166666666v-1.0364104166666668h1.0364104166666668Zm-1.3818541666666668 0v1.0364104166666668H7.6000000000000005v-1.0364104166666668h1.0364104166666668Zm-1.3818541666666668 0v1.0364104166666668h-0.7215250000000001l-0.3069291666666667 -1.0364104166666668h1.0284541666666667Zm-0.21006875 2.7637083333333337h0.21006875v0.7088979166666667l-0.21006875 -0.7088979166666667ZM7.6000000000000005 10.5371625v-1.0364104166666668h1.0364104166666668v1.0364104166666668H7.6000000000000005Zm1.3818541666666668 0v-1.0364104166666668h1.0364104166666668v1.0364104166666668H8.981854166666666Zm1.3818541666666668 0v-1.0364104166666668h1.0364104166666668v1.0364104166666668H10.363708333333333Zm1.3818541666666668 0v-1.0364104166666668h1.0363708333333335v1.0364104166666668H11.7455625Zm2.1688104166666666 -2.7637083333333337H13.127416666666669v-1.0364104166666668h1.1120541666666668l-0.3250979166666667 1.0364104166666668Z" stroke-width="1"></path><path fill="#ffffff" d="M4.6633916666666675 5.700514583333335c0.18319166666666667 0 0.35890208333333334 -0.07279375 0.48841875000000007 -0.20235 0.12955625 -0.12951666666666667 0.20235 -0.30522708333333337 0.20235 -0.48841875000000007s-0.07279375 -0.35890208333333334 -0.20235 -0.48841875000000007c-0.12951666666666667 -0.12955625 -0.30522708333333337 -0.20235 -0.48841875000000007 -0.20235s-0.35890208333333334 0.07279375 -0.48841875000000007 0.20235c-0.12955625 0.12951666666666667 -0.20235 0.30522708333333337 -0.20235 0.48841875000000007s0.07279375 0.35890208333333334 0.20235 0.48841875000000007c0.12951666666666667 0.12955625 0.30522708333333337 0.20235 0.48841875000000007 0.20235Z" stroke-width="1"></path></svg>