<svg xmlns="http://www.w3.org/2000/svg" fill="none" viewBox="-0.5 -0.5 20 20" id="Basket-2--Streamline-Kameleon.svg" height="20" width="20"><desc>Basket 2 Streamline Icon: https://streamlinehq.com</desc><path fill="#deeeff" d="M9.499960416666667 18.999722916666666c5.24673125 0 9.499920833333334 -4.253229166666666 9.499920833333334 -9.499960416666667 0 -5.24673125 -4.2531895833333335 -9.499955777895835 -9.499920833333334 -9.499955777895835C4.253229166666666 -0.00019327789583333335 0 4.25303125 0 9.499762500000001c0 5.24673125 4.253229166666666 9.499960416666667 9.499960416666667 9.499960416666667Z" stroke-width="1"></path><path fill="#6bafff" d="m5.113216666666667 8.808597916666667 1.2427583333333334 -2.8997562500000003c0.026639583333333335 -0.06214583333333334 0.07093333333333333 -0.11514791666666667 0.12737916666666668 -0.15235625000000003 0.05648541666666667 -0.037208333333333336 0.12262916666666669 -0.05703958333333334 0.19027708333333335 -0.05696041666666667h5.652460416666667c0.13834375000000002 0 0.26307083333333336 0.08221458333333334 0.3174583333333334 0.2093166666666667l1.2427979166666667 2.8997562500000003h0.7516875000000001l-1.3593708333333334 -3.171970833333334c-0.07980000000000001 -0.1865166666666667 -0.2126416666666667 -0.34544375000000005 -0.38201875 -0.4571083333333334 -0.16937708333333334 -0.11166458333333334 -0.3678479166666667 -0.17107916666666667 -0.5707125000000001 -0.17092083333333336H6.673631250000001c-0.20286458333333335 -0.00011875 -0.40125625000000004 0.05929583333333333 -0.5706333333333334 0.1709604166666667 -0.16933750000000003 0.11166458333333334 -0.30217916666666667 0.2705916666666667 -0.3819395833333334 0.4570687500000001l-1.359529166666667 3.171970833333334h0.7516875000000001Z" stroke-width="1"></path><path fill="#2e3ecd" d="M15.027139583333334 9.845087500000002c0 0.09163541666666668 -0.03641666666666667 0.1795104166666667 -0.10121458333333333 0.24426875 -0.06475833333333333 0.06479791666666668 -0.15263333333333334 0.10121458333333333 -0.24426875 0.10121458333333333H4.3181062500000005c-0.09163541666666668 0 -0.1795104166666667 -0.03641666666666667 -0.24430833333333335 -0.10121458333333333 -0.06475833333333333 -0.06475833333333333 -0.101175 -0.15263333333333334 -0.101175 -0.24426875v-0.6908875000000001c0 -0.09163541666666668 0.03641666666666667 -0.1795104166666667 0.101175 -0.24426875 0.06479791666666668 -0.06479791666666668 0.15267291666666669 -0.101175 0.24430833333333335 -0.101175h10.36355c0.09163541666666668 0 0.1795104166666667 0.03637708333333334 0.24426875 0.101175 0.06479791666666668 0.06475833333333333 0.10121458333333333 0.15263333333333334 0.10121458333333333 0.24426875v0.6908875000000001Z" stroke-width="1"></path><path fill="#2e3ecd" d="m4.318225000000001 10.190491666666667 1.23844375 4.3354437500000005c0.08462916666666667 0.2970729166666667 0.3558145833333334 0.5008875 0.665 0.5008875h6.556702083333334c0.3091458333333334 0 0.5803312500000001 -0.20381458333333335 0.665 -0.5008875l1.23844375 -4.3354437500000005H4.318225000000001Zm2.2972583333333336 4.14544375c-0.18481458333333334 0.04662916666666667 -0.3731125 -0.06392708333333334 -0.41974166666666674 -0.24874166666666667l-0.7012583333333334 -2.7567020833333333c-0.04837083333333334 -0.18481458333333334 0.06392708333333334 -0.3731125 0.24874166666666667 -0.41974166666666674 0.18481458333333334 -0.04837083333333334 0.3730729166666667 0.06392708333333334 0.41970208333333336 0.24874166666666667l0.7012583333333334 2.7567020833333333c0.04666875000000001 0.18481458333333334 -0.0638875 0.3730729166666667 -0.24870208333333335 0.41974166666666674Zm1.37833125 0.0017020833333333334c-0.1899604166666667 0.02418541666666667 -0.36270208333333337 -0.10881458333333334 -0.38688750000000005 -0.2988145833333334l-0.3558145833333334 -2.763629166666667c-0.00914375 -0.08965625 0.017100000000000004 -0.17935208333333336 0.07315 -0.24996875000000002 0.05601041666666667 -0.07061666666666667 0.13739375 -0.11657291666666666 0.2268125 -0.12805208333333334 0.08941875 -0.011479166666666669 0.17974791666666667 0.012389583333333336 0.25182916666666666 0.06653958333333333 0.07204166666666667 0.05418958333333333 0.12009583333333335 0.13434583333333333 0.13395 0.22340833333333335l0.3540729166666667 2.7618875000000003c0.0258875 0.19 -0.10881458333333334 0.3627416666666667 -0.29711250000000006 0.3886291666666667Zm1.851629166666667 -0.3471854166666667c0 0.19 -0.15544375000000002 0.34548333333333336 -0.34544375000000005 0.34548333333333336 -0.19 0 -0.34544375000000005 -0.15548333333333333 -0.34544375000000005 -0.34548333333333336v-2.7635895833333337c0 -0.19 0.15544375000000002 -0.34548333333333336 0.34544375000000005 -0.34548333333333336 0.19 0 0.34544375000000005 0.15548333333333333 0.34544375000000005 0.34548333333333336v2.7635895833333337Zm1.9103708333333336 -2.7221458333333337 -0.3627416666666667 2.770516666666667c-0.005660416666666667 0.04508541666666667 -0.020227083333333336 0.08858750000000001 -0.04275 0.12801250000000003 -0.022562500000000003 0.039425 -0.05264583333333334 0.07402083333333334 -0.08862708333333334 0.10176875 -0.03594166666666667 0.027787500000000003 -0.07702916666666668 0.04817291666666667 -0.12084791666666668 0.060008333333333344 -0.04385833333333333 0.011835416666666668 -0.08961666666666668 0.014922916666666668 -0.13466250000000002 0.009025000000000002 -0.09092291666666667 -0.012191666666666668 -0.17325625 -0.05996875 -0.22895000000000004 -0.1328416666666667 -0.05569375 -0.07287291666666668 -0.08023541666666667 -0.16486458333333334 -0.0681625 -0.2557875l0.36100000000000004 -2.7688145833333335c0.01385416666666667 -0.08906250000000002 0.06190833333333334 -0.16921875 0.13395 -0.22336875000000003 0.07208125000000001 -0.054150000000000004 0.16241041666666667 -0.07805833333333334 0.25182916666666666 -0.06657916666666666 0.08941875 0.011518750000000001 0.17080208333333335 0.057435416666666676 0.2268125 0.12805208333333334 0.05605000000000001 0.07061666666666667 0.08229375000000001 0.16031250000000002 0.07315 0.2500083333333334Zm1.0484437500000001 2.8188875c-0.011241666666666669 0.04389791666666667 -0.03099375 0.08514375000000002 -0.058147916666666674 0.12140208333333333 -0.027193750000000003 0.03625833333333334 -0.061235416666666674 0.06677708333333333 -0.10018541666666668 0.08989375000000001 -0.03898958333333334 0.023077083333333335 -0.08213541666666667 0.03827708333333334 -0.12698333333333334 0.04468958333333334 -0.04484791666666667 0.006452083333333333 -0.09052708333333334 0.003958333333333334 -0.1343854166666667 -0.007243750000000001 -0.04389791666666667 -0.011241666666666669 -0.08514375000000002 -0.03099375 -0.12140208333333333 -0.0581875 -0.03625833333333334 -0.027154166666666667 -0.06681666666666668 -0.06119583333333333 -0.08989375000000001 -0.10018541666666668 -0.023116666666666667 -0.038950000000000005 -0.03831666666666667 -0.08209583333333334 -0.044729166666666674 -0.12694375 -0.006412500000000001 -0.04484791666666667 -0.003958333333333334 -0.09052708333333334 0.0072833333333333335 -0.13442500000000002l0.7668875 -2.763629166666667c0.011241666666666669 -0.04389791666666667 0.03099375 -0.08514375000000002 0.058147916666666674 -0.12140208333333333 0.027193750000000003 -0.03625833333333334 0.061235416666666674 -0.06681666666666668 0.10022500000000001 -0.08989375000000001 0.038950000000000005 -0.023116666666666667 0.08209583333333334 -0.03831666666666667 0.12694375 -0.044729166666666674 0.04484791666666667 -0.006412500000000001 0.09052708333333334 -0.00391875 0.13442500000000002 0.007322916666666667 0.18481458333333334 0.04662916666666667 0.2970729166666667 0.23488750000000003 0.24874166666666667 0.41970208333333336l-0.7669270833333334 2.763629166666667Z" stroke-width="1"></path><path fill="#2e3ecd" d="M11.572702083333334 5.354120833333334c0 0.18323125 -0.07275416666666668 0.35898125000000003 -0.20235 0.4885375 -0.12955625 0.12959583333333335 -0.30530625 0.20238958333333334 -0.4885375 0.20238958333333334h-2.763629166666667c-0.18323125 0 -0.35898125000000003 -0.07279375 -0.4885375 -0.20238958333333334 -0.12955625 -0.12955625 -0.20235 -0.30530625 -0.20235 -0.4885375s0.07279375 -0.35898125000000003 0.20235 -0.4885375c0.12955625 -0.12955625 0.30530625 -0.20235 0.4885375 -0.20235h2.763629166666667c0.18323125 0 0.35898125000000003 0.07279375 0.4885375 0.20235 0.12959583333333335 0.12955625 0.20235 0.30530625 0.20235 0.4885375Z" stroke-width="1"></path></svg>