<svg xmlns="http://www.w3.org/2000/svg" fill="none" viewBox="-0.415 -0.415 20 20" id="Hairdresser--Streamline-Guidance-Free.svg" height="20" width="20"><desc>Hairdresser Streamline Icon: https://streamlinehq.com</desc><path stroke="#000000" d="m9.585 13.2672375 -3.415455 3.6654637500000007C5.5912500000000005 17.5725 4.873972500000001 17.971875 3.9953475000000003 17.971875a2.7956250000000002 2.7956250000000002 0 1 1 2.5256475000000003 -3.9937500000000004M9.585 13.2672375l7.700748750000001 -8.2670625a2.5560000000000005 2.5560000000000005 0 0 0 -0.062302500000000004 -3.5496450000000004l-0.25240500000000005 -0.25240500000000005h-0.19968750000000002l-0.0846675 0.10623375000000002A44.22758625000001 44.22758625000001 0 0 1 6.86925 10.35259875L1.8850500000000001 5.0001750000000005a2.5560000000000005 2.5560000000000005 0 0 1 0.062302500000000004 -3.5496450000000004l0.25240500000000005 -0.25240500000000005h0.19968750000000002l0.0846675 0.10623375000000002A44.229982500000006 44.229982500000006 0 0 0 9.585 8.36850375m0 4.897935 3.415455 3.6662625C13.578750000000001 17.5725 14.296027500000001 17.971875 15.174652500000002 17.971875a2.7956250000000002 2.7956250000000002 0 1 0 -2.5256475000000003 -3.9937500000000004" stroke-width="0.83"></path></svg>