<svg xmlns="http://www.w3.org/2000/svg" fill="none" viewBox="-0.5 -0.5 20 20" id="Prism-2--Streamline-Kameleon.svg" height="20" width="20"><desc>Prism 2 Streamline Icon: https://streamlinehq.com</desc><path fill="#ff78b9" d="M9.5002375 19.000475c5.246889583333334 0 9.5002375 -4.253347916666667 9.5002375 -9.5002375C19.000475 4.253347916666667 14.747127083333334 0 9.5002375 0 4.253347916666667 0 0 4.253347916666667 0 9.5002375c0 5.246889583333334 4.253347916666667 9.5002375 9.5002375 9.5002375Z" stroke-width="1"></path><path fill="#000000" d="M11.054833333333335 10.191362500000002h-3.109191666666667l1.5545958333333334 -6.218343750000001 1.5545958333333334 6.218343750000001Z" stroke-width="1"></path><path fill="#ffffff" d="m9.500395833333334 3.9730187500000005 1.5545958333333334 6.218343750000001 2.590966666666667 -0.6909270833333334 -4.1455625000000005 -5.527416666666667Z" stroke-width="1"></path><path fill="#ffffff" d="M9.50011875 3.9730187500000005 7.945562500000001 10.191362500000002l-2.5910062500000004 -0.6909270833333334 4.1455625000000005 -5.527416666666667Z" stroke-width="1"></path><path fill="#ffffff" d="M7.945641666666668 10.191362500000002h3.109191666666667l-1.5545958333333334 4.836489583333334 -1.5545958333333334 -4.836489583333334Z" stroke-width="1"></path><path fill="#000000" d="M9.50011875 15.028010416666667 7.945562500000001 10.191520833333334l-2.5910062500000004 -0.6909270833333334 4.1455625000000005 5.527416666666667Z" stroke-width="1"></path><path fill="#000000" d="m9.500395833333334 15.028010416666667 1.5545958333333334 -4.836489583333334 2.590966666666667 -0.6909270833333334 -4.1455625000000005 5.527416666666667Z" stroke-width="1"></path></svg>