<svg xmlns="http://www.w3.org/2000/svg" fill="none" viewBox="-0.5 -0.5 20 20" id="Towel--Streamline-Kameleon.svg" height="20" width="20"><desc>Towel Streamline Icon: https://streamlinehq.com</desc><path fill="#ffc42d" d="M9.5002375 19.000475c5.246889583333334 0 9.5002375 -4.253347916666667 9.5002375 -9.5002375C19.000475 4.253347916666667 14.747127083333334 0 9.5002375 0 4.253347916666667 0 0 4.253347916666667 0 9.5002375c0 5.246889583333334 4.253347916666667 9.5002375 9.5002375 9.5002375Z" stroke-width="1"></path><path fill="#ffffff" d="m14.680508333333336 9.076893750000002 -4.835420833333334 -2.8775500000000003 -0.004512500000000001 -0.7386250000000001 -0.228 -0.08253125c-0.029014583333333337 -0.010727083333333333 -0.28571250000000004 -0.11091250000000001 -0.28571250000000004 -0.3644833333333333 0 -0.3091854166666667 0.61405625 -0.5905833333333333 0.8999270833333334 -0.01812916666666667 0.042987500000000005 0.07849375000000001 0.11471250000000001 0.137275 0.20009375 0.16399375000000002 0.08542083333333333 0.026718750000000003 0.17784791666666666 0.01931666666666667 0.2578854166666667 -0.020702083333333336s0.14147083333333335 -0.10948750000000002 0.17135625000000002 -0.19383958333333337c0.029845833333333335 -0.08435208333333334 0.0258875 -0.17697708333333334 -0.011122916666666668 -0.2584791666666667 -0.27154166666666674 -0.5432416666666667 -0.8014437500000001 -0.8106231250000001 -1.3497125 -0.6810708333333334 -0.50575625 0.11934375000000001 -0.8591562500000001 0.5340979166666667 -0.8591562500000001 1.0083854166666668 0 0.4541395833333334 0.2666729166666667 0.7474125000000001 0.5181854166666667 0.9051520833333335v0.2799729166666667L4.371900000000001 9.037666666666668l-0.053714583333333336 0.03938541666666667c-0.15599791666666668 0.14032291666666669 -0.266 0.32446458333333333 -0.3155979166666667 0.5283583333333334 -0.04961770833333334 0.2038541666666667 -0.03653541666666667 0.4179604166666667 0.037485416666666674 0.6142541666666668 0.07552500000000001 0.19573958333333336 0.20832708333333336 0.3641270833333334 0.3811083333333334 0.48311458333333335 0.17278125000000003 0.1189875 0.37742708333333336 0.18303333333333335 0.5872187500000001 0.18382500000000002h8.982052083333334c0.2097916666666667 -0.0008312500000000001 0.4144375 -0.06491666666666668 0.5871791666666667 -0.1839041666666667 0.17278125000000003 -0.1189875 0.3056229166666667 -0.2873354166666667 0.3811479166666667 -0.48303541666666666 0.07410000000000001 -0.19633333333333336 0.08716250000000002 -0.4104791666666667 0.03756458333333334 -0.6143729166666667 -0.04963750000000001 -0.20389375 -0.15979791666666668 -0.38807500000000006 -0.3158354166666667 -0.5283979166666667Zm-0.36721458333333334 0.8962854166666667c-0.025175000000000003 0.06527291666666667 -0.06946875 0.12144166666666668 -0.12710208333333334 0.16110416666666666 -0.05767291666666667 0.03970208333333334 -0.12591458333333333 0.060997916666666666 -0.1958979166666667 0.06119583333333333H5.008241666666668c-0.06990416666666667 -0.0003166666666666667 -0.13810625 -0.021691666666666668 -0.1956604166666667 -0.061354166666666675 -0.05755416666666667 -0.03962291666666667 -0.10180833333333333 -0.09575208333333335 -0.12702291666666668 -0.16094583333333334 -0.02299791666666667 -0.060997916666666666 -0.028381250000000004 -0.12726041666666668 -0.015556250000000002 -0.1911479166666667 0.012825000000000001 -0.06392708333333334 0.043383333333333336 -0.12298541666666667 0.08811250000000001 -0.1703666666666667l4.741489583333334 -2.81449375 4.740975000000001 2.81449375c0.09084375000000001 0.09535625 0.12005625000000002 0.2373416666666667 0.07271458333333335 0.36151458333333336Z" stroke-width="1"></path><path fill="#000000" d="M13.301227083333334 9.850114583333333c0 -0.09163541666666668 -0.03641666666666667 -0.1795104166666667 -0.10121458333333333 -0.24430833333333335 -0.06475833333333333 -0.06475833333333333 -0.15263333333333334 -0.101175 -0.24426875 -0.101175H6.045602083333334c-0.09159583333333333 0 -0.17947083333333336 0.03641666666666667 -0.24426875 0.101175 -0.06479791666666668 0.06479791666666668 -0.101175 0.15267291666666669 -0.101175 0.24430833333333335v4.491006250000001h7.6010687500000005V9.850114583333333Z" stroke-width="1"></path><path fill="#000000" d="M13.300356250000002 14.341041666666667H5.700158333333333v0.6909270833333334h7.600197916666668V14.341041666666667Z" stroke-width="1"></path><path fill="#ffffff" d="M6.564064583333334 14.341041666666667H6.218541666666668v0.6910854166666668h0.3455229166666667V14.341041666666667Z" stroke-width="1"></path><path fill="#ffffff" d="M7.600435416666667 14.341041666666667h-0.34556250000000005v0.6910854166666668h0.34556250000000005V14.341041666666667Z" stroke-width="1"></path><path fill="#ffffff" d="M8.636766666666666 14.341041666666667h-0.3455229166666667v0.6910854166666668h0.3455229166666667V14.341041666666667Z" stroke-width="1"></path><path fill="#ffffff" d="M9.673137500000001 14.341041666666667h-0.3455229166666667v0.6910854166666668h0.3455229166666667V14.341041666666667Z" stroke-width="1"></path><path fill="#ffffff" d="M10.709508333333334 14.341041666666667h-0.34556250000000005v0.6910854166666668h0.34556250000000005V14.341041666666667Z" stroke-width="1"></path><path fill="#ffffff" d="M11.745839583333334 14.341041666666667h-0.3455229166666667v0.6910854166666668h0.3455229166666667V14.341041666666667Z" stroke-width="1"></path><path fill="#ffffff" d="M12.782210416666667 14.341041666666667h-0.34556250000000005v0.6910854166666668h0.34556250000000005V14.341041666666667Z" stroke-width="1"></path></svg>