<svg xmlns="http://www.w3.org/2000/svg" fill="none" viewBox="-0.5 -0.5 20 20" id="Cart--Streamline-Kameleon.svg" height="20" width="20"><desc>Cart Streamline Icon: https://streamlinehq.com</desc><path fill="#25b7d3" d="M9.5 18.998218750000003c5.2467708333333345 0 9.5 -4.25303125 9.5 -9.499525C19 4.252160416666667 14.746770833333336 -0.0008697527083333334 9.5 -0.0008697527083333334S0 4.252160416666667 0 9.498693750000001C0 14.7451875 4.253229166666666 18.998218750000003 9.5 18.998218750000003Z" stroke-width="1"></path><path fill="#3e3e3f" d="M7.427139583333334 15.025675000000001c0.18323125 0 0.3589416666666667 -0.07275416666666668 0.4884979166666667 -0.2023104166666667 0.12959583333333335 -0.12955625 0.20235 -0.3052666666666667 0.20235 -0.4884979166666667 0 -0.18319166666666667 -0.07275416666666668 -0.35890208333333334 -0.20235 -0.4884583333333334 -0.12955625 -0.12955625 -0.3052666666666667 -0.20235 -0.4884979166666667 -0.20235 -0.18319166666666667 0 -0.35890208333333334 0.07279375 -0.4884979166666667 0.20235 -0.12955625 0.12955625 -0.2023104166666667 0.3052666666666667 -0.2023104166666667 0.4884583333333334 0 0.18323125 0.07275416666666668 0.3589416666666667 0.2023104166666667 0.4884979166666667 0.12959583333333335 0.12955625 0.30530625 0.2023104166666667 0.4884979166666667 0.2023104166666667Z" stroke-width="1"></path><path fill="#3e3e3f" d="M12.26355 15.025675000000001c0.18323125 0 0.3589416666666667 -0.07275416666666668 0.4884979166666667 -0.2023104166666667 0.12955625 -0.12955625 0.20235 -0.3052666666666667 0.20235 -0.4884979166666667 0 -0.18319166666666667 -0.07279375 -0.35890208333333334 -0.20235 -0.4884583333333334 -0.12955625 -0.12955625 -0.3052666666666667 -0.20235 -0.4884979166666667 -0.20235s-0.3589416666666667 0.07279375 -0.4884979166666667 0.20235c-0.12955625 0.12955625 -0.20235 0.3052666666666667 -0.20235 0.4884583333333334 0 0.18323125 0.07279375 0.3589416666666667 0.20235 0.4884979166666667 0.12955625 0.12955625 0.3052666666666667 0.2023104166666667 0.4884979166666667 0.2023104166666667Z" stroke-width="1"></path><path fill="#e2e4e5" d="M12.954556250000001 12.953052083333334h-5.659229166666668l0.39710000000000006 -1.727179166666667h-0.6106125c-0.0353875 0 -0.06942916666666667 -0.00605625 -0.10172916666666668 -0.01622916666666667l-0.5527020833333334 1.9342791666666668c-0.02644166666666667 0.05268541666666667 -0.03891041666666667 0.11122916666666668 -0.03629791666666667 0.17008958333333335 0.0026125000000000002 0.05882083333333334 0.020227083333333336 0.11605833333333335 0.051220833333333333 0.16617083333333335 0.03095416666666667 0.050112500000000004 0.07425833333333334 0.09147708333333335 0.12571666666666667 0.12013541666666668 0.05145833333333334 0.028658333333333338 0.10944791666666669 0.0437 0.16834791666666668 0.04362083333333334h6.218185416666667c0.09163541666666668 0 0.17947083333333336 -0.03637708333333334 0.24426875 -0.101175 0.06479791666666668 -0.06479791666666668 0.101175 -0.15263333333333334 0.101175 -0.24426875 0 -0.09159583333333333 -0.03637708333333334 -0.17947083333333336 -0.101175 -0.24426875 -0.06479791666666668 -0.06475833333333333 -0.15263333333333334 -0.101175 -0.24426875 -0.101175Z" stroke-width="1"></path><path fill="#ffffff" d="M14.95395 6.17749375c-0.0323 -0.04136458333333334 -0.07362500000000001 -0.0748125 -0.12076875000000001 -0.09781041666666666 -0.04718333333333334 -0.023037500000000002 -0.09895833333333334 -0.03499166666666667 -0.15144583333333334 -0.03499166666666667H6.045364583333334c-0.007956250000000002 0 -0.015556250000000002 0.0017020833333333334 -0.023314583333333336 0.0024145833333333337l-0.3325 -1.1225041666666666c-0.018683333333333333 -0.07473333333333333 -0.06182916666666667 -0.141075 -0.12251041666666668 -0.18849583333333336 -0.06072083333333334 -0.04742083333333334 -0.13553333333333334 -0.07315 -0.21260208333333336 -0.07318958333333335h-1.0363312500000001c-0.09163541666666668 0 -0.1795104166666667 0.03641666666666667 -0.24430833333333335 0.101175 -0.06475833333333333 0.06479791666666668 -0.101175 0.15267291666666669 -0.101175 0.24426875 0 0.09163541666666668 0.03641666666666667 0.17947083333333336 0.101175 0.24426875 0.06479791666666668 0.06479791666666668 0.15267291666666669 0.101175 0.24430833333333335 0.101175h0.7665312500000001L6.746464583333334 10.964583333333334c0.018683333333333333 0.07477291666666668 0.06182916666666667 0.14111458333333335 0.12258958333333334 0.18853541666666668 0.06076041666666667 0.04742083333333334 0.13561250000000002 0.07315 0.21268125000000002 0.07315h6.218502083333334c0.07188333333333334 -0.0010291666666666667 0.14170833333333335 -0.023789583333333336 0.20037083333333336 -0.06531250000000001 0.06372916666666667 -0.0456 0.11384166666666669 -0.11364375000000002 0.13458333333333336 -0.19653125000000002l1.3818145833333335 -4.490689583333334c0.01270625 -0.05094375000000001 0.013656250000000002 -0.10406458333333335 0.00273125 -0.15540416666666668 -0.010964583333333333 -0.05133958333333334 -0.033447916666666674 -0.09951250000000002 -0.0657875 -0.1408375Zm-2.1722145833333335 0.5580458333333334v1.0363312500000001h-1.0363708333333335v-1.0363312500000001h1.0363708333333335Zm0.34544375000000005 3.544054166666667v-0.7805437500000001h0.2449416666666667l-0.2449416666666667 0.7805437500000001Zm0 -1.1259875v-1.0362916666666666h0.6784583333333334l-0.3252166666666667 1.0362916666666666h-0.3532416666666667Zm-0.34544375000000005 0h-1.0363708333333335v-1.0362916666666666h1.0363708333333335v1.0362916666666666Zm-6.1465000000000005 -1.0362916666666666h0.6192020833333334v1.0362916666666666h-0.31227291666666673l-0.3069291666666667 -1.0362916666666666Zm0.9646854166666667 0h1.0363708333333335v1.0362916666666666h-1.0363708333333335v-1.0362916666666666Zm1.3818145833333335 0h1.0363708333333335v1.0362916666666666h-1.0363708333333335v-1.0362916666666666Zm1.3818145833333335 0h1.0363708333333335v1.0362916666666666h-1.0363708333333335v-1.0362916666666666Zm1.0363708333333335 -1.3817750000000002v1.0363312500000001h-1.0363708333333335v-1.0363312500000001h1.0363708333333335Zm-1.3818145833333335 0v1.0363312500000001h-1.0363708333333335v-1.0363312500000001h1.0363708333333335Zm-1.3818145833333335 0v1.0363312500000001h-1.0363708333333335v-1.0363312500000001h1.0363708333333335Zm-1.3818541666666668 0v1.0363312500000001h-0.7214458333333335l-0.30696875 -1.0363312500000001h1.0284145833333334Zm-0.21002916666666668 2.7635104166666666h0.21002916666666668v0.7088583333333334l-0.21002916666666668 -0.7088583333333334Zm0.5555125000000001 1.0363312500000001v-1.0363312500000001h1.0363708333333335v1.0363312500000001h-1.0363708333333335Zm1.3818145833333335 0v-1.0363312500000001h1.0363708333333335v1.0363312500000001h-1.0363708333333335Zm1.3818145833333335 0v-1.0363312500000001h1.0363708333333335v1.0363312500000001h-1.0363708333333335Zm1.3818145833333335 0v-1.0363312500000001h1.0363708333333335v1.0363312500000001h-1.0363708333333335Zm2.1687708333333338 -2.7635104166666666h-0.78695625v-1.0363312500000001h1.1120145833333335l-0.3250583333333334 1.0363312500000001Z" stroke-width="1"></path><path fill="#df2c2c" d="M4.663470833333333 5.698852083333334c0.18323125 0 0.3589416666666667 -0.07275416666666668 0.4884979166666667 -0.2023104166666667 0.12955625 -0.12955625 0.20235 -0.3052666666666667 0.20235 -0.4884979166666667 0 -0.18319166666666667 -0.07279375 -0.35890208333333334 -0.20235 -0.4884583333333334 -0.12955625 -0.12955625 -0.3052666666666667 -0.20235 -0.4884979166666667 -0.20235s-0.3589416666666667 0.07279375 -0.4884979166666667 0.20235c-0.12955625 0.12955625 -0.20235 0.3052666666666667 -0.20235 0.4884583333333334 0 0.18323125 0.07279375 0.3589416666666667 0.20235 0.4884979166666667 0.12955625 0.12955625 0.3052666666666667 0.2023104166666667 0.4884979166666667 0.2023104166666667Z" stroke-width="1"></path><path fill="#5b5c5f" d="M7.427218750000001 13.644058333333335c-0.18323125 0 -0.35898125000000003 0.07279375 -0.4885375 0.20235 -0.12955625 0.12959583333333335 -0.20235 0.30530625 -0.20235 0.4885375 0 0.1993416666666667 0.08565833333333335 0.37738750000000004 0.22055833333333336 0.5036583333333333l0.9740270833333334 -0.9739875c-0.06428333333333333 -0.06942916666666667 -0.14218333333333336 -0.12484583333333335 -0.22883125 -0.16280625 -0.08668750000000001 -0.037920833333333334 -0.18026250000000002 -0.05759375 -0.2748666666666667 -0.05775208333333334Z" stroke-width="1"></path><path fill="#5b5c5f" d="M12.263629166666668 13.644058333333335c-0.18323125 0 -0.35898125000000003 0.07279375 -0.4885375 0.20235 -0.12959583333333335 0.12959583333333335 -0.20238958333333334 0.30530625 -0.20238958333333334 0.4885375 0 0.1993416666666667 0.08569791666666668 0.37738750000000004 0.2205979166666667 0.5036583333333333l0.9739875 -0.9739875c-0.06424375 -0.06942916666666667 -0.14214375 -0.12484583333333335 -0.22883125 -0.16280625 -0.08664791666666669 -0.037920833333333334 -0.18022291666666668 -0.05759375 -0.2748270833333334 -0.05775208333333334Z" stroke-width="1"></path></svg>