<svg xmlns="http://www.w3.org/2000/svg" fill="none" viewBox="-0.25 -0.25 20 20" id="Mobile-Phone--Streamline-Stickies.svg" height="20" width="20"><desc>Mobile Phone Streamline Icon: https://streamlinehq.com</desc><path fill="#ff52a1" stroke="#231f20" stroke-miterlimit="10" d="M15.946125 1.8915C15.409875 0.429 11.831624999999999 0.24375 9.75 0.24375 7.668375 0.24375 4.090129875 0.429 3.553879875 1.8915c-0.5411250000000001 0.73125 -0.59475 4.63125 -0.59475 7.8585 0 3.22725 0.053625 7.127249999999999 0.59475 7.8585 0.53625 1.4625 4.1144951249999995 1.6477499999999998 6.196120124999999 1.6477499999999998s5.6598749999999995 -0.18525 6.196125 -1.6477499999999998c0.5411250000000001 -0.73125 0.59475 -4.63125 0.59475 -7.8585 0 -3.22725 -0.053625 -7.127249999999999 -0.59475 -7.8585Z" stroke-width="0.5"></path><path fill="#ffffff" stroke="#231f20" stroke-miterlimit="10" d="M13.469624999999999 3.607504875c-0.307125 -0.5752499999999999 -2.471625 -0.648375 -3.7196249999999997 -0.648375 -1.248 0 -3.4125 0.073125 -3.7196249999999997 0.648375 -0.32175 0.28762499999999996 -0.355875 1.818370125 -0.355875 3.0858701249999996 0 1.2675 0.034125 2.79825 0.355875 3.085875 0.326625 0.5752499999999999 2.471625 0.648375 3.7196249999999997 0.648375 1.248 0 3.4125 -0.073125 3.7196249999999997 -0.648375 0.32175 -0.28762499999999996 0.355875 -1.8183749999999999 0.355875 -3.085875s-0.034125 -2.793370125 -0.355875 -3.0858701249999996Z" stroke-width="0.5"></path><path fill="#ffffff" stroke="#231f20" stroke-miterlimit="10" d="M7.541625 12.007124999999998c-0.082875 -0.14625 -0.51675 -0.219375 -0.84825 -0.219375 -0.3315 0 -0.7605 0.073125 -0.84825 0.219375 -0.1237275 0.24769875 -0.1824225 0.5228437499999999 -0.170625 0.7995 -0.0112125 0.27558375 0.049237500000000003 0.5494125 0.1755 0.7946249999999999 0.08775 0.151125 0.521625 0.22425 0.84825 0.22425 0.326625 0 0.765375 -0.073125 0.84825 -0.22425 0.12699375 -0.24482249999999997 0.1859325 -0.51923625 0.170625 -0.7946249999999999 0.01301625 -0.27733874999999997 -0.04753125 -0.5531175 -0.1755 -0.7995Z" stroke-width="0.5"></path><path fill="#ffffff" stroke="#231f20" stroke-miterlimit="10" d="M10.598249999999998 12.007124999999998c-0.082875 -0.14625 -0.521625 -0.219375 -0.84825 -0.219375 -0.326625 0 -0.765375 0.073125 -0.84825 0.219375 -0.1262625 0.24682125 -0.18510374999999998 0.5226000000000001 -0.170625 0.7995 -0.01525875 0.27538874999999996 0.043631249999999996 0.5498025 0.170625 0.7946249999999999 0.082875 0.151125 0.521625 0.22425 0.84825 0.22425 0.326625 0 0.765375 -0.073125 0.84825 -0.22425 0.12699375 -0.24482249999999997 0.1859325 -0.51923625 0.170625 -0.7946249999999999 0.0145275 -0.2769 -0.0443625 -0.55267875 -0.170625 -0.7995Z" stroke-width="0.5"></path><path fill="#ffffff" stroke="#231f20" stroke-miterlimit="10" d="M7.541625 15.405000000000001c-0.082875 -0.151125 -0.51675 -0.22425 -0.84825 -0.22425 -0.3315 0 -0.7605 0.073125 -0.84825 0.22425 -0.12455625 0.2457 -0.18334874999999998 0.51948 -0.170625 0.7946249999999999 -0.010335 0.277095 0.05006625 0.55224 0.1755 0.7995 0.08775 0.14625 0.521625 0.219375 0.84825 0.219375 0.326625 0 0.765375 -0.073125 0.84825 -0.219375 0.1262625 -0.24682125 0.1851525 -0.5226000000000001 0.170625 -0.7995 0.01379625 -0.2758275 -0.04684875 -0.55024125 -0.1755 -0.7946249999999999Z" stroke-width="0.5"></path><path fill="#ffffff" stroke="#231f20" stroke-miterlimit="10" d="M10.598249999999998 15.405000000000001c-0.082875 -0.151125 -0.521625 -0.22425 -0.84825 -0.22425 -0.326625 0 -0.765375 0.073125 -0.84825 0.22425 -0.12699375 0.24482249999999997 -0.18588375 0.51923625 -0.170625 0.7946249999999999 -0.01447875 0.2769 0.0443625 0.55267875 0.170625 0.7995 0.082875 0.14625 0.521625 0.219375 0.84825 0.219375 0.326625 0 0.765375 -0.073125 0.84825 -0.219375 0.1262625 -0.24682125 0.1851525 -0.5226000000000001 0.170625 -0.7995 0.015307499999999998 -0.27538874999999996 -0.043631249999999996 -0.5498025 -0.170625 -0.7946249999999999Z" stroke-width="0.5"></path><path fill="#ffffff" stroke="#231f20" stroke-miterlimit="10" d="M13.65 12.007124999999998c-0.08775 -0.14625 -0.521625 -0.219375 -0.84825 -0.219375 -0.326625 0 -0.765375 0.073125 -0.84825 0.219375 -0.1262625 0.24682125 -0.18510374999999998 0.5226000000000001 -0.170625 0.7995 -0.01525875 0.27538874999999996 0.043631249999999996 0.5498025 0.170625 0.7946249999999999 0.082875 0.151125 0.51675 0.22425 0.84825 0.22425 0.3315 0 0.7605 -0.073125 0.84825 -0.22425 0.124605 -0.2457 0.18334874999999998 -0.51948 0.170625 -0.7946249999999999 0.01184625 -0.27665625 -0.046897499999999995 -0.5518012499999999 -0.170625 -0.7995Z" stroke-width="0.5"></path><path fill="#ffffff" stroke="#231f20" stroke-miterlimit="10" d="M13.65 15.405000000000001c-0.08775 -0.151125 -0.521625 -0.22425 -0.84825 -0.22425 -0.326625 0 -0.765375 0.073125 -0.84825 0.22425 -0.12699375 0.24482249999999997 -0.18588375 0.51923625 -0.170625 0.7946249999999999 -0.01447875 0.2769 0.0443625 0.55267875 0.170625 0.7995 0.082875 0.14625 0.51675 0.219375 0.84825 0.219375 0.3315 0 0.7605 -0.073125 0.84825 -0.219375 0.1237275 -0.24769875 0.18247125 -0.5228437499999999 0.170625 -0.7995 0.01272375 -0.275145 -0.04602 -0.5489249999999999 -0.170625 -0.7946249999999999Z" stroke-width="0.5"></path><path stroke="#ffffff" stroke-linecap="round" stroke-miterlimit="10" d="M12.957749999999999 1.603879875c1.808625 0.414375 1.808625 0.414375 2.223 2.0328749999999998" stroke-width="0.5"></path></svg>