<svg xmlns="http://www.w3.org/2000/svg" fill="none" viewBox="-0.5 -0.5 20 20" id="Glasses--Streamline-Kameleon.svg" height="20" width="20"><desc>Glasses Streamline Icon: https://streamlinehq.com</desc><path fill="#e04f5f" d="M9.5 18.999089583333337c5.24673125 0 9.5 -4.253070833333334 9.5 -9.499525C19 4.253070833333334 14.746731250000002 0 9.5 0S0 4.253070833333334 0 9.499564583333333c0 5.246454166666667 4.253268750000001 9.499525 9.5 9.499525Z" stroke-width="1"></path><path fill="#ffffff" d="M14.922560416666668 8.118066666666667c-0.9032125000000001 -0.45148750000000004 -1.806385416666667 -0.45148750000000004 -2.709597916666667 -0.45148750000000004 -0.6002020833333334 0 -1.1424145833333335 0.1618166666666667 -1.5471145833333335 0.45148750000000004H8.340604166666669c-0.4047 -0.2896708333333334 -0.9469125 -0.45148750000000004 -1.5471145833333335 -0.45148750000000004 -0.9032125000000001 0 -1.806385416666667 0 -2.7097562500000003 0.45148750000000004 -0.3699814583333334 0.18497291666666668 0.42385833333333334 3.612770833333334 2.7097562500000003 3.612770833333334 1.2470729166666668 0 2.2580708333333335 -1.1356458333333335 2.2580708333333335 -2.257991666666667 0 -0.10204583333333334 -0.010370833333333334 -0.1994604166666667 -0.028697916666666667 -0.2929166666666667 -0.03902916666666667 -0.19914375 0.05961250000000001 -0.39983125 0.24114166666666667 -0.49051666666666677 0.15061458333333336 -0.07532708333333334 0.3278291666666667 -0.07532708333333334 0.4784437500000001 0 0.1818854166666667 0.09084375000000001 0.28017083333333337 0.2913729166666667 0.24114166666666667 0.4906750000000001 -0.018327083333333334 0.09345625 -0.028697916666666667 0.19087083333333335 -0.028697916666666667 0.29295625000000003 0 1.12230625 1.0109979166666667 2.2579520833333335 2.2580708333333335 2.2579520833333335 2.28795625 -0.00015833333333333335 3.078514583333334 -3.428470833333334 2.709597916666667 -3.612929166666667Z" stroke-width="1"></path><path fill="#40c9e7" d="M6.696906250000001 11.278993750000001c0.87293125 0 1.5806020833333334 -0.70763125 1.5806020833333334 -1.5805625s-0.7076708333333335 -1.5805625 -1.5806020833333334 -1.5805625c-0.8729708333333335 0 -1.5806416666666667 0.70763125 -1.5806416666666667 1.5805625s0.7076708333333335 1.5805625 1.5806416666666667 1.5805625Z" stroke-width="1"></path><path fill="#40c9e7" d="M12.273168750000002 11.278993750000001c0.87293125 0 1.5806020833333334 -0.70763125 1.5806020833333334 -1.5805625s-0.7076708333333335 -1.5805625 -1.5806020833333334 -1.5805625c-0.8729708333333335 0 -1.5806416666666667 0.70763125 -1.5806416666666667 1.5805625s0.7076708333333335 1.5805625 1.5806416666666667 1.5805625Z" stroke-width="1"></path><path fill="#6fdaf1" d="M7.5644937500000005 8.379197916666667c-0.24905833333333335 -0.16427083333333334 -0.5468437500000001 -0.26132916666666667 -0.8675875000000002 -0.26132916666666667 -0.8729708333333335 0 -1.5806416666666667 0.70763125 -1.5806416666666667 1.5805625 0 0.32090208333333337 0.09705833333333334 0.6184895833333334 0.26132916666666667 0.8677458333333334l2.1869 -2.186979166666667Z" stroke-width="1"></path><path fill="#9ce5f4" d="M13.140954166666669 8.379197916666667c-0.24925625000000004 -0.16427083333333334 -0.5468833333333334 -0.26132916666666667 -0.8677854166666668 -0.26132916666666667 -0.8729708333333335 0 -1.5806416666666667 0.70763125 -1.5806416666666667 1.5805625 0 0.32090208333333337 0.09705833333333334 0.6184895833333334 0.26132916666666667 0.8677458333333334l2.1870979166666666 -2.186979166666667Z" stroke-width="1"></path></svg>