<svg xmlns="http://www.w3.org/2000/svg" fill="none" viewBox="-0.25 -0.25 20 20" id="Checking-Order--Streamline-Stickies.svg" height="20" width="20"><desc>Checking Order Streamline Icon: https://streamlinehq.com</desc><path fill="#ff52a1" stroke="#231f20" stroke-miterlimit="10" d="M17.749875 10.949250000000001c-0.43382625 -0.045239999999999995 -0.871845 -0.03046875 -1.301625 0.043875 -0.219375 -0.316875 -0.4875 -0.6922499999999999 -0.7751250000000001 -1.018875 -0.4331925 -0.5389799999999999 -0.92356875 -1.0293075 -1.4625 -1.4625 -0.1648725 -0.09296625 -0.35485125 -0.13167375 -0.54292875 -0.1106625 -0.18812625 0.02101125 -0.364845 0.10062 -0.50519625 0.22766250000000002 -0.15078375 0.11222249999999999 -0.261495 0.26992875 -0.31594875 0.44986499999999996 -0.054405 0.1798875 -0.04957875 0.3725475 0.013698749999999999 0.5495099999999999 0.32862375 0.60630375 0.7243762499999999 1.173705 1.1797499999999999 1.6916250000000002 -0.599625 0.102375 -1.184625 0.209625 -1.68675 0.312 -0.502125 0.102375 -1.0822500000000002 0.23399999999999999 -1.672125 0.3705 0.21211125 -0.6556875 0.35270625 -1.3323375 0.41925 -2.0182499999999997 -0.0116025 -0.18778499999999998 -0.083265 -0.36684374999999997 -0.20440875 -0.5108025 -0.12114375 -0.14395875 -0.28533375 -0.24516375 -0.46834125 -0.2886975 -0.17730375 -0.06342375 -0.37015875 -0.06873749999999999 -0.55068 -0.015307499999999998 -0.18052125 0.05347875 -0.3393975 0.16297124999999998 -0.45357 0.3126825 -0.322335 0.60854625 -0.5757375 1.25116875 -0.755625 1.915875 -0.121875 0.40462499999999996 -0.238875 0.858 -0.316875 1.23825 -0.42432 0.1083225 -0.83250375 0.27226875 -1.213875 0.4875 -0.6922499999999999 0.5752499999999999 -0.024375 1.95 0.63375 3.12 1.3162500000000001 2.2912500000000002 1.438125 2.7104999999999997 2.3009999999999997 2.9688749999999997 0.511875 0.151125 1.896375 0 3.739125 -0.3705s3.1687499999999997 -0.784875 3.5782499999999997 -1.126125c0.6922499999999999 -0.5752499999999999 0.82875 -0.9993749999999999 0.975 -3.631875 0.102375 -1.70625 0.24862499999999998 -2.8713749999999996 -0.61425 -3.1346249999999998Z" stroke-width="0.5"></path><path stroke="#231f20" stroke-linecap="round" stroke-linejoin="round" d="M9.944999999999999 14.410499999999999c0.27012375 0.94940625 0.59567625 1.88209125 0.975 2.793375" stroke-width="0.5"></path><path stroke="#231f20" stroke-linecap="round" stroke-linejoin="round" d="M15.692624999999998 13.235624999999999c0.11587874999999999 0.9822150000000001 0.17608500000000002 1.9701337499999998 0.180375 2.9591250000000002" stroke-width="0.5"></path><path stroke="#231f20" stroke-linecap="round" stroke-linejoin="round" d="m12.816374999999999 13.8255 0.5898749999999999 2.87625" stroke-width="0.5"></path><path stroke="#ffffff" stroke-linecap="round" stroke-miterlimit="10" d="M17.086875 11.7c0.39975 -0.029249999999999998 0.521625 0 0.433875 1.048125" stroke-width="0.5"></path><path fill="#48eeff" stroke="#231f20" stroke-miterlimit="10" d="M12.21675 6.449625c-0.2385825 -0.70468125 -0.59460375 -1.36397625 -1.053 -1.94999025 -0.41237625 -0.603919875 -0.9213262499999999 -1.1358945 -1.5063749999999998 -1.574625l-0.4875 -0.195c-0.1073475 -0.035660625 -0.22439625 -0.027495 -0.3257475 0.0227175 -0.1013025 0.05021249999999999 -0.17871749999999997 0.138411 -0.2153775 0.24540749999999997 -0.15044249999999998 0.39457762500000004 -0.4289025 0.7272768749999999 -0.7908225 0.9448432499999999 -0.36191999999999996 0.217566375 -0.78638625 0.30742237499999997 -1.2053924999999999 0.255181875 -0.419055 -0.052235624999999994 -0.80847 -0.24355012499999998 -1.10589375 -0.54331875 -0.29742375 -0.29976375 -0.48569625 -0.6906461249999999 -0.53464125 -1.1100813749999998 -0.009945 -0.11212987499999999 -0.06356999999999999 -0.215860125 -0.14928225 -0.288819375 -0.08572687500000001 -0.07295924999999999 -0.19669162499999998 -0.1092975 -0.30896775 -0.10118062500000001 -0.32175 0.029249999999999998 -0.53625 0.058499999999999996 -0.546 0.063375 -0.6805158749999999 0.29065725 -1.3068802499999999 0.6944925000000001 -1.8524999999999998 1.194375 -0.583045125 0.44708625 -1.0900695 0.9853934999999999 -1.5015 1.59411525 -0.219375975 0.3705 0.073125 1.077375 0.4095 1.51125 0.26970449999999996 0.37859249999999994 0.6684599999999999 0.64559625 1.1212499999999999 0.75075 -0.12675 1.51125 -0.195 2.73975 0 3.144375 0.36075 0.73125 2.227875 1.1212499999999999 3.5246250000000003 1.282125 1.29675 0.160875 3.202875 0.24375 3.73425 -0.38025 0.2925 -0.34125 0.5265 -1.5502500000000001 0.7751250000000001 -3.046875 0.46044375 0.00043874999999999996 0.9054825 -0.16579875 1.252875 -0.46799999999999997 0.433875 -0.326625 0.8921250000000001 -0.9359999999999999 0.765375 -1.3503749999999999Z" stroke-width="0.5"></path><path stroke="#231f20" stroke-linecap="round" stroke-miterlimit="10" d="M2.5691249999999997 6.235124999999999c0.059942999999999996 -0.419445 0.16453612499999998 -0.831285 0.312 -1.2285" stroke-width="0.5"></path><path stroke="#231f20" stroke-linecap="round" stroke-miterlimit="10" d="M10.062 7.171125c0.0451425 -0.4212975 0.0451425 -0.8462025 0 -1.2675" stroke-width="0.5"></path><path stroke="#ffffff" stroke-linecap="round" stroke-miterlimit="10" d="M9.589125000000001 3.9c0.2927925 0.258760125 0.55160625 0.55361475 0.77025 0.8775" stroke-width="0.5"></path><path fill="#ffe236" stroke="#231f20" stroke-miterlimit="10" d="M10.9005 1.0822500000000002c0 0.222382875 0.088335 0.43565925 0.2456025 0.59290725 0.15721875 0.15725287500000001 0.3705 0.24559275 0.5928975 0.24559275 0.2223975 0 0.43567875 -0.088339875 0.5928975 -0.24559275 0.1572675 -0.157248 0.2456025 -0.370524375 0.2456025 -0.59290725 0 -0.222382875 -0.088335 -0.43565925 -0.2456025 -0.59290725C12.17467875 0.332091825 11.9613975 0.24375 11.738999999999999 0.24375c-0.2223975 0 -0.43567875 0.08834182499999998 -0.5928975 0.24559275 -0.1572675 0.157248 -0.2456025 0.370524375 -0.2456025 0.59290725Z" stroke-width="0.5"></path><path fill="#ffe236" stroke="#231f20" stroke-miterlimit="10" d="M13.835249999999998 2.75925c0 0.222382875 0.088335 0.43565925 0.2456025 0.5929121249999999 0.15721875 0.157248 0.3705 0.245587875 0.5928975 0.245587875 0.2223975 0 0.43567875 -0.088339875 0.5928975 -0.245587875 0.1572675 -0.15725287500000001 0.2456025 -0.37052925 0.2456025 -0.5929121249999999 0 -0.222382875 -0.088335 -0.43565925 -0.2456025 -0.59290725 -0.15721875 -0.157248 -0.3705 -0.24559275 -0.5928975 -0.24559275 -0.2223975 0 -0.43567875 0.08834475 -0.5928975 0.24559275 -0.1572675 0.157248 -0.2456025 0.370524375 -0.2456025 0.59290725Z" stroke-width="0.5"></path><path fill="#ffe236" stroke="#231f20" stroke-miterlimit="10" d="M17.8425 3.485639625c-0.4140825 0.5161065 -0.7796099999999999 1.0693263750000002 -1.092 1.6526103749999999l-0.2925 0.53625c-0.35343749999999996 -0.22098374999999998 -0.73344375 -0.39624 -1.131 -0.521625 -0.23399999999999999 -0.053625 -0.43875 0.219375 -0.5655 0.4485 -0.12675 0.229125 -0.2535 0.546 -0.082875 0.716625 0.31799625 0.27002624999999997 0.6684599999999999 0.4992975 1.04325 0.6825 0.3436875 0.238485 0.7264725 0.41500875 1.131 0.521625 0.3315 0.078 0.4875 -0.326625 1.2333749999999999 -1.642875 0.329745 -0.5745187500000001 0.60552375 -1.17833625 0.8238749999999999 -1.80374025 0.0250575 -0.0659295 0.036855 -0.13615875 0.03475875 -0.206656125 -0.002145 -0.07050225 -0.018135 -0.139893 -0.047141249999999996 -0.204199125 -0.0289575 -0.06430124999999999 -0.07034625 -0.12225525 -0.1217775 -0.170542125 -0.05143125 -0.048286875 -0.11183249999999999 -0.085956 -0.17784 -0.11084775 -0.1139775 -0.086126625 -0.25735125000000003 -0.12369825000000001 -0.39892125 -0.10452 -0.14152125 0.01917825 -0.2697825 0.09355124999999999 -0.35670375 0.206895Z" stroke-width="0.5"></path></svg>