<svg xmlns="http://www.w3.org/2000/svg" fill="none" viewBox="-0.5 -0.5 20 20" id="Pencil-Ruler-2--Streamline-Kameleon.svg" height="20" width="20"><desc>Pencil Ruler 2 Streamline Icon: https://streamlinehq.com</desc><path fill="#92de46" d="M9.500633333333335 19.000475c5.246889583333334 0 9.5002375 -4.253347916666667 9.5002375 -9.5002375C19.000870833333337 4.253347916666667 14.747522916666668 0 9.500633333333335 0 4.25374375 0 0.0003865557916666667 4.253347916666667 0.0003865557916666667 9.5002375 0.0003865557916666667 14.747127083333334 4.25374375 19.000475 9.500633333333335 19.000475Z" stroke-width="1"></path><path fill="#000000" d="M12.264341666666667 3.9730187500000005h-2.0727812500000002v11.054833333333335h4.1455625000000005v-11.054833333333335h-2.0727812500000002Z" stroke-width="1"></path><path fill="#000000" d="M8.778712500000001 13.645997916666667c-0.1537416666666667 0.78766875 -0.8463708333333334 1.3818541666666668 -1.6789270833333336 1.3818541666666668h-0.034556250000000004c-0.8325562500000001 0 -1.5252250000000003 -0.5941854166666668 -1.678966666666667 -1.3818541666666668h3.39245Z" stroke-width="1"></path><path fill="#ffffff" d="M8.809587500000001 12.95503125v0.3627416666666667c0 0.11225833333333335 -0.010370833333333334 0.22111250000000002 -0.03107291666666667 0.3281854166666667h-3.39245c-0.020860416666666666 -0.10814166666666668 -0.03127083333333334 -0.218025 -0.031112500000000005 -0.3281854166666667v-0.3627416666666667h3.4546354166666666Z" stroke-width="1"></path><path fill="#000000" d="M7.94591875 6.909587500000001c-0.4767416666666667 0 -0.8636291666666668 -0.38692708333333337 -0.8636291666666668 -0.8636687500000001 0 0.4767416666666667 -0.38692708333333337 0.8636687500000001 -0.8636687500000001 0.8636687500000001 -0.4767416666666667 0 -0.8636687500000001 -0.38692708333333337 -0.8636687500000001 -0.8636687500000001v6.909270833333333h3.4546354166666666v-6.909270833333333c0 0.4767416666666667 -0.38692708333333337 0.8636687500000001 -0.8636687500000001 0.8636687500000001Z" stroke-width="1"></path><path fill="#ffffff" d="M6.218620833333334 6.909429166666667c0.4767416666666667 0 0.8636687500000001 -0.38692708333333337 0.8636687500000001 -0.8636687500000001 0 0.4767416666666667 0.38688750000000005 0.8636687500000001 0.8636291666666668 0.8636687500000001s0.8636687500000001 -0.38692708333333337 0.8636687500000001 -0.8636687500000001l-0.9534833333333333 -1.1451854166666668c-0.21640208333333333 0.18255833333333335 -0.4906750000000001 0.2823479166666667 -0.7738145833333334 0.28155625000000006 -0.29537083333333336 0 -0.5648541666666668 -0.10537083333333334 -0.7738541666666667 -0.28155625000000006l-0.9534833333333333 1.1451854166666668c0 0.4767416666666667 0.38692708333333337 0.8636687500000001 0.8636687500000001 0.8636687500000001Z" stroke-width="1"></path><path fill="#000000" d="M7.855866666666667 4.900377083333334c-0.2163625 0.18251875 -0.4905562500000001 0.28226875 -0.7736166666666667 0.2814770833333333 -0.2952916666666667 0 -0.5646958333333334 -0.10537083333333334 -0.77365625 -0.2814770833333333l0.77365625 -0.9273583333333334 0.7736166666666667 0.9273583333333334Z" stroke-width="1"></path><path fill="#ffffff" d="M10.882645833333333 13.99120416666667h-0.6910854166666668v0.3455229166666667h0.6910854166666668v-0.3455229166666667Z" stroke-width="1"></path><path fill="#ffffff" d="M10.882645833333333 12.95503125h-0.6910854166666668v0.34556250000000005h0.6910854166666668v-0.34556250000000005Z" stroke-width="1"></path><path fill="#ffffff" d="M11.22769375 11.918502083333335h-1.0361333333333334v0.34536458333333336h1.0361333333333334v-0.34536458333333336Z" stroke-width="1"></path><path fill="#ffffff" d="M10.882645833333333 10.882131250000002h-0.6910854166666668v0.3455229166666667h0.6910854166666668v-0.3455229166666667Z" stroke-width="1"></path><path fill="#ffffff" d="M10.882645833333333 9.845760416666668h-0.6910854166666668v0.34556250000000005h0.6910854166666668v-0.34556250000000005Z" stroke-width="1"></path><path fill="#ffffff" d="M11.22769375 8.809429166666668h-1.0361333333333334v0.34536458333333336h1.0361333333333334v-0.34536458333333336Z" stroke-width="1"></path><path fill="#ffffff" d="M10.882645833333333 7.772860416666668h-0.6910854166666668v0.34556250000000005h0.6910854166666668v-0.34556250000000005Z" stroke-width="1"></path><path fill="#ffffff" d="M10.882645833333333 6.7366875h-0.6910854166666668v0.34556250000000005h0.6910854166666668v-0.34556250000000005Z" stroke-width="1"></path><path fill="#ffffff" d="M11.22769375 5.7003562500000005h-1.0361333333333334v0.34536458333333336h1.0361333333333334v-0.34536458333333336Z" stroke-width="1"></path><path fill="#ffffff" d="M10.882645833333333 4.663787500000001h-0.6910854166666668v0.34556250000000005h0.6910854166666668v-0.34556250000000005Z" stroke-width="1"></path></svg>