<svg xmlns="http://www.w3.org/2000/svg" fill="none" viewBox="-0.5 -0.5 20 20" id="Joystick--Streamline-Kameleon.svg" height="20" width="20"><desc>Joystick Streamline Icon: https://streamlinehq.com</desc><path fill="#25b7d3" d="M9.5 18.999089583333337c5.2467708333333345 0 9.5 -4.25303125 9.5 -9.499525C19 4.25303125 14.746770833333336 0 9.5 0S0 4.25303125 0 9.499564583333333c0 5.246493750000001 4.253229166666666 9.499525 9.5 9.499525Z" stroke-width="1"></path><path fill="#ffffff" d="M9.499920833333334 7.427060416666668c-0.23781666666666668 0.00003958333333333334 -0.4730604166666667 -0.04924166666666667 -0.6908875000000001 -0.14471666666666666v2.39008125h1.3818145833333335v-2.39008125c-0.21782708333333337 0.095475 -0.4530708333333334 0.14475625000000003 -0.6909270833333334 0.14471666666666666Z" stroke-width="1"></path><path fill="#df2c2c" d="M14.336410416666668 15.026664583333334c-0.08518333333333335 -0.20464583333333336 -0.22906875000000002 -0.3794854166666667 -0.4135270833333334 -0.5025104166666667 -0.18441875000000002 -0.12298541666666667 -0.4011375000000001 -0.18861458333333334 -0.62284375 -0.18861458333333334 -0.2216666666666667 0 -0.438425 0.06562916666666667 -0.62284375 0.18861458333333334 -0.18445833333333336 0.12302500000000002 -0.32830416666666673 0.2978645833333333 -0.4135270833333334 0.5025104166666667h2.072741666666667Z" stroke-width="1"></path><path fill="#df2c2c" d="M7.081893750000002 10.363272916666668h-2.0727020833333336v-0.34544375000000005c0 -0.09159583333333333 0.03637708333333334 -0.17947083333333336 0.101175 -0.2442291666666667 0.06479791666666668 -0.06479791666666668 0.15267291666666669 -0.10121458333333333 0.24426875 -0.10121458333333333h1.3818145833333335c0.09163541666666668 0 0.1795104166666667 0.03641666666666667 0.24426875 0.10121458333333333 0.06479791666666668 0.06475833333333333 0.101175 0.15263333333333334 0.101175 0.2442291666666667v0.34544375000000005Z" stroke-width="1"></path><path fill="#3e3e3f" d="M14.681735416666667 10.363272916666668h-3.45455625v-0.17270208333333337c0 -0.13743333333333335 -0.05458541666666667 -0.26924583333333335 -0.15176250000000002 -0.36638333333333334 -0.09717708333333334 -0.09717708333333334 -0.22898958333333336 -0.15180208333333334 -0.3664229166666667 -0.15180208333333334h-2.4181854166666668c-0.13743333333333335 0 -0.26920625000000004 0.05462500000000001 -0.36638333333333334 0.15180208333333334 -0.09717708333333334 0.09713750000000002 -0.15180208333333334 0.22895000000000004 -0.15180208333333334 0.36638333333333334v0.17270208333333337h-3.454516666666667c-0.09163541666666668 0 -0.1795104166666667 0.03641666666666667 -0.24430833333333335 0.101175 -0.06475833333333333 0.06479791666666668 -0.101175 0.15267291666666669 -0.101175 0.24426875v3.28165625c0 0.09163541666666668 0.03641666666666667 0.17947083333333336 0.101175 0.24426875 0.06479791666666668 0.06479791666666668 0.15267291666666669 0.101175 0.24430833333333335 0.101175h10.363629166666668c0.09159583333333333 0 0.17947083333333336 -0.03637708333333334 0.24426875 -0.101175 0.06479791666666668 -0.06479791666666668 0.101175 -0.15263333333333334 0.101175 -0.24426875v-3.28165625c0 -0.09159583333333333 -0.03637708333333334 -0.17947083333333336 -0.101175 -0.24426875 -0.06479791666666668 -0.06475833333333333 -0.15267291666666669 -0.101175 -0.24426875 -0.101175Z" stroke-width="1"></path><path fill="#df2c2c" d="M9.499960416666667 7.427100000000001c0.9539583333333335 0 1.7272583333333336 -0.7732604166666668 1.7272583333333336 -1.727179166666667 0 -0.95391875 -0.7733000000000001 -1.727179166666667 -1.7272583333333336 -1.727179166666667 -0.9539979166666667 0 -1.7272979166666667 0.7732604166666668 -1.7272979166666667 1.727179166666667 0 0.95391875 0.7733000000000001 1.727179166666667 1.7272979166666667 1.727179166666667Z" stroke-width="1"></path><path fill="#df2c2c" d="M7.081893750000002 15.026664583333334c-0.08518333333333335 -0.20464583333333336 -0.22906875000000002 -0.3794854166666667 -0.4134875 -0.5025104166666667 -0.18441875000000002 -0.12298541666666667 -0.4011770833333334 -0.18861458333333334 -0.62284375 -0.18861458333333334 -0.22170625000000005 0 -0.438425 0.06562916666666667 -0.6228833333333335 0.18861458333333334 -0.18441875000000002 0.12302500000000002 -0.32830416666666673 0.2978645833333333 -0.4134875 0.5025104166666667h2.0727020833333336Z" stroke-width="1"></path><path fill="#fa5655" d="M6.045562500000001 14.335895833333334c-0.2216666666666667 0 -0.4383854166666667 0.06558958333333334 -0.6228041666666667 0.18853541666666668s-0.32834375000000005 0.2977458333333334 -0.4135666666666667 0.5023520833333334h1.0363708333333335V14.335895833333334Z" stroke-width="1"></path><path fill="#fa5655" d="M13.300039583333334 14.335895833333334c-0.2216666666666667 0 -0.4383458333333333 0.06558958333333334 -0.6228041666666667 0.18853541666666668 -0.18441875000000002 0.12294583333333334 -0.32830416666666673 0.2977458333333334 -0.4135666666666667 0.5023520833333334h1.0363708333333335V14.335895833333334Z" stroke-width="1"></path><path fill="#5b5c5f" d="M9.499920833333334 9.672385416666668h-1.2091125000000003c-0.13743333333333335 0 -0.26920625000000004 0.05462500000000001 -0.36638333333333334 0.15180208333333334 -0.09717708333333334 0.09713750000000002 -0.15180208333333334 0.22895000000000004 -0.15180208333333334 0.36638333333333334v0.17270208333333337h-3.454516666666667c-0.09163541666666668 0 -0.1795104166666667 0.03641666666666667 -0.24430833333333335 0.101175 -0.06475833333333333 0.06479791666666668 -0.101175 0.15267291666666669 -0.101175 0.24426875v3.28165625c0 0.09163541666666668 0.03641666666666667 0.17947083333333336 0.101175 0.24426875 0.06479791666666668 0.06479791666666668 0.15267291666666669 0.101175 0.24430833333333335 0.101175h5.181814583333334V9.672385416666668Z" stroke-width="1"></path><path fill="#fa5655" d="M7.7726625 5.699920833333334c0 0.95391875 0.7733000000000001 1.727179166666667 1.7272979166666667 1.727179166666667v-3.454358333333334c-0.9539979166666667 0 -1.7272979166666667 0.7732604166666668 -1.7272979166666667 1.727179166666667Z" stroke-width="1"></path></svg>