<svg xmlns="http://www.w3.org/2000/svg" fill="none" viewBox="-0.5 -0.5 20 20" id="Play--Streamline-Kameleon.svg" height="40px" width="40px"><desc>Play Streamline Icon: https://streamlinehq.com</desc><path fill="#25b7d3" d="M9.5 18.999089583333337c5.2467708333333345 0 9.5 -4.25303125 9.5 -9.499525C19 4.25303125 14.746770833333336 0 9.5 0S0 4.25303125 0 9.499564583333333c0 5.246493750000001 4.253229166666666 9.499525 9.5 9.499525Z" stroke-width="1"></path><path fill="#f0f1f1" d="M14.4145875 13.747014583333335c-0.021770833333333336 0.07049791666666667 -0.06555000000000001 0.1321291666666667 -0.12492500000000001 0.17590833333333336 -0.059375000000000004 0.043818750000000004 -0.13117916666666668 0.06745000000000001 -0.20496250000000005 0.06745000000000001H4.9153c-0.07378333333333334 0 -0.14562708333333335 -0.023631250000000003 -0.20500208333333336 -0.06741041666666668 -0.059375000000000004 -0.043779166666666675 -0.10315416666666667 -0.10545000000000002 -0.12492500000000001 -0.17594791666666668 -0.8169881250000001 -2.6391395833333338 -0.8169881250000001 -5.855325000000001 0 -8.4946625 0.02181041666666667 -0.07045833333333333 0.06558958333333334 -0.1321291666666667 0.12496458333333334 -0.17590833333333336 0.059375000000000004 -0.043779166666666675 0.13117916666666668 -0.06741041666666668 0.20496250000000005 -0.06745000000000001h9.169400000000001c0.15148541666666668 0 0.2851583333333334 0.09860208333333334 0.32988750000000006 0.24335833333333337 0.8168416666666668 2.6393375000000003 0.8168416666666668 5.855364583333334 0 8.4946625Z" stroke-width="1"></path><path fill="#f37a10" d="M9.499960416666667 12.262956250000002c1.5263729166666669 0 2.763629166666667 -1.2372166666666669 2.763629166666667 -2.7635104166666666 0 -1.5263333333333333 -1.2372562500000002 -2.7635104166666666 -2.763629166666667 -2.7635104166666666 -1.5264125000000002 0 -2.763629166666667 1.2371770833333335 -2.763629166666667 2.7635104166666666 0 1.5262937500000002 1.2372166666666669 2.7635104166666666 2.763629166666667 2.7635104166666666Z" stroke-width="1"></path><path fill="#ffffff" d="m8.463629166666667 8.118066666666667 2.7636687500000003 1.3817354166666667 -2.7636687500000003 1.3817750000000002v-2.7635104166666666Z" stroke-width="1"></path><path fill="#ffffff" d="M6.736370833333334 9.499683333333333c0 -1.526135416666667 1.2374145833333334 -2.7635104166666666 2.763629166666667 -2.7635104166666666 0.6917583333333334 0 1.3225583333333335 0.25582708333333337 1.80725625 0.6758458333333334l2.4031437500000004 -2.4030250000000004H4.9153c-0.07378333333333334 0.00003958333333333334 -0.1455875 0.023670833333333335 -0.20496250000000005 0.06745000000000001 -0.059375000000000004 0.043779166666666675 -0.10315416666666667 0.10545000000000002 -0.12496458333333334 0.17590833333333336 -0.8169881250000001 2.6391395833333338 -0.8169881250000001 5.855364583333334 0 8.4946625 0.029014583333333337 0.09361458333333333 0.09709791666666667 0.16442916666666668 0.18137083333333334 0.20520000000000002l2.6455125 -2.645354166666667c-0.4361687500000001 -0.5010062500000001 -0.6762416666666667 -1.1429291666666668 -0.6758854166666667 -1.8071770833333336Z" stroke-width="1"></path><path fill="#f99134" d="M6.736331250000001 9.499445833333334c0 0.69171875 0.2559854166666667 1.3225187500000002 0.6758854166666667 1.8071375000000003l1.0513729166666668 -1.0513333333333335v-2.137579166666667l1.4251583333333335 0.7125000000000001 1.4184687500000002 -1.4183895833333335c-0.5010062500000001 -0.4361687500000001 -1.14296875 -0.6762416666666667 -1.80725625 -0.6758458333333334 -1.5264125000000002 0 -2.763629166666667 1.2373750000000001 -2.763629166666667 2.7635104166666666Z" stroke-width="1"></path></svg>