<svg xmlns="http://www.w3.org/2000/svg" fill="none" viewBox="-0.5 -0.5 20 20" id="Castle--Streamline-Kameleon.svg" height="40px" width="40px"><desc>Castle Streamline Icon: https://streamlinehq.com</desc><path fill="#32bea6" d="M9.5 18.998218750000003c5.24673125 0 9.5 -4.253070833333334 9.5 -9.499525C19 4.2522 14.746731250000002 -0.0008697527083333334 9.5 -0.0008697527083333334S0 4.2522 0 9.498693750000001c0 5.246454166666667 4.253268750000001 9.499525 9.5 9.499525Z" stroke-width="1"></path><path fill="#e2e4e5" d="M12.090887500000001 10.707885416666668v0.6908875000000001h0.8636291666666668v-3.2816958333333335h-1.3818145833333335v2.590808333333334h0.5181854166666667Z" stroke-width="1"></path><path fill="#e2e4e5" d="M8.809152083333334 11.398654166666669v-0.6908479166666668h1.3818145833333335v0.6908479166666668h0.17274166666666668V6.7352625h-1.7272583333333336v4.6633916666666675h0.17270208333333337Z" stroke-width="1"></path><path fill="#e2e4e5" d="M6.909191666666667 11.398772916666669v-0.6908875000000001h0.5181854166666667v-2.590808333333334h-1.3818541666666668v3.2816958333333335h0.8636687500000001Z" stroke-width="1"></path><path fill="#ffffff" d="M12.090887500000001 11.398970833333335V10.708083333333335h-1.2091125000000003v0.6908875000000001h-0.6908875000000001V10.708083333333335h-1.3818145833333335v0.6908875000000001h-0.5181854166666667V10.708083333333335h-1.3818145833333335v0.6908875000000001h-2.2454833333333335v3.6271000000000004h9.672741666666667v-3.6271000000000004h-2.24544375Z" stroke-width="1"></path><path fill="#f0f1f1" d="M6.719350000000001 10.362204166666668h-2.7294291666666672c0.08724166666666668 0.8955729166666668 0.5010854166666667 1.0363312500000001 0.5010854166666667 1.0363312500000001l-0.5181854166666667 3.6271000000000004h2.763629166666667l-0.5181854166666667 -3.6271000000000004s0.4138833333333334 -0.14075833333333335 0.5010854166666667 -1.0363312500000001Z" stroke-width="1"></path><path fill="#ffffff" d="M15.010237500000002 10.362204166666668h-2.72946875c0.08724166666666668 0.8955729166666668 0.5010854166666667 1.0363312500000001 0.5010854166666667 1.0363312500000001l-0.5181854166666667 3.6271000000000004h2.7636687500000003l-0.5181854166666667 -3.6271000000000004s0.41384375000000007 -0.14075833333333335 0.5010854166666667 -1.0363312500000001Z" stroke-width="1"></path><path fill="#facb1b" d="m12.436489583333335 5.353527083333334 1.2090729166666667 0.34540416666666673 -1.2090729166666667 0.34544375000000005v-0.6908479166666668Z" stroke-width="1"></path><path fill="#84462d" d="M10.190729166666667 14.162283333333333c0 -0.3815041666666667 -0.30934375000000003 -0.6908083333333335 -0.6908479166666668 -0.6908083333333335 -0.38154375 0 -0.6908479166666668 0.3093041666666667 -0.6908479166666668 0.6908083333333335v0.8635104166666668h1.3816958333333336v-0.8635104166666668Z" stroke-width="1"></path><path fill="#84462d" d="m9.500039583333335 5.526268750000001 0.17262291666666668 0.15112916666666668v-1.5327458333333335h-0.34524583333333336v1.5327458333333335l0.17262291666666668 -0.15112916666666668Z" stroke-width="1"></path><path fill="#df2c2c" d="M8.118264583333334 6.735341666666667h2.763629166666667l-1.3818145833333335 -1.2090333333333334 -1.3818145833333335 1.2090333333333334Z" stroke-width="1"></path><path fill="#facb1b" d="m9.67278125 4.144652083333334 2.9363708333333336 0.5181458333333333 -2.9363708333333336 0.34544375000000005v-0.8635895833333335Z" stroke-width="1"></path><path fill="#84462d" d="m6.736370833333334 6.735143750000001 0.17262291666666668 0.19736250000000002v-1.5789791666666668h-0.3452854166666667v1.5543187500000002l0.1726625 -0.17270208333333337Z" stroke-width="1"></path><path fill="#df2c2c" d="M5.354556250000001 8.116997916666667h2.7636687500000003l-1.3818145833333335 -1.3817354166666667 -1.3818541666666668 1.3817354166666667Z" stroke-width="1"></path><path fill="#facb1b" d="m6.9091125 5.353527083333334 1.2090729166666667 0.34540416666666673 -1.2090729166666667 0.34544375000000005v-0.6908479166666668Z" stroke-width="1"></path><path fill="#84462d" d="m12.263510416666668 6.735143750000001 0.1726625 0.17270208333333337v-1.5543187500000002h-0.3452854166666667v1.5543187500000002l0.17262291666666668 -0.17270208333333337Z" stroke-width="1"></path><path fill="#df2c2c" d="M10.881735416666668 8.116997916666667h2.763629166666667l-1.3818145833333335 -1.3817354166666667 -1.3818145833333335 1.3817354166666667Z" stroke-width="1"></path><path fill="#6a6a6b" d="M9.845641666666667 7.771712500000001c0 -0.19087083333333335 -0.1546125 -0.34548333333333336 -0.3455229166666667 -0.34548333333333336 -0.19087083333333335 0 -0.3455229166666667 0.1546125 -0.3455229166666667 0.34548333333333336v0.3455229166666667h0.6910458333333334v-0.3455229166666667Z" stroke-width="1"></path><path fill="#ffffff" d="M5.354635416666667 15.025635416666667V10.362204166666668h-1.3647145833333336c0.08724166666666668 0.8955729166666668 0.5010854166666667 1.0363312500000001 0.5010854166666667 1.0363312500000001l-0.5181854166666667 3.6271000000000004h1.3818145833333335Z" stroke-width="1"></path><path fill="#f0f1f1" d="M13.645483333333335 15.025635416666667V10.362204166666668h-1.3647145833333336c0.08724166666666668 0.8955729166666668 0.5010854166666667 1.0363312500000001 0.5010854166666667 1.0363312500000001l-0.5181854166666667 3.6271000000000004h1.3818145833333335Z" stroke-width="1"></path><path fill="#c7cbcc" d="M5.786331250000001 12.694097916666667c0 -0.04765833333333334 -0.03867291666666667 -0.08633125 -0.08633125 -0.08633125h-0.25907291666666665v-0.6044770833333334c0 -0.04765833333333334 -0.038712500000000004 -0.08633125 -0.08637083333333334 -0.08633125 -0.04765833333333334 0 -0.08633125 0.03867291666666667 -0.08633125 0.08633125v0.6044770833333334h-0.25907291666666665c-0.04765833333333334 0 -0.08637083333333334 0.03867291666666667 -0.08637083333333334 0.08633125s0.038712500000000004 0.08637083333333334 0.08637083333333334 0.08637083333333334h0.25907291666666665v0.6044375000000001c0 0.04765833333333334 0.03867291666666667 0.08637083333333334 0.08633125 0.08637083333333334s0.08637083333333334 -0.038712500000000004 0.08637083333333334 -0.08637083333333334v-0.6044375000000001H5.700000000000001c0.04765833333333334 0 0.08633125 -0.038712500000000004 0.08633125 -0.08637083333333334Z" stroke-width="1"></path><path fill="#c7cbcc" d="M13.990847916666668 12.607766666666667h-0.25907291666666665v-0.6044770833333334c0 -0.04765833333333334 -0.03867291666666667 -0.08633125 -0.08637083333333334 -0.08633125 -0.04765833333333334 0 -0.08633125 0.03867291666666667 -0.08633125 0.08633125v0.6044770833333334H13.300000000000002c-0.04765833333333334 0 -0.08637083333333334 0.03867291666666667 -0.08637083333333334 0.08633125s0.038712500000000004 0.08637083333333334 0.08637083333333334 0.08637083333333334h0.25907291666666665v0.6044375000000001c0 0.04765833333333334 0.03867291666666667 0.08637083333333334 0.08633125 0.08637083333333334 0.047697916666666666 0 0.08637083333333334 -0.038712500000000004 0.08637083333333334 -0.08637083333333334v-0.6044375000000001h0.25907291666666665c0.04765833333333334 0 0.08633125 -0.038712500000000004 0.08633125 -0.08637083333333334 0 -0.04765833333333334 -0.03867291666666667 -0.08633125 -0.08633125 -0.08633125Z" stroke-width="1"></path><path fill="#6a6a6b" d="M12.609350000000001 8.808004166666667c0 -0.1909104166666667 -0.1546125 -0.3455229166666667 -0.3455229166666667 -0.3455229166666667s-0.3455229166666667 0.1546125 -0.3455229166666667 0.3455229166666667v0.34548333333333336h0.6910458333333334v-0.34548333333333336Z" stroke-width="1"></path><path fill="#6a6a6b" d="M7.081972916666667 8.808004166666667c0 -0.1909104166666667 -0.1546125 -0.3455229166666667 -0.3455229166666667 -0.3455229166666667s-0.3455229166666667 0.1546125 -0.3455229166666667 0.3455229166666667v0.34548333333333336h0.6910458333333334v-0.34548333333333336Z" stroke-width="1"></path><path fill="#fa5655" d="m9.499920833333334 5.526308333333334 -1.38165625 1.2089145833333335h1.38165625v-1.2089145833333335Z" stroke-width="1"></path><path fill="#fa5655" d="m6.736252083333334 6.7352625 -1.3816958333333336 1.381616666666667h1.3816958333333336v-1.381616666666667Z" stroke-width="1"></path><path fill="#fa5655" d="m12.263431250000002 6.7352625 -1.3816958333333336 1.381616666666667h1.3816958333333336v-1.381616666666667Z" stroke-width="1"></path></svg>