<?xml version="1.0" encoding="iso-8859-1"?>
<!-- Uploaded to: SVG Repo, www.svgrepo.com, Generator: SVG Repo Mixer Tools -->
<svg height="40px" width="40px" version="1.1" id="Layer_1" xmlns="http://www.w3.org/2000/svg" xmlns:xlink="http://www.w3.org/1999/xlink" 
	 viewBox="0 0 512 512" xml:space="preserve">
<g>
	<path style="fill:#FFFFFF;" d="M294.332,132.741c0-20.912-17.009-37.926-37.926-37.926s-37.926,17.014-37.926,37.926
		s17.009,37.926,37.926,37.926S294.332,153.653,294.332,132.741z"/>
</g>
<path style="fill:#D0E8FF;" d="M398.628,161.185c0-78.421-63.796-142.222-142.222-142.222S114.184,82.764,114.184,161.185
	c0,69.13,112.805,199.574,142.222,232.412C285.823,360.759,398.628,230.315,398.628,161.185z M199.517,132.741
	c0-31.37,25.518-56.889,56.889-56.889s56.889,25.518,56.889,56.889s-25.518,56.889-56.889,56.889S199.517,164.111,199.517,132.741z"
	/>
</svg>