<?xml version="1.0" encoding="iso-8859-1"?>
<!-- Uploaded to: SVG Repo, www.svgrepo.com, Generator: SVG Repo Mixer Tools -->
<svg height="20px" width="20px" version="1.1" id="Layer_1" xmlns="http://www.w3.org/2000/svg" xmlns:xlink="http://www.w3.org/1999/xlink" 
	 viewBox="0 0 512 512" xml:space="preserve">
<g>
	<path style="fill:#FFFFFF;" d="M294.332,132.741c0-20.912-17.009-37.926-37.926-37.926s-37.926,17.014-37.926,37.926
		s17.009,37.926,37.926,37.926S294.332,153.653,294.332,132.741z"/>
	<path style="fill:#FFFFFF;" d="M256.406,417.185c-2.63,0-5.139-1.092-6.935-3.018c-1.915-2.056-16.971-18.313-36.951-42.308
		c-67.027,6.458-98.336,25.113-98.336,35.845c0,15.463,55.407,37.926,142.222,37.926s142.222-22.463,142.222-37.926
		c0-10.625-31.195-29.366-98.167-35.857c-0.046-0.005-0.082-0.034-0.127-0.039c-20.001,24.025-35.076,40.303-36.993,42.359
		C261.545,416.093,259.036,417.185,256.406,417.185z"/>
</g>
<path style="fill:#D0E8FF;" d="M398.628,161.185c0-78.421-63.796-142.222-142.222-142.222S114.184,82.764,114.184,161.185
	c0,69.13,112.805,199.574,142.222,232.412C285.823,360.759,398.628,230.315,398.628,161.185z M199.517,132.741
	c0-31.37,25.518-56.889,56.889-56.889s56.889,25.518,56.889,56.889s-25.518,56.889-56.889,56.889S199.517,164.111,199.517,132.741z"
	/>
<path style="fill:#FFFFFF;" d="M319.554,352.079c-0.907-0.106-1.695-0.478-2.497-0.815c-0.825,1.036-1.658,2.094-2.474,3.111
	c51.859,6.623,103.008,23.567,103.008,53.329c0,37.347-81.083,56.889-161.185,56.889S95.221,445.051,95.221,407.703
	c0-29.794,50.821-46.667,103.017-53.317c-0.69-0.861-1.395-1.755-2.091-2.627c-85.189,9.458-146.981,38.451-146.981,69.005
	c0,34.185,85.111,72.273,207.241,72.273s207.241-38.088,207.241-72.273C463.647,390.727,403.045,361.842,319.554,352.079z"/>
<g>
	<path style="fill:#1C71DA;" d="M330.235,334.384c41.678-54.472,87.356-125.12,87.356-173.199C417.591,72.306,345.286,0,256.406,0
		S95.221,72.306,95.221,161.185c0,48.076,45.673,118.719,87.348,173.19c-92.927,12.362-152.367,45.711-152.367,86.389
		c0,51.162,99.361,91.236,226.204,91.236s226.204-40.074,226.204-91.236C482.61,380.258,423.048,346.775,330.235,334.384z
		 M300.462,371.847c66.972,6.491,98.167,25.231,98.167,35.857c0,15.463-55.407,37.926-142.222,37.926
		s-142.222-22.463-142.222-37.926c0-10.731,31.309-29.387,98.336-35.845c19.98,23.995,35.035,40.252,36.951,42.308
		c1.796,1.926,4.306,3.018,6.935,3.018c2.63,0,5.139-1.093,6.935-3.018c1.917-2.056,16.992-18.333,36.993-42.359
		C300.38,371.814,300.415,371.843,300.462,371.847z M256.406,18.963c78.426,0,142.222,63.801,142.222,142.222
		c0,69.13-112.805,199.574-142.222,232.412c-29.417-32.838-142.222-163.283-142.222-232.412
		C114.184,82.764,177.98,18.963,256.406,18.963z M256.406,493.037c-122.13,0-207.241-38.088-207.241-72.273
		c0-30.553,61.792-59.546,146.981-69.005c0.696,0.873,1.401,1.766,2.091,2.627c-52.196,6.651-103.017,23.523-103.017,53.317
		c0,37.347,81.083,56.889,161.185,56.889s161.185-19.542,161.185-56.889c0-29.762-51.149-46.706-103.008-53.329
		c0.816-1.017,1.649-2.075,2.474-3.111c0.802,0.337,1.59,0.708,2.497,0.815c83.491,9.764,144.093,38.648,144.093,68.685
		C463.647,454.949,378.536,493.037,256.406,493.037z"/>
	<path style="fill:#1C71DA;" d="M313.295,132.741c0-31.37-25.518-56.889-56.889-56.889s-56.889,25.518-56.889,56.889
		s25.518,56.889,56.889,56.889S313.295,164.111,313.295,132.741z M218.48,132.741c0-20.912,17.009-37.926,37.926-37.926
		s37.926,17.014,37.926,37.926s-17.009,37.926-37.926,37.926S218.48,153.653,218.48,132.741z"/>
</g>
<g>
	<path style="fill:#FF5D5D;" d="M20.589,64c-2.426,0-4.852-0.926-6.704-2.777c-3.704-3.704-3.704-9.707,0-13.41l33.523-33.522
		c3.699-3.701,9.704-3.701,13.407,0c3.704,3.704,3.704,9.707,0,13.41L27.293,61.223C25.443,63.074,23.015,64,20.589,64z"/>
	<path style="fill:#FF5D5D;" d="M54.112,63.996c-2.426,0-4.854-0.926-6.704-2.777L13.885,27.697c-3.704-3.704-3.704-9.706,0-13.41
		c3.699-3.701,9.708-3.701,13.407,0L60.816,47.81c3.704,3.704,3.704,9.706,0,13.41C58.966,63.071,56.538,63.996,54.112,63.996z"/>
</g>
<path style="fill:#00D40B;" d="M252.885,338.963c-18.299,0-33.185-14.887-33.185-33.185c0-18.299,14.887-33.185,33.185-33.185
	s33.185,14.887,33.185,33.185C286.07,324.076,271.184,338.963,252.885,338.963z M252.885,291.556
	c-7.843,0-14.222,6.38-14.222,14.222S245.043,320,252.885,320s14.222-6.38,14.222-14.222S260.728,291.556,252.885,291.556z"/>
<path style="fill:#FFC504;" d="M464.591,316.742c-2.426,0-4.852-0.926-6.704-2.777l-26.817-26.817c-3.704-3.704-3.704-9.706,0-13.41
	l26.817-26.817c3.699-3.701,9.704-3.701,13.407,0l26.82,26.817c1.778,1.778,2.778,4.19,2.778,6.705c0,2.515-1,4.927-2.778,6.705
	l-26.82,26.817C469.443,315.816,467.017,316.742,464.591,316.742z M451.184,280.443l13.407,13.408l13.41-13.408l-13.41-13.408
	L451.184,280.443z"/>
</svg>