<svg xmlns="http://www.w3.org/2000/svg" fill="none" viewBox="-0.5 -0.5 20 20" id="Coffee-Paper-Glass--Streamline-Kameleon.svg" height="40px" width="40px"><desc>Coffee Paper Glass Streamline Icon: https://streamlinehq.com</desc><path fill="#fb983d" d="M9.500633333333335 19.001464583333338c5.246889583333334 0 9.5002375 -4.253347916666667 9.5002375 -9.5002375 0 -5.246929166666667 -4.253347916666667 -9.500260691875 -9.5002375 -9.500260691875C4.25374375 0.0009663914583333335 0.0003865557916666667 4.254297916666667 0.0003865557916666667 9.501227083333335 0.0003865557916666667 14.748116666666668 4.25374375 19.001464583333338 9.500633333333335 19.001464583333338Z" stroke-width="1"></path><path fill="#000000" d="M12.9553875 6.737677083333334h-6.909270833333333l0.6777854166666667 8.1327125c0.003602083333333334 0.04318541666666667 0.023275 0.08340208333333334 0.05513958333333334 0.11273333333333334 0.031864583333333335 0.029370833333333336 0.07362500000000001 0.04563958333333334 0.11692916666666668 0.04567916666666667h5.2095625000000005c0.08985416666666668 0 0.16462708333333334 -0.06891458333333335 0.17222708333333334 -0.1584125l0.6776270833333334 -8.1327125Z" stroke-width="1"></path><path fill="#ffffff" d="M5.738554166666668 9.190141666666667c-0.004750000000000001 -0.04801458333333334 0.0005937500000000001 -0.09650416666666667 0.015714583333333334 -0.14234166666666667 0.015120833333333333 -0.04579791666666667 0.03962291666666667 -0.08795416666666668 0.07200208333333334 -0.12373750000000001 0.03237916666666667 -0.035783333333333334 0.07188333333333334 -0.0643625 0.11597916666666667 -0.08395625000000001 0.044095833333333334 -0.019593750000000004 0.09179375000000001 -0.02976666666666667 0.14004583333333334 -0.029806250000000006h6.836714583333333c0.048252083333333334 0 0.09598958333333334 0.01009375 0.140125 0.029687500000000002 0.044095833333333334 0.019554166666666668 0.08363958333333334 0.04817291666666667 0.11601875000000002 0.08395625000000001 0.03237916666666667 0.035783333333333334 0.056920833333333344 0.07797916666666668 0.07200208333333334 0.12381666666666669 0.015081250000000003 0.0458375 0.020385416666666666 0.09432708333333335 0.015595833333333333 0.14238125000000001l-0.2763708333333334 2.7637083333333337c-0.008510416666666666 0.08522291666666668 -0.04841041666666667 0.16427083333333334 -0.11194166666666668 0.22174583333333336 -0.06353125000000001 0.057475000000000005 -0.14614166666666667 0.08933958333333335 -0.23180000000000003 0.08933958333333335H6.358666666666667c-0.08565833333333335 0 -0.16826875 -0.031864583333333335 -0.23180000000000003 -0.08933958333333335 -0.06353125000000001 -0.057475000000000005 -0.10343125 -0.13652291666666666 -0.11194166666666668 -0.22174583333333336l-0.2763708333333334 -2.7637083333333337Z" stroke-width="1"></path><path fill="#ffffff" fill-rule="evenodd" d="m12.455252083333335 4.355908333333334 0.49989791666666666 0.9999145833333334h0.34548333333333336c0.09159583333333333 0 0.17947083333333336 0.03641666666666667 0.24426875 0.10121458333333333 0.06479791666666668 0.06475833333333333 0.101175 0.15263333333333334 0.101175 0.24426875v0.6909270833333334c0 0.09163541666666668 -0.03637708333333334 0.1795104166666667 -0.101175 0.24426875 -0.06479791666666668 0.06479791666666668 -0.15267291666666669 0.101175 -0.24426875 0.101175H5.700435416666667c-0.09163541666666668 0 -0.1795104166666667 -0.03637708333333334 -0.24430833333333335 -0.101175 -0.06475833333333333 -0.06475833333333333 -0.101175 -0.15263333333333334 -0.101175 -0.24426875v-0.6909270833333334c0 -0.09163541666666668 0.03641666666666667 -0.1795104166666667 0.101175 -0.24426875 0.06479791666666668 -0.06479791666666668 0.15267291666666669 -0.10121458333333333 0.24430833333333335 -0.10121458333333333h0.34544375000000005l0.49989791666666666 -0.9999145833333334c0.05739583333333333 -0.11475208333333334 0.14562708333333335 -0.21129583333333338 0.25479791666666673 -0.27874583333333336 0.10913125000000001 -0.06745000000000001 0.23492708333333337 -0.10315416666666667 0.3632166666666667 -0.10315416666666667h4.673445833333334c0.2616854166666667 0 0.5009270833333334 0.14784375000000002 0.6180145833333334 0.3819Z" clip-rule="evenodd" stroke-width="1"></path><path fill="#000000" d="M9.042772916666667 10.858697916666667c-0.016941666666666667 0.012785416666666669 -0.03803958333333334 0.018920833333333335 -0.059216666666666674 0.017139583333333333 -0.021177083333333336 -0.001741666666666667 -0.040929166666666676 -0.011281250000000001 -0.05553541666666668 -0.026718750000000003 -0.014606250000000003 -0.015437500000000002 -0.02299791666666667 -0.03570416666666667 -0.02359166666666667 -0.05696041666666667 -0.0005937500000000001 -0.02121666666666667 0.0066500000000000005 -0.041958333333333334 0.020385416666666666 -0.058147916666666674 0.3065729166666667 -0.3661854166666667 1.10591875 -0.8064312500000002 1.5829375 -1.0490770833333334 -0.37097500000000005 -0.3616729166666667 -1.0374791666666667 -0.4300729166666667 -1.6381958333333335 -0.12781458333333334 -0.7197041666666667 0.36218750000000005 -1.0708479166666667 1.1174770833333334 -0.7841458333333334 1.6872395833333336 0.28674166666666673 0.5696437500000001 1.102475 0.7378333333333335 1.8221791666666667 0.3756854166666667 0.7191895833333334 -0.36187083333333336 1.0701354166666668 -1.1162895833333335 0.78481875 -1.6858937500000002 -0.36305833333333337 0.1701291666666667 -1.1634333333333335 0.5618458333333334 -1.649635416666667 0.9245479166666668Z" stroke-width="1"></path></svg>