<?xml version="1.0" encoding="iso-8859-1"?>
<!-- Uploaded to: SVG Repo, www.svgrepo.com, Generator: SVG Repo Mixer Tools -->
<svg version="1.1" id="Layer_1" xmlns="http://www.w3.org/2000/svg" xmlns:xlink="http://www.w3.org/1999/xlink" 
	 viewBox="0 0 511.984 511.984" xml:space="preserve">
<path style="fill:#A0D468;" d="M490.64,501.324H21.327c-5.891,0-10.672-4.781-10.672-10.686V234.654
	c0-5.89,4.781-10.656,10.672-10.656H490.64c5.891,0,10.672,4.766,10.672,10.656v255.985
	C501.312,496.543,496.531,501.324,490.64,501.324z"/>
<g>
	<path style="fill:#FC6E51;" d="M447.986,501.324h-85.342c-5.891,0-10.655-4.781-10.655-10.686V298.642
		c0-5.873,4.765-10.654,10.655-10.654h85.342c5.875,0,10.656,4.781,10.656,10.654v191.996
		C458.642,496.543,453.861,501.324,447.986,501.324z"/>
	<path style="fill:#FC6E51;" d="M298.646,202.655h-85.325c-5.891,0-10.672,5.89-10.672,0V85.329c0-2.828,1.125-5.547,3.125-7.547
		l18.219-18.202V21.332c0-5.891,4.766-10.672,10.656-10.672h42.67c5.891,0,10.671,4.781,10.671,10.672v38.249l18.203,18.202
		c2,2,3.125,4.719,3.125,7.547v117.325C309.318,208.545,304.537,202.655,298.646,202.655z"/>
</g>
<path style="fill:#E9573F;" d="M287.99,32.004h-63.997c-5.891,0-10.672-4.781-10.672-10.671s4.781-10.672,10.672-10.672h63.997
	c5.891,0,10.656,4.781,10.656,10.672S293.881,32.004,287.99,32.004z"/>
<rect x="202.652" y="96.003" style="fill:#FFCE54;" width="106.67" height="63.999"/>
<path style="fill:#434A54;" d="M394.644,394.641c0,5.906-4.781,10.688-10.656,10.688c-5.906,0-10.672-4.781-10.672-10.688
	c0-5.875,4.766-10.656,10.672-10.656C389.863,383.984,394.644,388.766,394.644,394.641z"/>
<rect x="74.652" y="309.332" style="fill:#5D9CEC;" width="234.66" height="128"/>
<path style="fill:#656D78;" d="M501.312,191.999H10.655C4.764,191.999,0,196.764,0,202.655v31.999
	c0,5.89,4.765,10.671,10.655,10.671h490.657c5.891,0,10.672-4.781,10.672-10.671v-31.999
	C511.984,196.764,507.203,191.999,501.312,191.999z"/>
<path style="fill:#ED5564;" d="M329.521,293.895c-1.812-3.625-5.5-5.906-9.531-5.906h-63.998c-4.047,0-7.734,2.281-9.547,5.906
	c-1.797,3.592-1.422,7.936,1.016,11.154l31.999,42.656c2.016,2.688,5.172,4.281,8.53,4.281c3.359,0,6.516-1.594,8.531-4.281
	l32-42.656C330.943,301.831,331.334,297.486,329.521,293.895z"/>
<path style="fill:#FFCE54;" d="M265.523,293.895c-1.797-3.625-5.5-5.906-9.531-5.906h-63.998c-4.047,0-7.734,2.281-9.547,5.906
	c-1.797,3.592-1.422,7.936,1.016,11.154l31.999,42.656c2.016,2.688,5.172,4.281,8.531,4.281s6.516-1.594,8.531-4.281l31.999-42.656
	C266.945,301.831,267.336,297.486,265.523,293.895z"/>
<path style="fill:#ED5564;" d="M201.525,293.895c-1.797-3.625-5.5-5.906-9.531-5.906h-63.998c-4.047,0-7.734,2.281-9.547,5.906
	c-1.797,3.592-1.422,7.936,1.016,11.154l31.999,42.656c2.016,2.688,5.172,4.281,8.531,4.281s6.516-1.594,8.531-4.281l31.999-42.656
	C202.946,301.831,203.337,297.486,201.525,293.895z"/>
<path style="fill:#FFCE54;" d="M137.526,293.895c-1.797-3.625-5.499-5.906-9.53-5.906H63.998c-4.047,0-7.734,2.281-9.547,5.906
	c-1.797,3.592-1.422,7.936,1.016,11.154l31.999,42.656c2.016,2.688,5.172,4.281,8.531,4.281s6.515-1.594,8.53-4.281l31.999-42.656
	C138.948,301.831,139.339,297.486,137.526,293.895z"/>
<g>
	<path style="fill:#434A54;" d="M501.312,501.324H10.655C4.764,501.324,0,496.543,0,490.638c0-5.875,4.765-10.656,10.655-10.656
		h490.657c5.891,0,10.672,4.781,10.672,10.656C511.984,496.543,507.203,501.324,501.312,501.324z"/>
	<path style="fill:#434A54;" d="M469.314,223.998c-5.891,0-10.672,4.766-10.672,10.656v10.671h21.343v-10.671
		C479.985,228.764,475.204,223.998,469.314,223.998z"/>
	<path style="fill:#434A54;" d="M426.642,223.998c-5.89,0-10.655,4.766-10.655,10.656v10.671h21.327v-10.671
		C437.314,228.764,432.533,223.998,426.642,223.998z"/>
	<path style="fill:#434A54;" d="M383.988,223.998c-5.906,0-10.672,4.766-10.672,10.656v10.671h21.328v-10.671
		C394.644,228.764,389.863,223.998,383.988,223.998z"/>
	<path style="fill:#434A54;" d="M341.317,223.998c-5.89,0-10.671,4.766-10.671,10.656v10.671h21.343v-10.671
		C351.989,228.764,347.208,223.998,341.317,223.998z"/>
	<path style="fill:#434A54;" d="M298.646,223.998c-5.891,0-10.656,4.766-10.656,10.656v10.671h21.328v-10.671
		C309.318,228.764,304.537,223.998,298.646,223.998z"/>
	<path style="fill:#434A54;" d="M255.992,223.998c-5.891,0-10.672,4.766-10.672,10.656v10.671h21.328v-10.671
		C266.648,228.764,261.883,223.998,255.992,223.998z"/>
	<path style="fill:#434A54;" d="M213.321,223.998c-5.891,0-10.672,4.766-10.672,10.656v10.671h21.344v-10.671
		C223.993,228.764,219.212,223.998,213.321,223.998z"/>
	<path style="fill:#434A54;" d="M170.65,223.998c-5.89,0-10.655,4.766-10.655,10.656v10.671h21.327v-10.671
		C181.322,228.764,176.541,223.998,170.65,223.998z"/>
	<path style="fill:#434A54;" d="M127.996,223.998c-5.891,0-10.672,4.766-10.672,10.656v10.671h21.327v-10.671
		C138.651,228.764,133.887,223.998,127.996,223.998z"/>
	<path style="fill:#434A54;" d="M85.325,223.998c-5.891,0-10.672,4.766-10.672,10.656v10.671h21.344v-10.671
		C95.997,228.764,91.216,223.998,85.325,223.998z"/>
	<path style="fill:#434A54;" d="M42.654,223.998c-5.891,0-10.655,4.766-10.655,10.656v10.671h21.327v-10.671
		C53.326,228.764,48.545,223.998,42.654,223.998z"/>
</g>
<path style="fill:#F5F7FA;" d="M319.99,287.988H63.998c-5.891,0-10.672,4.781-10.672,10.654v149.34
	c0,5.906,4.781,10.656,10.672,10.656H319.99c5.875,0,10.656-4.75,10.656-10.656v-149.34
	C330.646,292.77,325.865,287.988,319.99,287.988z M309.318,437.327H74.653V309.331h234.665V437.327z"/>
</svg>