<?xml version="1.0" encoding="iso-8859-1"?>
<!-- Uploaded to: SVG Repo, www.svgrepo.com, Generator: SVG Repo Mixer Tools -->
<svg height="40px" width="40px" version="1.1" id="Layer_1" xmlns="http://www.w3.org/2000/svg" xmlns:xlink="http://www.w3.org/1999/xlink" 
	 viewBox="0 0 512 512" xml:space="preserve">
<path style="fill:#FF6638;" d="M481.15,296.85l22.679-174.298H381.244C344.217,101.745,301.492,89.871,256,89.871
	s-88.217,11.874-125.233,32.681H8.17L27.583,296.85L8.17,471.148H130.8c37.017,20.796,79.719,32.681,125.2,32.681
	c45.492,0,88.206-11.874,125.222-32.681H503.83L481.15,296.85z"/>
<polygon style="fill:#C63F47;" points="503.83,122.552 503.83,471.148 471.149,438.467 471.149,155.233 "/>
<polygon style="fill:#FFB88B;" points="471.149,155.233 471.149,438.467 438.468,438.467 384,296.85 438.468,155.233 "/>
<path style="fill:#FFCFB2;" d="M438.468,155.233v283.234h-65.797l-7.462,4.194C332.048,461.3,294.28,471.148,256,471.148
	c-38.258,0-76.016-9.848-109.198-28.487l-7.451-4.194h-98.5V155.233h98.467l7.451-4.194c33.171-18.628,70.939-28.487,109.23-28.487
	s76.07,9.859,109.23,28.487l7.451,4.194H438.468z"/>
<polygon style="fill:#FF883E;" points="40.851,155.233 40.851,438.467 8.17,471.148 8.17,122.552 "/>
<path style="fill:#FFE1AA;" d="M293.354,181.378h-32.681v76.255l65.285-32.681c0.054-3.475,0.076-7.103,0.076-10.894
	C326.035,196.084,311.329,181.378,293.354,181.378z"/>
<path style="fill:#FFF5E3;" d="M293.354,214.058c0,3.791-0.022,40.099-0.076,43.574l-108.784-32.681
	c-0.054-3.475-0.076-7.103-0.076-10.894c0-17.974,14.706-32.681,32.681-32.681h43.574
	C278.648,181.378,293.354,196.084,293.354,214.058z"/>
<path style="fill:#8C3B5C;" d="M293.278,224.952h32.681c-0.654,47.115-5.621,66.462-11.318,93.696
	c-4.347,20.796-9.194,44.043-12.724,80.602h-32.681l-19.957-80.602L293.278,224.952z"/>
<path style="fill:#C63F47;" d="M184.494,224.952h108.784c-0.654,47.115-5.621,66.462-11.318,93.696
	c-4.347,20.796-9.194,44.043-12.724,80.602h-60.688c-3.53-36.559-8.388-59.806-12.735-80.602
	C190.126,291.414,185.148,272.067,184.494,224.952z"/>
<polygon style="fill:#FFAB58;" points="503.83,8.167 503.83,40.848 471.149,40.848 449.362,24.507 471.149,8.167 "/>
<path style="fill:#FFCD71;" d="M471.149,8.167v32.681H24.511c-9.02,0-16.34-7.31-16.34-16.34c0-9.02,7.321-16.34,16.34-16.34
	C24.511,8.167,471.149,8.167,471.149,8.167z"/>
<path d="M187.816,320.324c4.269,20.421,9.109,43.568,12.595,79.711c0.404,4.189,3.925,7.386,8.133,7.386h93.37
	c4.208,0,7.729-3.197,8.133-7.386c3.485-36.143,8.326-59.29,12.595-79.711c0.483-2.309,0.961-4.562,1.43-6.78
	c5.438-25.649,10.135-47.801,10.135-99.485c0-22.526-18.325-40.851-40.851-40.851h-76.255c-22.526,0-40.851,18.325-40.851,40.851
	c0,51.684,4.697,73.836,10.135,99.485C186.855,315.76,187.333,318.013,187.816,320.324z M308.087,310.154
	c-0.474,2.232-0.954,4.5-1.439,6.825c-4.06,19.416-8.624,41.243-12.118,74.101h-78.602c-3.494-32.857-8.058-54.685-12.118-74.099
	c-0.485-2.325-0.966-4.593-1.439-6.825c-4.71-22.215-8.565-40.424-9.538-77.032h124.795
	C316.651,269.73,312.797,287.939,308.087,310.154z M217.101,189.548h76.255c13.515,0,24.511,10.995,24.511,24.511
	c0,0.925-0.004,1.819-0.008,2.723H192.598c-0.003-0.904-0.008-1.799-0.008-2.723C192.59,200.543,203.586,189.548,217.101,189.548z"
	/>
<circle cx="135.713" cy="215.585" r="8.17"/>
<circle cx="408.968" cy="378.117" r="8.17"/>
<circle cx="103.032" cy="248.266" r="8.17"/>
<path d="M512,122.553c0-4.512-3.657-8.17-8.17-8.17h-57.191V49.021h57.191c4.513,0,8.17-3.658,8.17-8.17s-3.657-8.17-8.17-8.17
	H24.511c-4.506,0-8.17-3.665-8.17-8.17s3.665-8.17,8.17-8.17H503.83c4.513,0,8.17-3.658,8.17-8.17S508.343,0,503.83,0H24.511
	C10.996,0,0,10.995,0,24.511s10.996,24.511,24.511,24.511h40.851v65.362H8.17c-4.513,0-8.17,3.658-8.17,8.17v348.596
	c0,4.512,3.657,8.17,8.17,8.17h10.883c0.049,0,109.627,0,109.627,0C167.495,500.707,211.468,512,256,512
	c44.554,0,88.535-11.293,127.343-32.681H503.83c4.513,0,8.17-3.658,8.17-8.17V122.553z M479.319,435.085V158.619l16.34-16.34
	v309.146L479.319,435.085z M40.851,305.021c-4.513,0-8.17,3.658-8.17,8.17v121.892l-16.34,16.34V142.278l16.34,16.34v121.892
	c0,4.512,3.657,8.17,8.17,8.17s8.17-3.658,8.17-8.17V163.404h90.297c1.402,0,2.781-0.361,4.003-1.048l7.457-4.191
	c31.943-17.953,68.329-27.442,105.221-27.442c36.896,0,73.282,9.489,105.225,27.442l7.458,4.191
	c1.222,0.687,2.601,1.048,4.003,1.048h90.293v266.894h-90.308c-1.402,0-2.781,0.361-4.003,1.048l-7.456,4.19
	c-31.95,17.954-68.332,27.443-105.212,27.443c-36.861,0-73.236-9.491-105.191-27.444l-7.456-4.189
	c-1.222-0.686-2.6-1.047-4.002-1.047h-90.33V313.191C49.021,308.679,45.364,305.021,40.851,305.021z M130.764,130.723
	c1.402,0,2.781-0.361,4.003-1.048C171.591,108.981,213.512,98.043,256,98.043c42.492,0,84.414,10.938,121.236,31.633
	c1.222,0.687,2.601,1.048,4.003,1.048h102.866l-16.34,16.34h-92.941l-5.593-3.143c-34.384-19.324-73.537-29.538-113.232-29.538
	c-39.691,0-78.844,10.214-113.228,29.538l-5.592,3.143H44.236l-16.34-16.34H130.764z M81.702,49.021h348.596v65.362h-46.938
	C344.554,92.996,300.568,81.702,256,81.702c-44.565,0-88.55,11.293-127.356,32.681H81.702V49.021z M381.223,462.979
	c-1.402,0-2.781,0.361-4.002,1.048C340.395,484.72,298.477,495.66,256,495.66c-42.456,0-84.365-10.939-121.198-31.634
	c-1.222-0.686-2.6-1.047-4.002-1.047H27.895l16.34-16.34h92.978l5.592,3.142C177.2,469.105,216.342,479.319,256,479.319
	c39.678,0,78.826-10.214,113.217-29.538l5.592-3.143h92.956l16.34,16.34H381.223z"/>
</svg>