<?xml version="1.0" encoding="iso-8859-1"?>
<!-- Uploaded to: SVG Repo, www.svgrepo.com, Generator: SVG Repo Mixer Tools -->
<svg version="1.1" id="Layer_1" xmlns="http://www.w3.org/2000/svg" xmlns:xlink="http://www.w3.org/1999/xlink" 
	 viewBox="0 0 495 495" xml:space="preserve">
<g>
	<rect x="48.336" y="374.372" style="fill:#005ECE;" width="199.164" height="120.628"/>
	<rect x="247.5" y="374.372" style="fill:#004FAC;" width="199.164" height="120.628"/>
	<rect x="347.077" y="298.219" style="fill:#A5001E;" width="99.587" height="76.154"/>
	<rect x="247.5" y="298.219" style="fill:#C70024;" width="99.577" height="76.154"/>
	<rect x="147.923" y="298.219" style="fill:#FF0C38;" width="99.577" height="76.154"/>
	<rect x="48.336" y="298.219" style="fill:#FF5023;" width="99.587" height="76.154"/>
	<path style="fill:#B3D8F4;" d="M326.254,84.172c0,43.506-35.259,78.841-78.754,78.841c-43.495,0-78.754-35.335-78.754-78.841
		c0,43.505-35.259,78.841-78.765,78.841c-15.296,0-29.569-4.363-41.645-11.923v147.129h398.328V151.089
		c-12.076,7.561-26.349,11.923-41.645,11.923C361.513,163.013,326.254,127.677,326.254,84.172z"/>
	<path style="fill:#FF5023;" d="M247.5,84.172h-78.754c0,43.505,35.259,78.841,78.754,78.841c43.495,0,78.754-35.335,78.754-78.841
		H247.5z"/>
	<path style="fill:#FF5023;" d="M168.746,84.172H11.227c0,28.209,14.828,52.981,37.109,66.917
		c12.076,7.561,26.349,11.923,41.645,11.923C133.487,163.013,168.746,127.677,168.746,84.172z"/>
	<path style="fill:#FF5023;" d="M483.773,84.172H326.254c0,43.506,35.259,78.841,78.765,78.841c15.296,0,29.569-4.363,41.645-11.923
		C468.945,137.153,483.773,112.381,483.773,84.172z"/>
	<polygon style="fill:#FFA733;" points="247.5,84.172 247.5,0 48.336,0 11.227,84.172 	"/>
	<path style="fill:#FFA733;" d="M483.773,84.172L446.664,0L483.773,84.172z"/>
	<polygon style="fill:#FF9811;" points="247.5,84.172 326.254,84.172 483.773,84.172 446.664,0 247.5,0 	"/>
</g>
</svg>